<svg xmlns="http://www.w3.org/2000/svg" xmlns:xlink="http://www.w3.org/1999/xlink" width="1280" zoomAndPan="magnify" viewBox="0 0 960 599.999999" height="800" preserveAspectRatio="xMidYMid meet" version="1.0"><defs><clipPath id="54ce314451"><path d="M 372 78.769531 L 588 78.769531 L 588 309 L 372 309 Z M 372 78.769531 " clip-rule="nonzero"/></clipPath><clipPath id="0b2bddf2a2"><path d="M 279 309 L 681 309 L 681 521.269531 L 279 521.269531 Z M 279 309 " clip-rule="nonzero"/></clipPath></defs><g clip-path="url(#54ce314451)"><path fill="#141719" d="M 479.996094 308.277344 C 539.226562 308.277344 587.40625 245.414062 587.40625 186.1875 C 587.40625 126.964844 539.226562 78.769531 479.996094 78.769531 C 420.765625 78.769531 372.582031 126.964844 372.582031 186.1875 C 372.59375 245.410156 420.773438 308.277344 479.996094 308.277344 Z M 479.996094 308.277344 " fill-opacity="1" fill-rule="nonzero"/></g><g clip-path="url(#0b2bddf2a2)"><path fill="#141719" d="M 560.632812 309.378906 C 539.796875 325.25 513.804688 334.695312 485.648438 334.695312 L 474.34375 334.695312 C 446.183594 334.695312 420.1875 325.246094 399.355469 309.378906 C 331.328125 320.375 279.378906 379.339844 279.378906 450.464844 C 279.378906 489.539062 369.195312 521.222656 479.996094 521.222656 C 590.792969 521.222656 680.613281 489.539062 680.613281 450.464844 C 680.613281 379.339844 628.660156 320.375 560.632812 309.378906 Z M 560.632812 309.378906 " fill-opacity="1" fill-rule="nonzero"/></g></svg>