<svg xmlns="http://www.w3.org/2000/svg" xmlns:xlink="http://www.w3.org/1999/xlink" width="1280" zoomAndPan="magnify" viewBox="0 0 960 599.999999" height="800" preserveAspectRatio="xMidYMid meet" version="1.0"><defs><clipPath id="d0831ca72a"><path d="M 246.757812 66.757812 L 713.257812 66.757812 L 713.257812 533.257812 L 246.757812 533.257812 Z M 246.757812 66.757812 " clip-rule="nonzero"/></clipPath></defs><g clip-path="url(#d0831ca72a)"><path fill="#f4f6fc" d="M 663.253906 100.078125 L 596.617188 100.078125 L 596.617188 83.417969 C 596.617188 82.871094 596.589844 82.328125 596.535156 81.785156 C 596.480469 81.242188 596.402344 80.703125 596.296875 80.167969 C 596.1875 79.632812 596.054688 79.105469 595.898438 78.582031 C 595.738281 78.058594 595.554688 77.546875 595.347656 77.042969 C 595.136719 76.539062 594.90625 76.046875 594.648438 75.566406 C 594.390625 75.082031 594.109375 74.617188 593.808594 74.164062 C 593.503906 73.707031 593.179688 73.269531 592.832031 72.847656 C 592.488281 72.425781 592.121094 72.023438 591.734375 71.636719 C 591.351562 71.25 590.945312 70.886719 590.523438 70.539062 C 590.101562 70.195312 589.664062 69.867188 589.210938 69.566406 C 588.757812 69.261719 588.289062 68.984375 587.808594 68.726562 C 587.328125 68.46875 586.835938 68.234375 586.332031 68.027344 C 585.828125 67.816406 585.3125 67.632812 584.792969 67.476562 C 584.269531 67.316406 583.742188 67.183594 583.207031 67.078125 C 582.671875 66.972656 582.132812 66.890625 581.589844 66.839844 C 581.046875 66.785156 580.5 66.757812 579.957031 66.757812 C 579.410156 66.757812 578.867188 66.785156 578.324219 66.839844 C 577.78125 66.890625 577.242188 66.972656 576.707031 67.078125 C 576.171875 67.183594 575.640625 67.316406 575.121094 67.476562 C 574.597656 67.632812 574.085938 67.816406 573.578125 68.027344 C 573.074219 68.234375 572.582031 68.46875 572.101562 68.726562 C 571.621094 68.984375 571.152344 69.261719 570.699219 69.566406 C 570.246094 69.867188 569.808594 70.195312 569.386719 70.539062 C 568.964844 70.886719 568.5625 71.25 568.175781 71.636719 C 567.789062 72.023438 567.421875 72.425781 567.078125 72.847656 C 566.730469 73.269531 566.40625 73.707031 566.101562 74.164062 C 565.800781 74.617188 565.519531 75.082031 565.261719 75.566406 C 565.003906 76.046875 564.773438 76.539062 564.5625 77.042969 C 564.355469 77.546875 564.171875 78.058594 564.011719 78.582031 C 563.855469 79.105469 563.722656 79.632812 563.617188 80.167969 C 563.507812 80.703125 563.429688 81.242188 563.375 81.785156 C 563.324219 82.328125 563.296875 82.871094 563.296875 83.417969 L 563.296875 100.078125 L 396.695312 100.078125 L 396.695312 83.417969 C 396.695312 82.871094 396.671875 82.328125 396.617188 81.785156 C 396.5625 81.242188 396.484375 80.703125 396.375 80.167969 C 396.269531 79.632812 396.136719 79.105469 395.980469 78.582031 C 395.820312 78.058594 395.636719 77.546875 395.429688 77.042969 C 395.21875 76.539062 394.988281 76.046875 394.730469 75.566406 C 394.472656 75.082031 394.191406 74.617188 393.890625 74.164062 C 393.585938 73.707031 393.261719 73.269531 392.914062 72.847656 C 392.570312 72.425781 392.203125 72.023438 391.816406 71.636719 C 391.429688 71.25 391.027344 70.886719 390.605469 70.539062 C 390.183594 70.195312 389.746094 69.867188 389.292969 69.566406 C 388.839844 69.261719 388.371094 68.984375 387.890625 68.726562 C 387.410156 68.46875 386.917969 68.234375 386.414062 68.027344 C 385.910156 67.816406 385.394531 67.632812 384.875 67.476562 C 384.351562 67.316406 383.824219 67.183594 383.289062 67.078125 C 382.753906 66.972656 382.214844 66.890625 381.671875 66.839844 C 381.128906 66.785156 380.582031 66.757812 380.035156 66.757812 C 379.492188 66.757812 378.945312 66.785156 378.402344 66.839844 C 377.859375 66.890625 377.320312 66.972656 376.785156 67.078125 C 376.25 67.183594 375.722656 67.316406 375.199219 67.476562 C 374.679688 67.632812 374.164062 67.816406 373.660156 68.027344 C 373.15625 68.234375 372.664062 68.46875 372.183594 68.726562 C 371.703125 68.984375 371.234375 69.261719 370.78125 69.566406 C 370.328125 69.867188 369.890625 70.195312 369.46875 70.539062 C 369.046875 70.886719 368.640625 71.25 368.257812 71.636719 C 367.871094 72.023438 367.503906 72.425781 367.160156 72.847656 C 366.8125 73.269531 366.488281 73.707031 366.183594 74.164062 C 365.882812 74.617188 365.601562 75.082031 365.34375 75.566406 C 365.085938 76.046875 364.855469 76.539062 364.644531 77.042969 C 364.4375 77.546875 364.253906 78.058594 364.09375 78.582031 C 363.9375 79.105469 363.804688 79.632812 363.695312 80.167969 C 363.589844 80.703125 363.511719 81.242188 363.457031 81.785156 C 363.402344 82.328125 363.378906 82.871094 363.378906 83.417969 L 363.378906 100.078125 L 296.738281 100.078125 C 295.101562 100.078125 293.46875 100.15625 291.839844 100.320312 C 290.210938 100.480469 288.59375 100.71875 286.988281 101.039062 C 285.382812 101.359375 283.796875 101.753906 282.230469 102.230469 C 280.664062 102.703125 279.125 103.253906 277.609375 103.882812 C 276.097656 104.507812 274.621094 105.207031 273.175781 105.980469 C 271.734375 106.75 270.332031 107.589844 268.96875 108.5 C 267.609375 109.410156 266.296875 110.382812 265.03125 111.421875 C 263.765625 112.460938 262.554688 113.558594 261.398438 114.714844 C 260.238281 115.875 259.140625 117.085938 258.101562 118.351562 C 257.0625 119.617188 256.089844 120.929688 255.179688 122.289062 C 254.273438 123.652344 253.429688 125.054688 252.660156 126.496094 C 251.886719 127.941406 251.1875 129.417969 250.5625 130.929688 C 249.9375 132.441406 249.386719 133.984375 248.910156 135.550781 C 248.433594 137.117188 248.039062 138.703125 247.71875 140.308594 C 247.398438 141.914062 247.160156 143.53125 247 145.160156 C 246.839844 146.789062 246.757812 148.421875 246.757812 150.058594 L 246.757812 483.253906 C 246.757812 484.890625 246.839844 486.523438 247 488.152344 C 247.160156 489.78125 247.398438 491.398438 247.71875 493.003906 C 248.039062 494.609375 248.433594 496.195312 248.910156 497.761719 C 249.386719 499.328125 249.9375 500.867188 250.5625 502.382812 C 251.1875 503.894531 251.886719 505.371094 252.660156 506.816406 C 253.429688 508.257812 254.273438 509.660156 255.179688 511.023438 C 256.089844 512.382812 257.0625 513.695312 258.101562 514.960938 C 259.140625 516.226562 260.238281 517.4375 261.398438 518.597656 C 262.554688 519.753906 263.765625 520.851562 265.03125 521.890625 C 266.296875 522.929688 267.609375 523.902344 268.96875 524.8125 C 270.332031 525.722656 271.734375 526.5625 273.175781 527.332031 C 274.621094 528.105469 276.097656 528.804688 277.609375 529.429688 C 279.125 530.054688 280.664062 530.605469 282.230469 531.082031 C 283.796875 531.558594 285.382812 531.953125 286.988281 532.273438 C 288.59375 532.59375 290.210938 532.832031 291.839844 532.992188 C 293.46875 533.15625 295.101562 533.234375 296.738281 533.234375 L 663.253906 533.234375 C 664.890625 533.234375 666.523438 533.15625 668.152344 532.992188 C 669.78125 532.832031 671.398438 532.59375 673.003906 532.273438 C 674.609375 531.953125 676.195312 531.558594 677.761719 531.082031 C 679.328125 530.605469 680.867188 530.054688 682.382812 529.429688 C 683.894531 528.804688 685.371094 528.105469 686.816406 527.332031 C 688.257812 526.5625 689.660156 525.722656 691.023438 524.8125 C 692.382812 523.902344 693.695312 522.929688 694.960938 521.890625 C 696.226562 520.851562 697.4375 519.753906 698.597656 518.597656 C 699.753906 517.4375 700.851562 516.226562 701.890625 514.960938 C 702.929688 513.695312 703.902344 512.382812 704.8125 511.023438 C 705.722656 509.660156 706.5625 508.257812 707.332031 506.816406 C 708.105469 505.371094 708.804688 503.894531 709.429688 502.382812 C 710.054688 500.867188 710.605469 499.328125 711.082031 497.761719 C 711.558594 496.195312 711.953125 494.609375 712.273438 493.003906 C 712.59375 491.398438 712.832031 489.78125 712.992188 488.152344 C 713.15625 486.523438 713.234375 484.890625 713.234375 483.253906 L 713.234375 150.058594 C 713.234375 148.421875 713.15625 146.789062 712.992188 145.160156 C 712.832031 143.53125 712.59375 141.914062 712.273438 140.308594 C 711.953125 138.703125 711.558594 137.117188 711.082031 135.550781 C 710.605469 133.984375 710.054688 132.441406 709.429688 130.929688 C 708.804688 129.417969 708.105469 127.941406 707.332031 126.496094 C 706.5625 125.054688 705.722656 123.652344 704.8125 122.289062 C 703.902344 120.929688 702.929688 119.617188 701.890625 118.351562 C 700.851562 117.085938 699.753906 115.875 698.597656 114.714844 C 697.4375 113.558594 696.226562 112.460938 694.960938 111.421875 C 693.695312 110.382812 692.382812 109.410156 691.023438 108.5 C 689.660156 107.589844 688.257812 106.75 686.816406 105.980469 C 685.371094 105.207031 683.894531 104.507812 682.382812 103.882812 C 680.867188 103.253906 679.328125 102.703125 677.761719 102.230469 C 676.195312 101.753906 674.609375 101.359375 673.003906 101.039062 C 671.398438 100.71875 669.78125 100.480469 668.152344 100.320312 C 666.523438 100.15625 664.890625 100.078125 663.253906 100.078125 Z M 296.738281 133.398438 L 663.253906 133.398438 C 663.800781 133.398438 664.34375 133.425781 664.886719 133.476562 C 665.429688 133.53125 665.96875 133.609375 666.503906 133.71875 C 667.039062 133.824219 667.570312 133.957031 668.089844 134.113281 C 668.613281 134.273438 669.125 134.457031 669.628906 134.664062 C 670.132812 134.875 670.628906 135.109375 671.109375 135.363281 C 671.589844 135.621094 672.058594 135.902344 672.511719 136.207031 C 672.964844 136.507812 673.402344 136.832031 673.824219 137.179688 C 674.246094 137.523438 674.648438 137.890625 675.035156 138.277344 C 675.421875 138.664062 675.785156 139.066406 676.132812 139.488281 C 676.480469 139.910156 676.804688 140.347656 677.105469 140.800781 C 677.410156 141.253906 677.691406 141.722656 677.949219 142.203125 C 678.203125 142.683594 678.4375 143.179688 678.648438 143.683594 C 678.855469 144.1875 679.039062 144.699219 679.199219 145.222656 C 679.355469 145.742188 679.488281 146.273438 679.59375 146.808594 C 679.699219 147.34375 679.78125 147.882812 679.835938 148.425781 C 679.886719 148.96875 679.914062 149.511719 679.914062 150.058594 L 679.914062 200.035156 L 280.078125 200.035156 L 280.078125 150.058594 C 280.078125 149.511719 280.105469 148.96875 280.15625 148.425781 C 280.210938 147.882812 280.292969 147.34375 280.398438 146.808594 C 280.503906 146.273438 280.636719 145.742188 280.796875 145.222656 C 280.953125 144.699219 281.136719 144.1875 281.347656 143.683594 C 281.554688 143.179688 281.789062 142.683594 282.046875 142.203125 C 282.300781 141.722656 282.582031 141.253906 282.886719 140.800781 C 283.1875 140.347656 283.511719 139.910156 283.859375 139.488281 C 284.207031 139.066406 284.570312 138.664062 284.957031 138.277344 C 285.34375 137.890625 285.746094 137.523438 286.167969 137.179688 C 286.589844 136.832031 287.027344 136.507812 287.480469 136.207031 C 287.9375 135.902344 288.402344 135.621094 288.882812 135.363281 C 289.367188 135.109375 289.859375 134.875 290.363281 134.664062 C 290.867188 134.457031 291.378906 134.273438 291.902344 134.113281 C 292.421875 133.957031 292.953125 133.824219 293.488281 133.71875 C 294.023438 133.609375 294.5625 133.53125 295.105469 133.476562 C 295.648438 133.425781 296.191406 133.398438 296.738281 133.398438 Z M 663.253906 499.914062 L 296.738281 499.914062 C 296.191406 499.914062 295.648438 499.886719 295.105469 499.835938 C 294.5625 499.78125 294.023438 499.699219 293.488281 499.59375 C 292.953125 499.488281 292.421875 499.355469 291.902344 499.199219 C 291.378906 499.039062 290.867188 498.855469 290.363281 498.648438 C 289.859375 498.4375 289.367188 498.203125 288.882812 497.949219 C 288.402344 497.691406 287.9375 497.410156 287.480469 497.105469 C 287.027344 496.804688 286.589844 496.480469 286.167969 496.132812 C 285.746094 495.785156 285.34375 495.421875 284.957031 495.035156 C 284.570312 494.648438 284.207031 494.246094 283.859375 493.824219 C 283.511719 493.402344 283.1875 492.964844 282.886719 492.511719 C 282.582031 492.058594 282.300781 491.589844 282.046875 491.109375 C 281.789062 490.628906 281.554688 490.132812 281.347656 489.628906 C 281.136719 489.125 280.953125 488.613281 280.796875 488.089844 C 280.636719 487.570312 280.503906 487.039062 280.398438 486.503906 C 280.292969 485.96875 280.210938 485.429688 280.15625 484.886719 C 280.105469 484.34375 280.078125 483.800781 280.078125 483.253906 L 280.078125 233.355469 L 679.914062 233.355469 L 679.914062 483.253906 C 679.914062 483.800781 679.886719 484.34375 679.835938 484.886719 C 679.78125 485.429688 679.699219 485.96875 679.59375 486.503906 C 679.488281 487.039062 679.355469 487.570312 679.199219 488.089844 C 679.039062 488.613281 678.855469 489.125 678.648438 489.628906 C 678.4375 490.132812 678.203125 490.628906 677.949219 491.109375 C 677.691406 491.589844 677.410156 492.058594 677.105469 492.511719 C 676.804688 492.964844 676.480469 493.402344 676.132812 493.824219 C 675.785156 494.246094 675.421875 494.648438 675.035156 495.035156 C 674.648438 495.421875 674.246094 495.785156 673.824219 496.132812 C 673.402344 496.480469 672.964844 496.804688 672.511719 497.105469 C 672.058594 497.410156 671.589844 497.691406 671.109375 497.949219 C 670.628906 498.203125 670.132812 498.4375 669.628906 498.648438 C 669.125 498.855469 668.613281 499.039062 668.089844 499.199219 C 667.570312 499.355469 667.039062 499.488281 666.503906 499.59375 C 665.96875 499.699219 665.429688 499.78125 664.886719 499.835938 C 664.34375 499.886719 663.800781 499.914062 663.253906 499.914062 Z M 663.253906 499.914062 " fill-opacity="1" fill-rule="nonzero"/></g><path fill="#f4f6fc" d="M 552.464844 287.351562 L 447.507812 377.316406 L 408.425781 338.246094 C 408.039062 337.871094 407.632812 337.515625 407.210938 337.183594 C 406.785156 336.847656 406.347656 336.53125 405.894531 336.238281 C 405.441406 335.945312 404.976562 335.675781 404.496094 335.429688 C 404.015625 335.179688 403.527344 334.957031 403.027344 334.757812 C 402.523438 334.558594 402.015625 334.382812 401.496094 334.230469 C 400.980469 334.082031 400.453125 333.957031 399.925781 333.855469 C 399.394531 333.757812 398.859375 333.683594 398.324219 333.636719 C 397.785156 333.589844 397.246094 333.566406 396.707031 333.570312 C 396.167969 333.578125 395.628906 333.605469 395.09375 333.664062 C 394.554688 333.722656 394.023438 333.804688 393.496094 333.914062 C 392.964844 334.019531 392.445312 334.15625 391.929688 334.316406 C 391.414062 334.472656 390.90625 334.660156 390.410156 334.867188 C 389.910156 335.074219 389.425781 335.308594 388.949219 335.5625 C 388.476562 335.820312 388.015625 336.097656 387.566406 336.398438 C 387.117188 336.699219 386.6875 337.019531 386.269531 337.363281 C 385.851562 337.707031 385.453125 338.070312 385.070312 338.449219 C 384.691406 338.832031 384.328125 339.230469 383.984375 339.648438 C 383.640625 340.066406 383.320312 340.496094 383.019531 340.945312 C 382.71875 341.394531 382.441406 341.855469 382.183594 342.328125 C 381.929688 342.804688 381.695312 343.289062 381.488281 343.789062 C 381.28125 344.285156 381.09375 344.792969 380.9375 345.308594 C 380.777344 345.824219 380.640625 346.34375 380.535156 346.875 C 380.425781 347.402344 380.34375 347.933594 380.285156 348.472656 C 380.226562 349.007812 380.199219 349.546875 380.191406 350.085938 C 380.1875 350.625 380.210938 351.164062 380.257812 351.703125 C 380.304688 352.238281 380.378906 352.773438 380.476562 353.304688 C 380.578125 353.832031 380.703125 354.359375 380.851562 354.875 C 381.003906 355.394531 381.179688 355.902344 381.378906 356.40625 C 381.578125 356.90625 381.800781 357.394531 382.050781 357.875 C 382.296875 358.355469 382.566406 358.820312 382.859375 359.273438 C 383.152344 359.726562 383.46875 360.164062 383.804688 360.589844 C 384.136719 361.011719 384.492188 361.417969 384.867188 361.804688 L 434.847656 411.785156 C 435.582031 412.519531 436.378906 413.179688 437.238281 413.761719 C 438.097656 414.347656 439.003906 414.847656 439.957031 415.265625 C 440.910156 415.679688 441.890625 416.003906 442.90625 416.234375 C 443.917969 416.46875 444.945312 416.601562 445.980469 416.644531 C 447.019531 416.683594 448.054688 416.625 449.082031 416.472656 C 450.109375 416.320312 451.113281 416.070312 452.097656 415.730469 C 453.078125 415.386719 454.019531 414.957031 454.917969 414.441406 C 455.820312 413.921875 456.667969 413.328125 457.457031 412.652344 L 574.074219 312.691406 C 574.511719 312.34375 574.933594 311.976562 575.332031 311.585938 C 575.734375 311.195312 576.113281 310.789062 576.472656 310.359375 C 576.832031 309.933594 577.167969 309.488281 577.484375 309.027344 C 577.800781 308.566406 578.089844 308.089844 578.359375 307.597656 C 578.625 307.109375 578.867188 306.605469 579.082031 306.089844 C 579.300781 305.574219 579.488281 305.050781 579.652344 304.515625 C 579.816406 303.980469 579.953125 303.441406 580.0625 302.890625 C 580.171875 302.34375 580.253906 301.792969 580.304688 301.234375 C 580.359375 300.679688 580.386719 300.121094 580.382812 299.5625 C 580.378906 299.003906 580.347656 298.449219 580.289062 297.890625 C 580.230469 297.335938 580.144531 296.785156 580.03125 296.238281 C 579.917969 295.691406 579.777344 295.152344 579.609375 294.617188 C 579.441406 294.085938 579.246094 293.5625 579.023438 293.050781 C 578.804688 292.535156 578.558594 292.035156 578.285156 291.546875 C 578.015625 291.058594 577.71875 290.585938 577.398438 290.125 C 577.082031 289.667969 576.738281 289.226562 576.375 288.800781 C 576.011719 288.378906 575.628906 287.972656 575.226562 287.585938 C 574.820312 287.199219 574.398438 286.835938 573.957031 286.492188 C 573.515625 286.148438 573.058594 285.828125 572.585938 285.53125 C 572.113281 285.234375 571.625 284.960938 571.125 284.714844 C 570.625 284.464844 570.113281 284.242188 569.589844 284.046875 C 569.066406 283.847656 568.535156 283.679688 567.996094 283.535156 C 567.457031 283.390625 566.910156 283.277344 566.359375 283.1875 C 565.808594 283.097656 565.253906 283.039062 564.695312 283.007812 C 564.136719 282.972656 563.578125 282.96875 563.019531 282.992188 C 562.460938 283.015625 561.90625 283.066406 561.351562 283.148438 C 560.800781 283.226562 560.253906 283.332031 559.710938 283.46875 C 559.167969 283.601562 558.632812 283.765625 558.109375 283.953125 C 557.582031 284.140625 557.066406 284.355469 556.5625 284.59375 C 556.058594 284.835938 555.566406 285.101562 555.089844 285.390625 C 554.609375 285.679688 554.148438 285.992188 553.703125 286.328125 C 553.253906 286.664062 552.828125 287.023438 552.417969 287.402344 Z M 552.464844 287.351562 " fill-opacity="1" fill-rule="nonzero"/></svg>