<svg xmlns="http://www.w3.org/2000/svg" xmlns:xlink="http://www.w3.org/1999/xlink" width="1280" zoomAndPan="magnify" viewBox="0 0 960 599.999999" height="800" preserveAspectRatio="xMidYMid meet" version="1.0"><path fill="#193e80" d="M 531.761719 300.132812 L 686.613281 145.28125 C 700.863281 131.03125 700.890625 107.890625 686.636719 93.632812 C 672.410156 79.40625 649.257812 79.386719 634.988281 93.65625 L 480.136719 248.507812 L 325.285156 93.65625 C 311.035156 79.40625 287.894531 79.378906 273.636719 93.632812 C 259.410156 107.859375 259.390625 131.011719 273.660156 145.28125 L 428.511719 300.132812 L 273.660156 454.984375 C 259.410156 469.234375 259.382812 492.375 273.636719 506.632812 C 287.863281 520.859375 311.015625 520.878906 325.285156 506.609375 L 480.136719 351.757812 L 634.988281 506.609375 C 649.238281 520.859375 672.378906 520.886719 686.636719 506.632812 C 700.863281 492.40625 700.882812 469.253906 686.613281 454.984375 Z M 531.761719 300.132812 " fill-opacity="1" fill-rule="evenodd"/></svg>