<svg xmlns="http://www.w3.org/2000/svg" xmlns:xlink="http://www.w3.org/1999/xlink" width="1280" zoomAndPan="magnify" viewBox="0 0 960 599.999999" height="800" preserveAspectRatio="xMidYMid meet" version="1.0"><defs><clipPath id="92e997b00f"><path d="M 251.203125 71.203125 L 466 71.203125 L 466 286 L 251.203125 286 Z M 251.203125 71.203125 " clip-rule="nonzero"/></clipPath><clipPath id="4d3238a847"><path d="M 494 71.203125 L 708.703125 71.203125 L 708.703125 286 L 494 286 Z M 494 71.203125 " clip-rule="nonzero"/></clipPath><clipPath id="3e4d1d3bf6"><path d="M 251.203125 314 L 466 314 L 466 528.703125 L 251.203125 528.703125 Z M 251.203125 314 " clip-rule="nonzero"/></clipPath><clipPath id="a161f391a7"><path d="M 494 314 L 708.703125 314 L 708.703125 528.703125 L 494 528.703125 Z M 494 314 " clip-rule="nonzero"/></clipPath></defs><g clip-path="url(#92e997b00f)"><path fill="#f4f6fc" d="M 308.402344 71.203125 L 408.5 71.203125 C 410.375 71.203125 412.242188 71.292969 414.105469 71.476562 C 415.972656 71.660156 417.820312 71.9375 419.660156 72.300781 C 421.496094 72.667969 423.3125 73.121094 425.105469 73.664062 C 426.898438 74.210938 428.660156 74.839844 430.390625 75.554688 C 432.121094 76.273438 433.8125 77.074219 435.464844 77.957031 C 437.117188 78.839844 438.722656 79.800781 440.277344 80.84375 C 441.835938 81.882812 443.339844 82.996094 444.785156 84.1875 C 446.234375 85.375 447.621094 86.632812 448.945312 87.957031 C 450.269531 89.28125 451.527344 90.667969 452.714844 92.113281 C 453.902344 93.5625 455.019531 95.066406 456.058594 96.625 C 457.101562 98.179688 458.0625 99.785156 458.945312 101.4375 C 459.828125 103.089844 460.628906 104.78125 461.34375 106.511719 C 462.0625 108.242188 462.691406 110.003906 463.238281 111.796875 C 463.78125 113.589844 464.234375 115.40625 464.601562 117.242188 C 464.964844 119.078125 465.242188 120.929688 465.425781 122.796875 C 465.609375 124.660156 465.699219 126.527344 465.699219 128.402344 L 465.699219 228.5 C 465.699219 230.375 465.609375 232.242188 465.425781 234.105469 C 465.242188 235.972656 464.964844 237.820312 464.601562 239.660156 C 464.234375 241.496094 463.78125 243.3125 463.238281 245.105469 C 462.691406 246.898438 462.0625 248.660156 461.34375 250.390625 C 460.628906 252.121094 459.828125 253.8125 458.945312 255.464844 C 458.0625 257.117188 457.101562 258.722656 456.058594 260.277344 C 455.019531 261.835938 453.902344 263.339844 452.714844 264.785156 C 451.527344 266.234375 450.269531 267.621094 448.945312 268.945312 C 447.621094 270.269531 446.234375 271.527344 444.785156 272.714844 C 443.339844 273.90625 441.835938 275.019531 440.277344 276.058594 C 438.722656 277.101562 437.117188 278.0625 435.464844 278.945312 C 433.8125 279.828125 432.121094 280.628906 430.390625 281.34375 C 428.660156 282.0625 426.898438 282.691406 425.105469 283.238281 C 423.3125 283.78125 421.496094 284.234375 419.660156 284.601562 C 417.820312 284.964844 415.972656 285.242188 414.105469 285.425781 C 412.242188 285.609375 410.375 285.699219 408.5 285.699219 L 308.402344 285.699219 C 306.527344 285.699219 304.660156 285.609375 302.796875 285.425781 C 300.929688 285.242188 299.078125 284.964844 297.242188 284.601562 C 295.40625 284.234375 293.589844 283.78125 291.796875 283.238281 C 290.003906 282.691406 288.242188 282.0625 286.511719 281.34375 C 284.78125 280.628906 283.089844 279.828125 281.4375 278.945312 C 279.785156 278.0625 278.179688 277.101562 276.625 276.058594 C 275.066406 275.019531 273.5625 273.90625 272.113281 272.714844 C 270.667969 271.527344 269.28125 270.269531 267.957031 268.945312 C 266.632812 267.621094 265.375 266.234375 264.1875 264.785156 C 262.996094 263.339844 261.882812 261.835938 260.84375 260.277344 C 259.800781 258.722656 258.839844 257.117188 257.957031 255.464844 C 257.074219 253.8125 256.273438 252.121094 255.554688 250.390625 C 254.839844 248.660156 254.210938 246.898438 253.664062 245.105469 C 253.121094 243.3125 252.667969 241.496094 252.300781 239.660156 C 251.9375 237.820312 251.660156 235.972656 251.476562 234.105469 C 251.292969 232.242188 251.203125 230.375 251.203125 228.5 L 251.203125 128.402344 C 251.203125 126.527344 251.292969 124.660156 251.476562 122.796875 C 251.660156 120.929688 251.9375 119.078125 252.300781 117.242188 C 252.667969 115.40625 253.121094 113.589844 253.664062 111.796875 C 254.210938 110.003906 254.839844 108.242188 255.554688 106.511719 C 256.273438 104.78125 257.074219 103.089844 257.957031 101.4375 C 258.839844 99.785156 259.800781 98.179688 260.84375 96.625 C 261.882812 95.066406 262.996094 93.5625 264.1875 92.113281 C 265.375 90.667969 266.632812 89.28125 267.957031 87.957031 C 269.28125 86.632812 270.667969 85.375 272.113281 84.1875 C 273.5625 82.996094 275.066406 81.882812 276.625 80.84375 C 278.179688 79.800781 279.785156 78.839844 281.4375 77.957031 C 283.089844 77.074219 284.78125 76.273438 286.511719 75.554688 C 288.242188 74.839844 290.003906 74.210938 291.796875 73.664062 C 293.589844 73.121094 295.40625 72.667969 297.242188 72.300781 C 299.078125 71.9375 300.929688 71.660156 302.796875 71.476562 C 304.660156 71.292969 306.527344 71.203125 308.402344 71.203125 Z M 308.402344 71.203125 " fill-opacity="1" fill-rule="nonzero"/></g><g clip-path="url(#4d3238a847)"><path fill="#f4f6fc" d="M 551.5 71.203125 L 651.597656 71.203125 C 653.46875 71.203125 655.339844 71.292969 657.203125 71.476562 C 659.066406 71.660156 660.917969 71.9375 662.757812 72.300781 C 664.59375 72.667969 666.410156 73.121094 668.199219 73.664062 C 669.992188 74.210938 671.753906 74.839844 673.484375 75.554688 C 675.21875 76.273438 676.910156 77.074219 678.558594 77.957031 C 680.210938 78.839844 681.816406 79.800781 683.375 80.84375 C 684.933594 81.882812 686.4375 82.996094 687.882812 84.1875 C 689.332031 85.375 690.71875 86.632812 692.042969 87.957031 C 693.367188 89.28125 694.625 90.667969 695.8125 92.113281 C 697 93.5625 698.117188 95.066406 699.15625 96.625 C 700.195312 98.179688 701.160156 99.785156 702.042969 101.4375 C 702.925781 103.089844 703.726562 104.78125 704.441406 106.511719 C 705.160156 108.242188 705.789062 110.003906 706.332031 111.796875 C 706.875 113.589844 707.332031 115.40625 707.695312 117.242188 C 708.0625 119.078125 708.335938 120.929688 708.519531 122.796875 C 708.703125 124.660156 708.796875 126.527344 708.796875 128.402344 L 708.796875 228.5 C 708.796875 230.375 708.703125 232.242188 708.519531 234.105469 C 708.335938 235.972656 708.0625 237.820312 707.695312 239.660156 C 707.332031 241.496094 706.875 243.3125 706.332031 245.105469 C 705.789062 246.898438 705.160156 248.660156 704.441406 250.390625 C 703.726562 252.121094 702.925781 253.8125 702.042969 255.464844 C 701.160156 257.117188 700.195312 258.722656 699.15625 260.277344 C 698.117188 261.835938 697 263.339844 695.8125 264.785156 C 694.625 266.234375 693.367188 267.621094 692.042969 268.945312 C 690.71875 270.269531 689.332031 271.527344 687.882812 272.714844 C 686.4375 273.90625 684.933594 275.019531 683.375 276.058594 C 681.816406 277.101562 680.210938 278.0625 678.558594 278.945312 C 676.910156 279.828125 675.21875 280.628906 673.484375 281.34375 C 671.753906 282.0625 669.992188 282.691406 668.199219 283.238281 C 666.410156 283.78125 664.59375 284.234375 662.757812 284.601562 C 660.917969 284.964844 659.066406 285.242188 657.203125 285.425781 C 655.339844 285.609375 653.46875 285.699219 651.597656 285.699219 L 551.5 285.699219 C 549.625 285.699219 547.757812 285.609375 545.890625 285.425781 C 544.027344 285.242188 542.175781 284.964844 540.339844 284.601562 C 538.5 284.234375 536.6875 283.78125 534.894531 283.238281 C 533.101562 282.691406 531.339844 282.0625 529.609375 281.34375 C 527.878906 280.628906 526.1875 279.828125 524.535156 278.945312 C 522.882812 278.0625 521.277344 277.101562 519.71875 276.058594 C 518.164062 275.019531 516.660156 273.90625 515.210938 272.714844 C 513.761719 271.527344 512.378906 270.269531 511.050781 268.945312 C 509.726562 267.621094 508.472656 266.234375 507.28125 264.785156 C 506.09375 263.339844 504.980469 261.835938 503.9375 260.277344 C 502.898438 258.722656 501.9375 257.117188 501.054688 255.464844 C 500.171875 253.8125 499.371094 252.121094 498.652344 250.390625 C 497.9375 248.660156 497.304688 246.898438 496.761719 245.105469 C 496.21875 243.3125 495.761719 241.496094 495.398438 239.660156 C 495.03125 237.820312 494.757812 235.972656 494.574219 234.105469 C 494.390625 232.242188 494.300781 230.375 494.300781 228.5 L 494.300781 128.402344 C 494.300781 126.527344 494.390625 124.660156 494.574219 122.796875 C 494.757812 120.929688 495.03125 119.078125 495.398438 117.242188 C 495.761719 115.40625 496.21875 113.589844 496.761719 111.796875 C 497.304688 110.003906 497.9375 108.242188 498.652344 106.511719 C 499.371094 104.78125 500.171875 103.089844 501.054688 101.4375 C 501.9375 99.785156 502.898438 98.179688 503.9375 96.625 C 504.980469 95.066406 506.09375 93.5625 507.28125 92.113281 C 508.472656 90.667969 509.726562 89.28125 511.050781 87.957031 C 512.378906 86.632812 513.761719 85.375 515.210938 84.1875 C 516.660156 82.996094 518.164062 81.882812 519.71875 80.84375 C 521.277344 79.800781 522.882812 78.839844 524.535156 77.957031 C 526.1875 77.074219 527.878906 76.273438 529.609375 75.554688 C 531.339844 74.839844 533.101562 74.210938 534.894531 73.664062 C 536.6875 73.121094 538.5 72.667969 540.339844 72.300781 C 542.175781 71.9375 544.027344 71.660156 545.890625 71.476562 C 547.757812 71.292969 549.625 71.203125 551.5 71.203125 Z M 551.5 71.203125 " fill-opacity="1" fill-rule="nonzero"/></g><g clip-path="url(#3e4d1d3bf6)"><path fill="#f4f6fc" d="M 308.402344 314.300781 L 408.5 314.300781 C 410.375 314.300781 412.242188 314.390625 414.105469 314.574219 C 415.972656 314.757812 417.820312 315.03125 419.660156 315.398438 C 421.496094 315.761719 423.3125 316.21875 425.105469 316.761719 C 426.898438 317.304688 428.660156 317.9375 430.390625 318.652344 C 432.121094 319.371094 433.8125 320.171875 435.464844 321.054688 C 437.117188 321.9375 438.722656 322.898438 440.277344 323.9375 C 441.835938 324.980469 443.339844 326.09375 444.785156 327.28125 C 446.234375 328.472656 447.621094 329.726562 448.945312 331.050781 C 450.269531 332.378906 451.527344 333.761719 452.714844 335.210938 C 453.902344 336.660156 455.019531 338.164062 456.058594 339.71875 C 457.101562 341.277344 458.0625 342.882812 458.945312 344.535156 C 459.828125 346.1875 460.628906 347.878906 461.34375 349.609375 C 462.0625 351.339844 462.691406 353.101562 463.238281 354.894531 C 463.78125 356.6875 464.234375 358.5 464.601562 360.339844 C 464.964844 362.175781 465.242188 364.027344 465.425781 365.890625 C 465.609375 367.757812 465.699219 369.625 465.699219 371.5 L 465.699219 471.597656 C 465.699219 473.46875 465.609375 475.339844 465.425781 477.203125 C 465.242188 479.066406 464.964844 480.917969 464.601562 482.757812 C 464.234375 484.59375 463.78125 486.410156 463.238281 488.199219 C 462.691406 489.992188 462.0625 491.753906 461.34375 493.484375 C 460.628906 495.21875 459.828125 496.910156 458.945312 498.558594 C 458.0625 500.210938 457.101562 501.816406 456.058594 503.375 C 455.019531 504.933594 453.902344 506.4375 452.714844 507.882812 C 451.527344 509.332031 450.269531 510.71875 448.945312 512.042969 C 447.621094 513.367188 446.234375 514.625 444.785156 515.8125 C 443.339844 517 441.835938 518.117188 440.277344 519.15625 C 438.722656 520.195312 437.117188 521.160156 435.464844 522.042969 C 433.8125 522.925781 432.121094 523.726562 430.390625 524.441406 C 428.660156 525.160156 426.898438 525.789062 425.105469 526.332031 C 423.3125 526.878906 421.496094 527.332031 419.660156 527.695312 C 417.820312 528.0625 415.972656 528.335938 414.105469 528.519531 C 412.242188 528.703125 410.375 528.796875 408.5 528.796875 L 308.402344 528.796875 C 306.527344 528.796875 304.660156 528.703125 302.796875 528.519531 C 300.929688 528.335938 299.078125 528.0625 297.242188 527.695312 C 295.40625 527.332031 293.589844 526.878906 291.796875 526.332031 C 290.003906 525.789062 288.242188 525.160156 286.511719 524.441406 C 284.78125 523.726562 283.089844 522.925781 281.4375 522.042969 C 279.785156 521.160156 278.179688 520.195312 276.625 519.15625 C 275.066406 518.117188 273.5625 517 272.113281 515.8125 C 270.667969 514.625 269.28125 513.367188 267.957031 512.042969 C 266.632812 510.71875 265.375 509.332031 264.1875 507.882812 C 262.996094 506.4375 261.882812 504.933594 260.84375 503.375 C 259.800781 501.816406 258.839844 500.210938 257.957031 498.558594 C 257.074219 496.910156 256.273438 495.21875 255.554688 493.484375 C 254.839844 491.753906 254.210938 489.992188 253.664062 488.199219 C 253.121094 486.410156 252.667969 484.59375 252.300781 482.757812 C 251.9375 480.917969 251.660156 479.066406 251.476562 477.203125 C 251.292969 475.339844 251.203125 473.46875 251.203125 471.597656 L 251.203125 371.5 C 251.203125 369.625 251.292969 367.757812 251.476562 365.890625 C 251.660156 364.027344 251.9375 362.175781 252.300781 360.339844 C 252.667969 358.5 253.121094 356.6875 253.664062 354.894531 C 254.210938 353.101562 254.839844 351.339844 255.554688 349.609375 C 256.273438 347.878906 257.074219 346.1875 257.957031 344.535156 C 258.839844 342.882812 259.800781 341.277344 260.84375 339.71875 C 261.882812 338.164062 262.996094 336.660156 264.1875 335.210938 C 265.375 333.761719 266.632812 332.378906 267.957031 331.050781 C 269.28125 329.726562 270.667969 328.472656 272.113281 327.28125 C 273.5625 326.09375 275.066406 324.980469 276.625 323.9375 C 278.179688 322.898438 279.785156 321.9375 281.4375 321.054688 C 283.089844 320.171875 284.78125 319.371094 286.511719 318.652344 C 288.242188 317.9375 290.003906 317.304688 291.796875 316.761719 C 293.589844 316.21875 295.40625 315.761719 297.242188 315.398438 C 299.078125 315.03125 300.929688 314.757812 302.796875 314.574219 C 304.660156 314.390625 306.527344 314.300781 308.402344 314.300781 Z M 308.402344 314.300781 " fill-opacity="1" fill-rule="nonzero"/></g><g clip-path="url(#a161f391a7)"><path fill="#f4f6fc" d="M 551.5 314.300781 L 651.597656 314.300781 C 653.46875 314.300781 655.339844 314.390625 657.203125 314.574219 C 659.066406 314.757812 660.917969 315.03125 662.757812 315.398438 C 664.59375 315.761719 666.410156 316.21875 668.199219 316.761719 C 669.992188 317.304688 671.753906 317.9375 673.484375 318.652344 C 675.21875 319.371094 676.910156 320.171875 678.558594 321.054688 C 680.210938 321.9375 681.816406 322.898438 683.375 323.9375 C 684.933594 324.980469 686.4375 326.09375 687.882812 327.28125 C 689.332031 328.472656 690.71875 329.726562 692.042969 331.050781 C 693.367188 332.378906 694.625 333.761719 695.8125 335.210938 C 697 336.660156 698.117188 338.164062 699.15625 339.71875 C 700.195312 341.277344 701.160156 342.882812 702.042969 344.535156 C 702.925781 346.1875 703.726562 347.878906 704.441406 349.609375 C 705.160156 351.339844 705.789062 353.101562 706.332031 354.894531 C 706.875 356.6875 707.332031 358.5 707.695312 360.339844 C 708.0625 362.175781 708.335938 364.027344 708.519531 365.890625 C 708.703125 367.757812 708.796875 369.625 708.796875 371.5 L 708.796875 471.597656 C 708.796875 473.46875 708.703125 475.339844 708.519531 477.203125 C 708.335938 479.066406 708.0625 480.917969 707.695312 482.757812 C 707.332031 484.59375 706.875 486.410156 706.332031 488.199219 C 705.789062 489.992188 705.160156 491.753906 704.441406 493.484375 C 703.726562 495.21875 702.925781 496.910156 702.042969 498.558594 C 701.160156 500.210938 700.195312 501.816406 699.15625 503.375 C 698.117188 504.933594 697 506.4375 695.8125 507.882812 C 694.625 509.332031 693.367188 510.71875 692.042969 512.042969 C 690.71875 513.367188 689.332031 514.625 687.882812 515.8125 C 686.4375 517 684.933594 518.117188 683.375 519.15625 C 681.816406 520.195312 680.210938 521.160156 678.558594 522.042969 C 676.910156 522.925781 675.21875 523.726562 673.484375 524.441406 C 671.753906 525.160156 669.992188 525.789062 668.199219 526.332031 C 666.410156 526.878906 664.59375 527.332031 662.757812 527.695312 C 660.917969 528.0625 659.066406 528.335938 657.203125 528.519531 C 655.339844 528.703125 653.46875 528.796875 651.597656 528.796875 L 551.5 528.796875 C 549.625 528.796875 547.757812 528.703125 545.890625 528.519531 C 544.027344 528.335938 542.175781 528.0625 540.339844 527.695312 C 538.5 527.332031 536.6875 526.878906 534.894531 526.332031 C 533.101562 525.789062 531.339844 525.160156 529.609375 524.441406 C 527.878906 523.726562 526.1875 522.925781 524.535156 522.042969 C 522.882812 521.160156 521.277344 520.195312 519.71875 519.15625 C 518.164062 518.117188 516.660156 517 515.210938 515.8125 C 513.761719 514.625 512.378906 513.367188 511.050781 512.042969 C 509.726562 510.71875 508.472656 509.332031 507.28125 507.882812 C 506.09375 506.4375 504.980469 504.933594 503.9375 503.375 C 502.898438 501.816406 501.9375 500.210938 501.054688 498.558594 C 500.171875 496.910156 499.371094 495.21875 498.652344 493.484375 C 497.9375 491.753906 497.304688 489.992188 496.761719 488.199219 C 496.21875 486.410156 495.761719 484.59375 495.398438 482.757812 C 495.03125 480.917969 494.757812 479.066406 494.574219 477.203125 C 494.390625 475.339844 494.300781 473.46875 494.300781 471.597656 L 494.300781 371.5 C 494.300781 369.625 494.390625 367.757812 494.574219 365.890625 C 494.757812 364.027344 495.03125 362.175781 495.398438 360.339844 C 495.761719 358.5 496.21875 356.6875 496.761719 354.894531 C 497.304688 353.101562 497.9375 351.339844 498.652344 349.609375 C 499.371094 347.878906 500.171875 346.1875 501.054688 344.535156 C 501.9375 342.882812 502.898438 341.277344 503.9375 339.71875 C 504.980469 338.164062 506.09375 336.660156 507.28125 335.210938 C 508.472656 333.761719 509.726562 332.378906 511.050781 331.050781 C 512.378906 329.726562 513.761719 328.472656 515.210938 327.28125 C 516.660156 326.09375 518.164062 324.980469 519.71875 323.9375 C 521.277344 322.898438 522.882812 321.9375 524.535156 321.054688 C 526.1875 320.171875 527.878906 319.371094 529.609375 318.652344 C 531.339844 317.9375 533.101562 317.304688 534.894531 316.761719 C 536.6875 316.21875 538.5 315.761719 540.339844 315.398438 C 542.175781 315.03125 544.027344 314.757812 545.890625 314.574219 C 547.757812 314.390625 549.625 314.300781 551.5 314.300781 Z M 551.5 314.300781 " fill-opacity="1" fill-rule="nonzero"/></g></svg>