<svg xmlns="http://www.w3.org/2000/svg" xmlns:xlink="http://www.w3.org/1999/xlink" width="1280" zoomAndPan="magnify" viewBox="0 0 960 599.999999" height="800" preserveAspectRatio="xMidYMid meet" version="1.0"><path fill="#6bc8ea" d="M 371.15625 226.652344 C 371.472656 220.597656 371.207031 213.683594 370.679688 206.609375 C 369.929688 196.5 368.652344 186.054688 367.863281 177.421875 C 365.820312 155.109375 364.710938 133.179688 361.574219 111.46875 C 359.460938 96.839844 356.429688 82.3125 351.617188 67.832031 C 349.597656 61.761719 347.660156 55.582031 344.972656 49.785156 C 343.074219 45.6875 340.8125 41.777344 337.933594 38.199219 C 332.910156 31.953125 325.328125 27.351562 317.023438 24.457031 C 309.03125 21.667969 300.386719 20.457031 292.941406 20.71875 C 289.117188 20.851562 285.175781 21.164062 281.269531 21.71875 C 277.292969 22.285156 273.355469 23.109375 269.613281 24.253906 C 267.246094 24.976562 265.914062 27.480469 266.636719 29.851562 C 267.359375 32.21875 269.871094 33.550781 272.234375 32.828125 C 275.539062 31.816406 279.019531 31.097656 282.535156 30.597656 C 286.121094 30.085938 289.742188 29.804688 293.257812 29.679688 C 299.691406 29.453125 307.160156 30.515625 314.074219 32.925781 C 320.738281 35.25 326.910156 38.804688 330.945312 43.820312 C 333.363281 46.824219 335.242188 50.113281 336.835938 53.550781 C 339.378906 59.046875 341.195312 64.914062 343.105469 70.664062 C 347.75 84.625 350.660156 98.640625 352.699219 112.75 C 355.8125 134.308594 356.902344 156.085938 358.933594 178.242188 C 359.714844 186.828125 360.992188 197.214844 361.738281 207.273438 C 362.234375 213.949219 362.496094 220.476562 362.199219 226.191406 C 362.074219 228.660156 363.976562 230.769531 366.445312 230.898438 C 368.917969 231.027344 371.027344 229.125 371.15625 226.652344 Z M 371.15625 226.652344 " fill-opacity="1" fill-rule="evenodd"/><path fill="#6bc8ea" d="M 219.265625 250.894531 C 209.382812 210.382812 187.347656 173.621094 171.835938 134.960938 C 165.3125 118.691406 159.960938 102.082031 157.289062 84.675781 C 155.296875 71.699219 158.175781 61.441406 164.863281 54.328125 C 171.667969 47.089844 182.210938 43.167969 194.886719 42.566406 C 197.703125 42.433594 200.898438 41.933594 203.996094 41.84375 C 205.632812 41.792969 207.234375 41.851562 208.683594 42.277344 C 211.054688 42.980469 213.550781 41.621094 214.253906 39.25 C 214.953125 36.875 213.597656 34.378906 211.222656 33.679688 C 209.425781 33.148438 207.488281 32.910156 205.492188 32.871094 C 201.800781 32.792969 197.863281 33.449219 194.460938 33.609375 C 179.144531 34.335938 166.550781 39.441406 158.328125 48.1875 C 149.964844 57.082031 145.929688 69.804688 148.425781 86.039062 C 151.203125 104.125 156.730469 121.394531 163.515625 138.296875 C 178.867188 176.566406 200.769531 212.917969 210.554688 253.019531 C 211.140625 255.425781 213.570312 256.902344 215.972656 256.3125 C 218.378906 255.726562 219.855469 253.300781 219.265625 250.894531 Z M 219.265625 250.894531 " fill-opacity="1" fill-rule="evenodd"/><path fill="#6bc8ea" d="M 366.605469 187.910156 C 362.414062 185.347656 357.910156 185.0625 353.824219 186.410156 C 350.054688 187.652344 346.628906 190.339844 344.257812 193.992188 C 336.953125 205.253906 330.96875 216.433594 322.152344 224.667969 C 316.738281 229.71875 310.210938 233.605469 301.503906 235.589844 C 294.296875 237.234375 286.875 238.632812 279.558594 238.371094 C 274.976562 238.210938 270.433594 237.382812 266.03125 235.496094 C 251.542969 229.277344 238.925781 217.40625 224.292969 211.632812 C 217.410156 208.921875 210.113281 207.460938 202.078125 208.226562 C 199.613281 208.457031 197.804688 210.648438 198.035156 213.109375 C 198.273438 215.574219 200.460938 217.382812 202.925781 217.152344 C 209.46875 216.53125 215.398438 217.765625 221.003906 219.976562 C 235.554688 225.714844 248.085938 237.550781 262.496094 243.734375 C 267.949219 246.078125 273.5625 247.132812 279.238281 247.332031 C 287.324219 247.621094 295.535156 246.144531 303.5 244.332031 C 313.945312 241.949219 321.777344 237.285156 328.269531 231.222656 C 337.597656 222.511719 344.058594 210.78125 351.78125 198.875 C 352.996094 197.003906 354.699219 195.5625 356.628906 194.925781 C 358.324219 194.367188 360.191406 194.496094 361.925781 195.558594 C 364.035156 196.851562 366.800781 196.183594 368.089844 194.074219 C 369.382812 191.960938 368.71875 189.199219 366.605469 187.910156 Z M 366.605469 187.910156 " fill-opacity="1" fill-rule="evenodd"/><path fill="#326381" d="M 208.441406 39.472656 C 210.210938 44.285156 214.992188 50.039062 220.347656 52.640625 C 225.445312 55.113281 230.875 55.027344 235.242188 50.636719 C 236.164062 49.710938 236.933594 48.554688 237.546875 47.285156 C 238.242188 45.839844 238.738281 44.242188 239.113281 42.855469 C 240.636719 37.289062 239.328125 31.847656 236.242188 28.023438 C 233.03125 24.03125 227.898438 21.683594 221.75 22.722656 C 219.15625 23.164062 216.746094 24.183594 214.574219 25.609375 C 211.589844 27.5625 209.050781 30.289062 207.105469 33.152344 C 205.714844 35.203125 206.25 37.992188 208.296875 39.382812 Z M 216.613281 35.5625 C 216.640625 35.652344 216.667969 35.746094 216.6875 35.839844 C 217.277344 38.394531 219.753906 41.574219 222.621094 43.59375 C 224.667969 45.03125 227.042969 46.167969 228.882812 44.3125 C 229.226562 43.972656 229.4375 43.488281 229.644531 43.003906 C 229.996094 42.164062 230.25 41.273438 230.464844 40.488281 C 231.164062 37.929688 230.675781 35.40625 229.261719 33.648438 C 227.933594 32.003906 225.78125 31.136719 223.246094 31.566406 C 221.511719 31.859375 219.953125 32.691406 218.574219 33.761719 C 217.875 34.308594 217.222656 34.914062 216.613281 35.5625 Z M 216.613281 35.5625 " fill-opacity="1" fill-rule="evenodd"/><path fill="#326381" d="M 210.816406 35.671875 C 213.519531 31.6875 217.554688 27.980469 222.496094 27.144531 C 231.140625 25.683594 237.023438 33.511719 234.789062 41.671875 C 234.265625 43.597656 233.511719 46.019531 232.0625 47.476562 C 225.113281 54.457031 213.902344 43.714844 212.320312 36.847656 " fill-opacity="1" fill-rule="evenodd"/><path fill="#326381" d="M 275.078125 25.863281 C 274.347656 24.738281 273.46875 23.78125 272.476562 22.964844 C 269.492188 20.523438 265.292969 19.441406 260.9375 19.242188 C 258.746094 19.140625 256.300781 19.328125 254.222656 20.171875 C 252.371094 20.925781 250.765625 22.152344 249.621094 24.003906 C 248.785156 25.355469 248.339844 26.984375 248.273438 28.753906 C 248.175781 31.289062 248.9375 34.210938 249.476562 36.226562 C 250.078125 38.460938 250.859375 40.519531 252.101562 42.257812 C 253.078125 43.625 254.328125 44.8125 255.976562 45.761719 C 259.644531 47.855469 264.535156 48.128906 268.789062 46.652344 C 273.265625 45.097656 276.914062 41.691406 278.015625 37.054688 C 278.324219 35.75 278.363281 34.34375 278.195312 32.925781 C 278 31.316406 277.527344 29.683594 277.054688 28.285156 C 276.695312 27.222656 275.972656 26.386719 275.078125 25.863281 Z M 269.3125 34.863281 C 268.742188 34.246094 268.339844 33.460938 268.191406 32.570312 C 267.9375 31.046875 267.1875 30.050781 266.121094 29.449219 C 264.546875 28.554688 262.542969 28.289062 260.527344 28.199219 C 259.804688 28.164062 259.023438 28.160156 258.277344 28.292969 C 257.898438 28.363281 257.464844 28.371094 257.25 28.722656 C 257.140625 28.898438 257.230469 29.136719 257.234375 29.371094 C 257.242188 29.84375 257.308594 30.332031 257.394531 30.8125 C 257.59375 31.945312 257.90625 33.035156 258.140625 33.90625 C 258.410156 34.90625 258.691406 35.863281 259.175781 36.695312 C 259.46875 37.203125 259.855469 37.648438 260.433594 37.976562 C 261.976562 38.863281 264.054688 38.804688 265.847656 38.183594 C 267.429688 37.632812 268.902344 36.621094 269.289062 34.980469 Z M 269.3125 34.863281 " fill-opacity="1" fill-rule="evenodd"/><path fill="#326381" d="M 272.808594 29.726562 C 273.449219 31.613281 274.128906 34.015625 273.652344 36.015625 C 272.164062 42.289062 263.421875 44.851562 258.203125 41.867188 C 255.566406 40.359375 254.558594 37.871094 253.808594 35.066406 C 253.160156 32.648438 252 28.683594 253.433594 26.363281 C 254.96875 23.878906 258.121094 23.597656 260.730469 23.71875 C 266.261719 23.972656 271.589844 25.683594 272.613281 31.832031 " fill-opacity="1" fill-rule="evenodd"/><path fill="#6bc8ea" d="M 320.890625 381.933594 C 335.246094 433.101562 362.730469 482.164062 400.375 519.296875 C 438.855469 557.269531 487.925781 582.792969 544.46875 585.769531 C 575.996094 587.429688 603.03125 582.785156 625.433594 575.726562 C 662.214844 564.136719 686.429688 546.015625 697.46875 538.613281 C 744.496094 507.015625 775.144531 460.421875 790.230469 408.765625 C 805.277344 357.234375 804.800781 300.667969 789.695312 249.148438 C 788.316406 244.398438 783.324219 241.671875 778.566406 243.066406 C 773.832031 244.457031 771.097656 249.445312 772.496094 254.195312 C 786.636719 302.460938 787.109375 355.457031 773.015625 403.738281 C 759.089844 451.441406 730.894531 494.546875 687.460938 523.726562 C 677.132812 530.664062 654.488281 547.761719 620.03125 558.621094 C 599.390625 565.128906 574.46875 569.390625 545.414062 567.859375 C 493.414062 565.125 448.371094 541.457031 412.964844 506.527344 C 377.496094 471.550781 351.691406 425.292969 338.175781 377.089844 C 336.820312 372.324219 331.867188 369.539062 327.113281 370.878906 C 322.332031 372.214844 319.558594 377.167969 320.890625 381.933594 Z M 320.890625 381.933594 " fill-opacity="1" fill-rule="evenodd"/><path fill="#326381" d="M 208.964844 257.464844 C 213.609375 279.089844 220.222656 300.53125 230.109375 320.074219 C 240.265625 340.148438 253.867188 358.234375 272.25 372.601562 C 278.375 377.390625 285.152344 382.097656 292.425781 385.457031 C 297.738281 387.917969 303.316406 389.667969 309.101562 390.347656 C 322.105469 391.867188 335.625 388.398438 347.363281 381.605469 C 358.875 374.945312 368.628906 365.109375 374.515625 354.078125 C 380.679688 342.523438 383.007812 322.335938 382.921875 300.976562 C 382.78125 267.515625 377.363281 231.15625 376.441406 225.253906 C 375.679688 220.363281 371.089844 217.015625 366.199219 217.777344 C 361.308594 218.542969 357.957031 223.128906 358.722656 228.019531 C 359.609375 233.710938 364.851562 268.78125 364.984375 301.050781 C 365.058594 318.941406 363.855469 335.957031 358.691406 345.636719 C 354.304688 353.859375 346.960938 361.117188 338.378906 366.085938 C 330.019531 370.921875 320.445312 373.617188 311.1875 372.53125 C 306.25 371.957031 301.566406 370.140625 297.140625 367.78125 C 292.191406 365.140625 287.566406 361.8125 283.292969 358.472656 C 267.042969 345.769531 255.09375 329.726562 246.113281 311.976562 C 236.914062 293.792969 230.824219 273.824219 226.5 253.699219 C 225.460938 248.859375 220.691406 245.777344 215.851562 246.8125 C 211.011719 247.855469 207.925781 252.625 208.964844 257.464844 Z M 208.964844 257.464844 " fill-opacity="1" fill-rule="evenodd"/><path fill="#326381" d="M 780.046875 113.296875 C 789.074219 113.644531 800.859375 120.027344 807.609375 125.585938 C 814.433594 131.199219 820.546875 136.875 825.199219 144.472656 C 834.542969 159.75 834.054688 180.40625 830.894531 197.421875 C 824.402344 232.375 786.515625 256.777344 752.015625 255.933594 C 707.222656 254.847656 683.097656 201.863281 699.042969 163.652344 C 712.847656 130.566406 737.09375 119.523438 748.464844 116.316406 C 759.375 113.234375 768.921875 113.101562 780.046875 113.296875 Z M 780.046875 113.296875 " fill-opacity="1" fill-rule="evenodd"/><path fill="#6bc8ea" d="M 777.289062 143.953125 C 765.730469 132.09375 744.332031 137.929688 734.402344 148.902344 C 729.453125 154.371094 723.480469 160.65625 720.671875 167.558594 C 712.851562 186.738281 716.558594 208.257812 734.605469 219.542969 C 748.910156 228.488281 768.507812 223.316406 779.351562 211.183594 C 787.597656 201.953125 792.394531 186.78125 792.222656 174.546875 C 792.105469 166.351562 784.9375 151.800781 777.289062 143.953125 Z M 777.289062 143.953125 " fill-opacity="1" fill-rule="evenodd"/></svg>