<svg xmlns="http://www.w3.org/2000/svg" xmlns:xlink="http://www.w3.org/1999/xlink" width="1280" zoomAndPan="magnify" viewBox="0 0 960 599.999999" height="800" preserveAspectRatio="xMidYMid meet" version="1.0"><defs><filter x="0%" y="0%" width="100%" height="100%" id="2676567455"><feColorMatrix values="0 0 0 0 1 0 0 0 0 1 0 0 0 0 1 0 0 0 1 0" color-interpolation-filters="sRGB"/></filter><mask id="3efbcab03f"><g filter="url(#2676567455)"><rect x="-96" width="1152" fill="#000000" y="-60" height="719.999999" fill-opacity="0.29"/></g></mask><clipPath id="ed5741ee3d"><path d="M 172.054688 378.328125 L 266 378.328125 L 266 527.753906 L 172.054688 527.753906 Z M 172.054688 378.328125 " clip-rule="nonzero"/></clipPath><clipPath id="88bead02bc"><path d="M 0.558594 107 L 72 107 L 72 258 L 0.558594 258 Z M 0.558594 107 " clip-rule="nonzero"/></clipPath><clipPath id="e09ef9e787"><path d="M 295 80.019531 L 400.609375 80.019531 L 400.609375 229.847656 L 295 229.847656 Z M 295 80.019531 " clip-rule="nonzero"/></clipPath><clipPath id="b8009e646c"><path d="M 63 0.238281 L 200 0.238281 L 200 63 L 63 63 Z M 63 0.238281 " clip-rule="nonzero"/></clipPath><clipPath id="141b17d622"><rect x="0" width="402" y="0" height="529"/></clipPath></defs><g mask="url(#3efbcab03f)"><g transform="matrix(1, 0, 0, 1, 280, 36)"><g clip-path="url(#141b17d622)"><path fill="#5cb6f9" d="M 140.261719 520.644531 C 137.207031 520.644531 134.179688 519.34375 132.066406 516.824219 C 128.28125 512.300781 128.878906 505.566406 133.402344 501.773438 C 184.589844 458.921875 215.296875 401.066406 217.648438 343.035156 C 218.535156 321.195312 213.335938 303.378906 208.945312 294.855469 C 207.144531 301.691406 205.09375 315.84375 206.082031 343.882812 C 207.730469 390.6875 178.085938 441.222656 115.457031 498.378906 C 111.097656 502.355469 104.335938 502.050781 100.367188 497.6875 C 96.390625 493.328125 96.699219 486.578125 101.058594 482.597656 C 158.777344 429.929688 186.15625 384.800781 184.738281 344.632812 C 182.753906 288.496094 191.65625 275.890625 199.625 271.183594 C 204.816406 268.113281 210.894531 268.222656 216.320312 271.460938 C 231.96875 280.816406 240.136719 315.640625 238.992188 343.898438 C 236.394531 407.929688 202.90625 471.445312 147.109375 518.15625 C 145.113281 519.828125 142.679688 520.644531 140.261719 520.644531 " fill-opacity="1" fill-rule="nonzero"/><path fill="#5cb6f9" d="M 81.566406 472.453125 C 78.992188 472.453125 76.414062 471.527344 74.363281 469.652344 C 70.007812 465.671875 69.707031 458.917969 73.6875 454.5625 L 82.058594 445.429688 C 122.152344 401.75 142.28125 379.828125 147.410156 337.78125 C 148.128906 331.925781 153.457031 327.753906 159.304688 328.476562 C 165.164062 329.1875 169.328125 334.511719 168.613281 340.371094 C 162.652344 389.21875 138.242188 415.8125 97.792969 459.878906 L 89.449219 468.980469 C 87.34375 471.28125 84.460938 472.453125 81.566406 472.453125 " fill-opacity="1" fill-rule="nonzero"/><path fill="#5cb6f9" d="M 261.332031 362.585938 C 261.097656 362.585938 260.863281 362.574219 260.628906 362.5625 C 254.742188 362.179688 250.28125 357.101562 250.660156 351.210938 C 250.894531 347.648438 250.992188 344.152344 250.957031 340.820312 C 250.488281 297.492188 239.226562 278.757812 230.183594 263.707031 C 221.214844 248.765625 209.472656 241.152344 199.4375 243.710938 C 188.40625 246.519531 174.957031 263.632812 173.347656 302.601562 C 173.105469 308.496094 168.078125 313.085938 162.238281 312.835938 C 156.34375 312.59375 151.765625 307.617188 152.007812 301.722656 C 153.785156 258.71875 169.539062 229.289062 194.160156 223.011719 C 213.6875 218.039062 234.472656 229.359375 248.414062 252.578125 C 258.316406 269.0625 271.777344 291.464844 272.316406 340.585938 C 272.359375 344.460938 272.242188 348.496094 271.972656 352.59375 C 271.609375 358.246094 266.914062 362.585938 261.332031 362.585938 " fill-opacity="1" fill-rule="nonzero"/><g clip-path="url(#ed5741ee3d)"><path fill="#5cb6f9" d="M 182.914062 527.753906 C 180.089844 527.753906 177.269531 526.640625 175.171875 524.433594 C 171.105469 520.15625 171.28125 513.390625 175.558594 509.332031 C 208.0625 478.441406 233.339844 433.804688 244.925781 386.859375 C 246.332031 381.132812 252.128906 377.640625 257.855469 379.050781 C 263.574219 380.464844 267.074219 386.25 265.664062 391.980469 C 253.128906 442.777344 225.652344 491.191406 190.269531 524.816406 C 188.207031 526.777344 185.554688 527.753906 182.914062 527.753906 " fill-opacity="1" fill-rule="nonzero"/></g><path fill="#5cb6f9" d="M 57.414062 434.667969 C 54.546875 434.667969 51.6875 433.523438 49.585938 431.253906 C 45.574219 426.929688 45.824219 420.175781 50.148438 416.160156 C 106.894531 363.511719 112.925781 322.226562 119.90625 274.425781 C 121.621094 262.675781 123.394531 250.535156 125.957031 237.730469 C 130.890625 213.066406 144.195312 193.820312 163.414062 183.53125 C 181.726562 173.734375 204.15625 173.019531 224.941406 181.585938 C 230.394531 183.828125 232.992188 190.078125 230.746094 195.527344 C 228.503906 200.980469 222.261719 203.578125 216.804688 201.332031 C 201.726562 195.121094 186.34375 195.492188 173.488281 202.367188 C 160.003906 209.585938 150.558594 223.632812 146.898438 241.917969 C 144.453125 254.171875 142.71875 266.035156 141.042969 277.507812 C 133.792969 327.15625 126.941406 374.046875 64.675781 431.820312 C 62.621094 433.726562 60.015625 434.667969 57.414062 434.667969 " fill-opacity="1" fill-rule="nonzero"/><path fill="#5cb6f9" d="M 231.035156 517.910156 C 228.261719 517.910156 225.484375 516.828125 223.390625 514.683594 C 219.273438 510.460938 219.363281 503.699219 223.585938 499.582031 C 260.933594 463.1875 281.492188 413.851562 284.6875 352.941406 C 287.746094 294.578125 273.070312 265.460938 255.042969 236.027344 C 249.769531 227.414062 248.390625 225.46875 242.867188 220.292969 C 238.5625 216.265625 238.339844 209.507812 242.367188 205.199219 C 246.402344 200.890625 253.15625 200.675781 257.464844 204.703125 C 264.914062 211.671875 267.429688 215.34375 273.261719 224.875 C 292.449219 256.203125 309.390625 289.65625 306.015625 354.058594 C 302.535156 420.507812 279.816406 474.613281 238.492188 514.878906 C 236.414062 516.902344 233.726562 517.910156 231.035156 517.910156 " fill-opacity="1" fill-rule="nonzero"/><path fill="#5cb6f9" d="M 34.96875 382.316406 C 31.53125 382.316406 28.164062 380.664062 26.09375 377.601562 C 22.804688 372.703125 24.101562 366.066406 28.996094 362.773438 C 63.105469 339.832031 73.882812 303.167969 83.550781 261.125 C 84.875 255.375 90.597656 251.789062 96.355469 253.113281 C 102.101562 254.4375 105.691406 260.167969 104.371094 265.914062 C 94.0625 310.742188 81.449219 353.238281 40.917969 380.496094 C 39.09375 381.730469 37.019531 382.316406 34.96875 382.316406 " fill-opacity="1" fill-rule="nonzero"/><path fill="#5cb6f9" d="M 319.675781 275.097656 C 314.863281 275.097656 310.492188 271.820312 309.3125 266.933594 C 301.777344 235.878906 291.378906 215.316406 272.222656 193.59375 C 245.515625 163.296875 208.796875 147.652344 176.417969 152.78125 C 152.777344 156.519531 134.503906 170.695312 124.96875 192.695312 C 120.710938 202.519531 117.007812 213.671875 113.324219 227.804688 C 111.835938 233.507812 105.992188 236.929688 100.292969 235.441406 C 94.582031 233.949219 91.167969 228.121094 92.652344 222.410156 C 96.625 207.191406 100.667969 195.054688 105.371094 184.203125 C 117.734375 155.675781 142.414062 136.53125 173.082031 131.679688 C 213.214844 125.335938 256.273438 143.203125 288.246094 179.46875 C 309.632812 203.722656 321.75 227.609375 330.0625 261.898438 C 331.457031 267.628906 327.933594 273.40625 322.203125 274.792969 C 321.359375 275 320.511719 275.097656 319.675781 275.097656 " fill-opacity="1" fill-rule="nonzero"/><path fill="#5cb6f9" d="M 311.960938 458.855469 C 310.703125 458.855469 309.410156 458.628906 308.15625 458.152344 C 302.644531 456.042969 299.882812 449.875 301.992188 444.359375 C 323.527344 387.96875 324.445312 359.433594 318.347656 316.800781 C 317.667969 312.085938 316.992188 307.546875 316.300781 303.171875 C 315.386719 297.351562 319.359375 291.878906 325.1875 290.960938 C 331.011719 290.042969 336.480469 294.019531 337.402344 299.84375 C 338.105469 304.3125 338.796875 308.945312 339.492188 313.769531 C 345.992188 359.257812 345.023438 391.542969 321.945312 451.984375 C 320.316406 456.238281 316.265625 458.855469 311.960938 458.855469 " fill-opacity="1" fill-rule="nonzero"/><path fill="#5cb6f9" d="M 30.304688 315.757812 C 27.6875 315.757812 25.066406 314.804688 23.011719 312.878906 C 18.703125 308.851562 18.476562 302.089844 22.503906 297.78125 C 40.820312 278.195312 44.15625 257.972656 48.371094 232.378906 C 51.578125 212.921875 55.210938 190.867188 65.960938 164.886719 C 78.199219 135.3125 101.492188 111.921875 131.546875 99.019531 C 136.960938 96.695312 143.238281 99.199219 145.570312 104.621094 C 147.894531 110.042969 145.390625 116.320312 139.972656 118.644531 C 115.066406 129.339844 95.796875 148.664062 85.699219 173.054688 C 75.890625 196.761719 72.464844 217.53125 69.449219 235.855469 C 65.023438 262.699219 60.84375 288.054688 38.105469 312.371094 C 36.003906 314.617188 33.15625 315.757812 30.304688 315.757812 " fill-opacity="1" fill-rule="nonzero"/><path fill="#5cb6f9" d="M 324.46875 180.40625 C 321.089844 180.40625 317.769531 178.804688 315.691406 175.820312 C 298.445312 151.011719 275.136719 132.96875 244.445312 120.65625 C 214.882812 108.808594 192.6875 105.375 170.242188 109.1875 C 164.421875 110.171875 158.910156 106.261719 157.925781 100.445312 C 156.9375 94.628906 160.851562 89.113281 166.667969 88.128906 C 192.925781 83.671875 219.363281 87.589844 252.390625 100.828125 C 287.085938 114.738281 313.527344 135.28125 333.234375 163.628906 C 336.597656 168.46875 335.398438 175.128906 330.558594 178.492188 C 328.699219 179.785156 326.574219 180.40625 324.46875 180.40625 " fill-opacity="1" fill-rule="nonzero"/><path fill="#5cb6f9" d="M 364.484375 397.605469 C 363.960938 397.605469 363.441406 397.570312 362.917969 397.496094 C 357.082031 396.636719 353.046875 391.214844 353.902344 385.378906 C 365.097656 308.992188 356.359375 280.242188 343.136719 236.714844 L 341.417969 231.050781 C 338.605469 221.734375 335.363281 212.890625 331.777344 204.761719 C 329.398438 199.367188 331.847656 193.0625 337.242188 190.675781 C 342.628906 188.300781 348.941406 190.742188 351.324219 196.140625 C 355.257812 205.066406 358.804688 214.730469 361.863281 224.871094 L 363.574219 230.503906 C 377.128906 275.121094 386.925781 307.359375 375.035156 388.480469 C 374.253906 393.785156 369.695312 397.605469 364.484375 397.605469 " fill-opacity="1" fill-rule="nonzero"/><g clip-path="url(#88bead02bc)"><path fill="#5cb6f9" d="M 11.316406 257.402344 C 10.371094 257.402344 9.417969 257.277344 8.464844 257.015625 C 2.777344 255.441406 -0.554688 249.558594 1.019531 243.875 C 2.882812 237.121094 4.667969 228.839844 6.558594 220.066406 C 13.746094 186.703125 23.585938 141.003906 52.800781 111.117188 C 56.925781 106.898438 63.683594 106.820312 67.902344 110.941406 C 72.121094 115.066406 72.195312 121.832031 68.070312 126.050781 C 43.167969 151.523438 34.449219 192.023438 27.441406 224.566406 C 25.484375 233.644531 23.632812 242.21875 21.601562 249.570312 C 20.296875 254.296875 15.996094 257.402344 11.316406 257.402344 " fill-opacity="1" fill-rule="nonzero"/></g><path fill="#5cb6f9" d="M 86.046875 103.75 C 83 103.75 79.976562 102.453125 77.863281 99.945312 C 74.066406 95.425781 74.652344 88.691406 79.164062 84.894531 C 113.65625 55.90625 159.726562 40.21875 202.40625 42.941406 C 227.820312 44.554688 255.480469 51.917969 280.292969 63.671875 C 285.625 66.199219 287.898438 72.566406 285.371094 77.898438 C 282.847656 83.222656 276.472656 85.496094 271.144531 82.976562 C 248.726562 72.351562 223.828125 65.707031 201.050781 64.257812 C 163.714844 61.875 123.292969 75.710938 92.910156 101.246094 C 90.914062 102.929688 88.472656 103.75 86.046875 103.75 " fill-opacity="1" fill-rule="nonzero"/><g clip-path="url(#e09ef9e787)"><path fill="#5cb6f9" d="M 389.910156 229.726562 C 385.074219 229.726562 380.691406 226.421875 379.527344 221.511719 C 366.109375 164.9375 340.910156 126.308594 300.230469 99.9375 C 295.28125 96.726562 293.867188 90.117188 297.078125 85.164062 C 300.289062 80.21875 306.902344 78.804688 311.851562 82.015625 C 357.433594 111.558594 385.539062 154.320312 400.3125 216.582031 C 401.671875 222.320312 398.125 228.078125 392.386719 229.4375 C 391.554688 229.632812 390.726562 229.726562 389.910156 229.726562 " fill-opacity="1" fill-rule="nonzero"/></g><g clip-path="url(#b8009e646c)"><path fill="#5cb6f9" d="M 73.855469 62.722656 C 70.59375 62.722656 67.375 61.238281 65.277344 58.421875 C 61.753906 53.6875 62.742188 46.996094 67.46875 43.476562 C 104.332031 16.050781 146.207031 1.148438 188.582031 0.382812 C 194.554688 0.214844 199.347656 4.972656 199.453125 10.867188 C 199.558594 16.765625 194.867188 21.632812 188.964844 21.738281 C 151.085938 22.425781 113.480469 35.863281 80.21875 60.613281 C 78.304688 62.039062 76.070312 62.722656 73.855469 62.722656 " fill-opacity="1" fill-rule="nonzero"/></g><path fill="#5cb6f9" d="M 351.796875 85.363281 C 348.957031 85.363281 346.121094 84.238281 344.019531 82.007812 C 313.558594 49.640625 267.535156 27.339844 220.890625 22.328125 C 215.027344 21.703125 210.785156 16.433594 211.410156 10.570312 C 212.039062 4.707031 217.304688 0.464844 223.167969 1.089844 C 274.730469 6.625 325.726562 31.398438 359.574219 67.367188 C 363.613281 71.660156 363.410156 78.421875 359.117188 82.464844 C 357.054688 84.398438 354.425781 85.363281 351.796875 85.363281 " fill-opacity="1" fill-rule="nonzero"/></g></g></g></svg>