<svg xmlns="http://www.w3.org/2000/svg" xmlns:xlink="http://www.w3.org/1999/xlink" width="1280" zoomAndPan="magnify" viewBox="0 0 960 599.999999" height="800" preserveAspectRatio="xMidYMid meet" version="1.0"><defs><clipPath id="0385fcf659"><path d="M 500 3 L 956.238281 3 L 956.238281 213 L 500 213 Z M 500 3 " clip-rule="nonzero"/></clipPath></defs><path fill="#75afff" d="M 471.1875 101.351562 C 471.1875 102.691406 471.21875 104.03125 471.285156 105.371094 C 471.351562 106.710938 471.449219 108.046875 471.582031 109.382812 C 471.710938 110.71875 471.875 112.050781 472.074219 113.375 C 472.269531 114.703125 472.5 116.023438 472.761719 117.339844 C 473.023438 118.65625 473.316406 119.964844 473.644531 121.265625 C 473.96875 122.566406 474.328125 123.859375 474.71875 125.140625 C 475.105469 126.425781 475.527344 127.699219 475.980469 128.960938 C 476.429688 130.222656 476.914062 131.476562 477.429688 132.714844 C 477.941406 133.953125 478.484375 135.179688 479.058594 136.390625 C 479.632812 137.605469 480.234375 138.800781 480.867188 139.984375 C 481.5 141.167969 482.164062 142.335938 482.851562 143.484375 C 483.542969 144.636719 484.257812 145.769531 485.003906 146.882812 C 485.75 148 486.523438 149.09375 487.324219 150.171875 C 488.121094 151.25 488.945312 152.308594 489.796875 153.34375 C 490.648438 154.378906 491.527344 155.394531 492.425781 156.390625 C 493.328125 157.382812 494.253906 158.355469 495.203125 159.304688 C 496.152344 160.25 497.121094 161.175781 498.117188 162.078125 C 499.113281 162.976562 500.128906 163.855469 501.164062 164.703125 C 502.203125 165.554688 503.257812 166.378906 504.335938 167.179688 C 505.414062 167.980469 506.511719 168.75 507.628906 169.496094 C 508.742188 170.242188 509.878906 170.957031 511.027344 171.648438 C 512.179688 172.335938 513.347656 173 514.53125 173.628906 C 515.714844 174.261719 516.910156 174.867188 518.125 175.4375 C 519.335938 176.011719 520.5625 176.554688 521.804688 177.070312 C 523.042969 177.582031 524.296875 178.066406 525.558594 178.515625 C 526.824219 178.96875 528.097656 179.390625 529.378906 179.777344 C 530.664062 180.167969 531.957031 180.527344 533.257812 180.851562 C 534.5625 181.179688 535.871094 181.472656 537.1875 181.734375 C 538.503906 181.996094 539.824219 182.222656 541.152344 182.421875 C 542.480469 182.617188 543.808594 182.78125 545.144531 182.914062 C 546.480469 183.046875 547.820312 183.144531 549.160156 183.210938 C 550.5 183.277344 551.839844 183.308594 553.183594 183.308594 C 554.523438 183.308594 555.867188 183.277344 557.207031 183.210938 C 558.546875 183.144531 559.882812 183.046875 561.21875 182.914062 C 562.554688 182.78125 563.886719 182.617188 565.214844 182.421875 C 566.542969 182.222656 567.863281 181.996094 569.179688 181.734375 C 570.496094 181.472656 571.804688 181.179688 573.105469 180.851562 C 574.40625 180.527344 575.699219 180.167969 576.984375 179.777344 C 578.269531 179.390625 579.542969 178.96875 580.804688 178.515625 C 582.070312 178.066406 583.320312 177.582031 584.5625 177.070312 C 585.800781 176.554688 587.027344 176.011719 588.242188 175.4375 C 589.453125 174.867188 590.652344 174.261719 591.835938 173.628906 C 593.019531 173 594.1875 172.335938 595.335938 171.648438 C 596.488281 170.957031 597.621094 170.242188 598.738281 169.496094 C 599.851562 168.75 600.949219 167.980469 602.027344 167.179688 C 603.105469 166.378906 604.164062 165.554688 605.199219 164.703125 C 606.238281 163.855469 607.253906 162.976562 608.246094 162.078125 C 609.242188 161.175781 610.214844 160.25 611.164062 159.304688 C 612.113281 158.355469 613.035156 157.382812 613.9375 156.390625 C 614.839844 155.394531 615.714844 154.378906 616.566406 153.34375 C 617.417969 152.308594 618.242188 151.25 619.042969 150.171875 C 619.84375 149.09375 620.613281 148 621.359375 146.882812 C 622.105469 145.769531 622.824219 144.636719 623.511719 143.484375 C 624.203125 142.335938 624.863281 141.167969 625.496094 139.984375 C 626.128906 138.800781 626.730469 137.605469 627.304688 136.390625 C 627.878906 135.179688 628.421875 133.953125 628.9375 132.714844 C 629.449219 131.476562 629.933594 130.222656 630.386719 128.960938 C 630.835938 127.699219 631.257812 126.425781 631.648438 125.140625 C 632.039062 123.859375 632.394531 122.566406 632.722656 121.265625 C 633.046875 119.964844 633.339844 118.65625 633.601562 117.339844 C 633.863281 116.023438 634.09375 114.703125 634.292969 113.375 C 634.488281 112.050781 634.652344 110.71875 634.785156 109.382812 C 634.914062 108.046875 635.015625 106.710938 635.078125 105.371094 C 635.144531 104.03125 635.179688 102.691406 635.179688 101.351562 C 635.179688 100.007812 635.144531 98.667969 635.078125 97.328125 C 635.015625 95.988281 634.914062 94.652344 634.785156 93.316406 C 634.652344 91.980469 634.488281 90.652344 634.292969 89.324219 C 634.09375 87.996094 633.863281 86.675781 633.601562 85.359375 C 633.339844 84.046875 633.046875 82.738281 632.722656 81.4375 C 632.394531 80.132812 632.039062 78.84375 631.648438 77.558594 C 631.257812 76.273438 630.835938 75 630.386719 73.738281 C 629.933594 72.476562 629.449219 71.226562 628.9375 69.984375 C 628.421875 68.746094 627.878906 67.519531 627.304688 66.308594 C 626.730469 65.097656 626.128906 63.898438 625.496094 62.714844 C 624.863281 61.53125 624.203125 60.367188 623.511719 59.214844 C 622.824219 58.066406 622.105469 56.929688 621.359375 55.816406 C 620.613281 54.699219 619.84375 53.605469 619.042969 52.527344 C 618.242188 51.449219 617.417969 50.394531 616.566406 49.355469 C 615.714844 48.320312 614.839844 47.304688 613.9375 46.308594 C 613.035156 45.316406 612.113281 44.34375 611.164062 43.398438 C 610.214844 42.449219 609.242188 41.523438 608.246094 40.621094 C 607.253906 39.722656 606.238281 38.847656 605.199219 37.996094 C 604.164062 37.144531 603.105469 36.320312 602.027344 35.519531 C 600.949219 34.722656 599.851562 33.949219 598.738281 33.203125 C 597.621094 32.457031 596.488281 31.742188 595.335938 31.050781 C 594.1875 30.363281 593.019531 29.703125 591.835938 29.070312 C 590.652344 28.4375 589.453125 27.835938 588.242188 27.261719 C 587.027344 26.6875 585.800781 26.144531 584.5625 25.628906 C 583.320312 25.117188 582.070312 24.632812 580.804688 24.183594 C 579.542969 23.730469 578.269531 23.308594 576.984375 22.921875 C 575.699219 22.53125 574.40625 22.171875 573.105469 21.847656 C 571.804688 21.523438 570.496094 21.226562 569.179688 20.964844 C 567.863281 20.703125 566.542969 20.476562 565.214844 20.277344 C 563.886719 20.082031 562.554688 19.917969 561.21875 19.785156 C 559.882812 19.65625 558.546875 19.554688 557.207031 19.492188 C 555.867188 19.425781 554.523438 19.390625 553.183594 19.390625 C 551.839844 19.390625 550.5 19.425781 549.160156 19.492188 C 547.820312 19.554688 546.480469 19.65625 545.144531 19.785156 C 543.808594 19.917969 542.480469 20.082031 541.152344 20.277344 C 539.824219 20.476562 538.503906 20.703125 537.1875 20.964844 C 535.871094 21.226562 534.5625 21.523438 533.257812 21.847656 C 531.957031 22.171875 530.664062 22.53125 529.378906 22.921875 C 528.097656 23.308594 526.824219 23.730469 525.558594 24.183594 C 524.296875 24.632812 523.042969 25.117188 521.804688 25.628906 C 520.5625 26.144531 519.335938 26.6875 518.125 27.261719 C 516.910156 27.835938 515.714844 28.4375 514.53125 29.070312 C 513.347656 29.703125 512.179688 30.363281 511.027344 31.050781 C 509.878906 31.742188 508.742188 32.457031 507.628906 33.203125 C 506.511719 33.949219 505.414062 34.722656 504.335938 35.519531 C 503.257812 36.320312 502.203125 37.144531 501.164062 37.996094 C 500.128906 38.847656 499.113281 39.722656 498.117188 40.621094 C 497.121094 41.523438 496.152344 42.449219 495.203125 43.398438 C 494.253906 44.34375 493.328125 45.316406 492.425781 46.308594 C 491.527344 47.304688 490.648438 48.320312 489.796875 49.355469 C 488.945312 50.394531 488.121094 51.449219 487.324219 52.527344 C 486.523438 53.605469 485.75 54.699219 485.003906 55.816406 C 484.257812 56.929688 483.542969 58.066406 482.851562 59.214844 C 482.164062 60.367188 481.5 61.53125 480.867188 62.714844 C 480.234375 63.898438 479.632812 65.097656 479.058594 66.308594 C 478.484375 67.519531 477.941406 68.746094 477.429688 69.984375 C 476.914062 71.226562 476.429688 72.476562 475.980469 73.738281 C 475.527344 75 475.105469 76.273438 474.71875 77.558594 C 474.328125 78.84375 473.96875 80.132812 473.644531 81.4375 C 473.316406 82.738281 473.023438 84.046875 472.761719 85.359375 C 472.5 86.675781 472.269531 87.996094 472.074219 89.324219 C 471.875 90.652344 471.710938 91.980469 471.582031 93.316406 C 471.449219 94.652344 471.351562 95.988281 471.285156 97.328125 C 471.21875 98.667969 471.1875 100.007812 471.1875 101.351562 Z M 471.1875 101.351562 " fill-opacity="1" fill-rule="nonzero"/><g clip-path="url(#0385fcf659)"><path fill="#112d55" d="M 600.039062 1.828125 C 648.90625 1.828125 689.484375 37.28125 697.824219 83.789062 L 939.734375 83.789062 C 949.433594 83.789062 957.304688 91.65625 957.304688 101.351562 L 957.304688 195.015625 C 957.304688 204.710938 949.433594 212.578125 939.734375 212.578125 C 930.035156 212.578125 922.164062 204.710938 922.164062 195.015625 L 922.164062 118.914062 L 863.597656 118.914062 L 863.597656 171.601562 C 863.597656 181.292969 855.726562 189.164062 846.027344 189.164062 C 836.328125 189.164062 828.457031 181.292969 828.457031 171.601562 L 828.457031 118.914062 L 697.824219 118.914062 C 689.484375 165.417969 648.90625 200.871094 600.039062 200.871094 C 545.148438 200.871094 500.46875 156.214844 500.46875 101.351562 C 500.46875 46.484375 545.148438 1.828125 600.039062 1.828125 Z M 600.039062 165.746094 C 635.578125 165.746094 664.464844 136.875 664.464844 101.351562 C 664.464844 65.828125 635.578125 36.953125 600.039062 36.953125 C 564.496094 36.953125 535.613281 65.828125 535.613281 101.351562 C 535.613281 136.875 564.496094 165.746094 600.039062 165.746094 Z M 600.039062 165.746094 " fill-opacity="1" fill-rule="nonzero"/></g></svg>