<svg xmlns="http://www.w3.org/2000/svg" xmlns:xlink="http://www.w3.org/1999/xlink" width="1280" zoomAndPan="magnify" viewBox="0 0 960 599.999999" height="800" preserveAspectRatio="xMidYMid meet" version="1.0"><defs><filter x="0%" y="0%" width="100%" height="100%" id="76d15d5bb1"><feColorMatrix values="0 0 0 0 1 0 0 0 0 1 0 0 0 0 1 0 0 0 1 0" color-interpolation-filters="sRGB"/></filter><mask id="441719d2e1"><g filter="url(#76d15d5bb1)"><rect x="-96" width="1152" fill="#000000" y="-60" height="719.999999" fill-opacity="0.58"/></g></mask><clipPath id="b577725132"><path d="M 172.074219 378.257812 L 266 378.257812 L 266 527.589844 L 172.074219 527.589844 Z M 172.074219 378.257812 " clip-rule="nonzero"/></clipPath><clipPath id="4687621c3e"><path d="M 0.558594 107 L 72 107 L 72 258 L 0.558594 258 Z M 0.558594 107 " clip-rule="nonzero"/></clipPath><clipPath id="8d34fb49a7"><path d="M 295 80.128906 L 400.484375 80.128906 L 400.484375 229.867188 L 295 229.867188 Z M 295 80.128906 " clip-rule="nonzero"/></clipPath><clipPath id="6c05b745ae"><path d="M 63 0.480469 L 200 0.480469 L 200 63 L 63 63 Z M 63 0.480469 " clip-rule="nonzero"/></clipPath><clipPath id="4359f855b4"><rect x="0" width="402" y="0" height="528"/></clipPath></defs><g mask="url(#441719d2e1)"><g transform="matrix(1, 0, 0, 1, 280, 36)"><g clip-path="url(#4359f855b4)"><path fill="#75afff" d="M 140.296875 520.488281 C 137.246094 520.488281 134.222656 519.1875 132.109375 516.667969 C 128.324219 512.144531 128.921875 505.417969 133.441406 501.628906 C 184.597656 458.804688 215.289062 400.980469 217.640625 342.984375 C 218.523438 321.15625 213.328125 303.351562 208.9375 294.835938 C 207.140625 301.664062 205.09375 315.808594 206.078125 343.832031 C 207.726562 390.609375 178.101562 441.113281 115.511719 498.234375 C 111.152344 502.207031 104.398438 501.902344 100.429688 497.542969 C 96.457031 493.1875 96.761719 486.441406 101.121094 482.464844 C 158.804688 429.824219 186.164062 384.722656 184.746094 344.582031 C 182.765625 288.480469 191.660156 275.882812 199.628906 271.175781 C 204.8125 268.109375 210.886719 268.21875 216.3125 271.457031 C 231.949219 280.804688 240.113281 315.609375 238.96875 343.847656 C 236.371094 407.839844 202.90625 471.316406 147.144531 518 C 145.144531 519.671875 142.714844 520.488281 140.296875 520.488281 " fill-opacity="1" fill-rule="nonzero"/><path fill="#75afff" d="M 81.636719 472.324219 C 79.066406 472.324219 76.488281 471.398438 74.441406 469.527344 C 70.085938 465.546875 69.785156 458.796875 73.765625 454.445312 L 82.132812 445.316406 C 122.203125 401.664062 142.316406 379.753906 147.445312 337.734375 C 148.160156 331.882812 153.488281 327.714844 159.332031 328.433594 C 165.1875 329.144531 169.347656 334.46875 168.632812 340.324219 C 162.675781 389.140625 138.28125 415.71875 97.855469 459.757812 L 89.515625 468.851562 C 87.414062 471.15625 84.53125 472.324219 81.636719 472.324219 " fill-opacity="1" fill-rule="nonzero"/><path fill="#75afff" d="M 261.296875 362.523438 C 261.058594 362.523438 260.828125 362.511719 260.589844 362.503906 C 254.710938 362.117188 250.25 357.042969 250.632812 351.15625 C 250.863281 347.59375 250.964844 344.101562 250.925781 340.769531 C 250.457031 297.472656 239.203125 278.75 230.164062 263.703125 C 221.199219 248.777344 209.464844 241.167969 199.4375 243.722656 C 188.414062 246.53125 174.972656 263.628906 173.363281 302.578125 C 173.121094 308.46875 168.101562 313.054688 162.261719 312.804688 C 156.371094 312.5625 151.796875 307.589844 152.039062 301.699219 C 153.8125 258.71875 169.558594 229.308594 194.164062 223.035156 C 213.679688 218.066406 234.453125 229.378906 248.386719 252.585938 C 258.28125 269.058594 271.734375 291.449219 272.273438 340.539062 C 272.316406 344.414062 272.199219 348.445312 271.929688 352.539062 C 271.566406 358.1875 266.871094 362.523438 261.296875 362.523438 " fill-opacity="1" fill-rule="nonzero"/><g clip-path="url(#b577725132)"><path fill="#75afff" d="M 182.921875 527.589844 C 180.105469 527.589844 177.285156 526.480469 175.1875 524.269531 C 171.125 519.996094 171.296875 513.238281 175.570312 509.179688 C 208.058594 478.3125 233.320312 433.699219 244.898438 386.785156 C 246.304688 381.0625 252.097656 377.566406 257.820312 378.980469 C 263.535156 380.390625 267.035156 386.171875 265.621094 391.902344 C 253.097656 442.667969 225.636719 491.050781 190.273438 524.65625 C 188.214844 526.617188 185.5625 527.589844 182.921875 527.589844 " fill-opacity="1" fill-rule="nonzero"/></g><path fill="#75afff" d="M 57.503906 434.5625 C 54.636719 434.5625 51.78125 433.417969 49.679688 431.148438 C 45.667969 426.828125 45.921875 420.078125 50.242188 416.066406 C 106.953125 363.449219 112.980469 322.191406 119.957031 274.417969 C 121.671875 262.675781 123.441406 250.539062 126 237.746094 C 130.933594 213.097656 144.230469 193.863281 163.4375 183.582031 C 181.738281 173.789062 204.152344 173.074219 224.925781 181.636719 C 230.375 183.875 232.972656 190.121094 230.726562 195.570312 C 228.488281 201.019531 222.25 203.617188 216.796875 201.371094 C 201.726562 195.164062 186.355469 195.53125 173.507812 202.402344 C 160.027344 209.617188 150.589844 223.65625 146.933594 241.929688 C 144.488281 254.175781 142.753906 266.035156 141.078125 277.5 C 133.832031 327.117188 126.988281 373.980469 64.757812 431.71875 C 62.703125 433.621094 60.101562 434.5625 57.503906 434.5625 " fill-opacity="1" fill-rule="nonzero"/><path fill="#75afff" d="M 231.019531 517.753906 C 228.246094 517.753906 225.46875 516.671875 223.378906 514.527344 C 219.261719 510.308594 219.351562 503.550781 223.574219 499.4375 C 260.894531 463.066406 281.441406 413.757812 284.636719 352.886719 C 287.691406 294.558594 273.027344 265.460938 255.011719 236.042969 C 249.742188 227.433594 248.359375 225.488281 242.84375 220.320312 C 238.539062 216.292969 238.316406 209.539062 242.34375 205.234375 C 246.375 200.929688 253.125 200.710938 257.429688 204.738281 C 264.875 211.703125 267.386719 215.371094 273.214844 224.898438 C 292.390625 256.207031 309.324219 289.640625 305.949219 354.003906 C 302.472656 420.410156 279.765625 474.484375 238.46875 514.722656 C 236.394531 516.746094 233.707031 517.753906 231.019531 517.753906 " fill-opacity="1" fill-rule="nonzero"/><path fill="#75afff" d="M 35.070312 382.242188 C 31.636719 382.242188 28.269531 380.59375 26.203125 377.53125 C 22.914062 372.636719 24.210938 366 29.101562 362.714844 C 63.1875 339.785156 73.960938 303.140625 83.625 261.128906 C 84.945312 255.378906 90.664062 251.796875 96.417969 253.117188 C 102.164062 254.441406 105.75 260.167969 104.429688 265.914062 C 94.125 310.714844 81.523438 353.179688 41.015625 380.425781 C 39.191406 381.65625 37.121094 382.242188 35.070312 382.242188 " fill-opacity="1" fill-rule="nonzero"/><path fill="#75afff" d="M 319.605469 275.089844 C 314.792969 275.089844 310.425781 271.8125 309.242188 266.929688 C 301.714844 235.898438 291.324219 215.347656 272.179688 193.636719 C 245.488281 163.355469 208.792969 147.722656 176.429688 152.847656 C 152.808594 156.585938 134.542969 170.75 125.015625 192.738281 C 120.757812 202.558594 117.058594 213.703125 113.375 227.824219 C 111.890625 233.527344 106.050781 236.945312 100.355469 235.460938 C 94.648438 233.96875 91.234375 228.140625 92.71875 222.433594 C 96.6875 207.226562 100.730469 195.09375 105.429688 184.25 C 117.785156 155.742188 142.449219 136.609375 173.101562 131.761719 C 213.207031 125.421875 256.238281 143.273438 288.191406 179.519531 C 309.566406 203.757812 321.675781 227.628906 329.984375 261.898438 C 331.375 267.625 327.855469 273.398438 322.128906 274.785156 C 321.285156 274.992188 320.4375 275.089844 319.605469 275.089844 " fill-opacity="1" fill-rule="nonzero"/><path fill="#75afff" d="M 311.894531 458.734375 C 310.636719 458.734375 309.34375 458.507812 308.089844 458.035156 C 302.582031 455.925781 299.820312 449.761719 301.929688 444.25 C 323.449219 387.890625 324.367188 359.371094 318.277344 316.769531 C 317.597656 312.058594 316.921875 307.519531 316.230469 303.148438 C 315.316406 297.328125 319.289062 291.859375 325.109375 290.941406 C 330.933594 290.027344 336.398438 294 337.320312 299.820312 C 338.019531 304.285156 338.710938 308.917969 339.40625 313.738281 C 345.902344 359.199219 344.933594 391.464844 321.871094 451.867188 C 320.242188 456.121094 316.195312 458.734375 311.894531 458.734375 " fill-opacity="1" fill-rule="nonzero"/><path fill="#75afff" d="M 30.40625 315.726562 C 27.792969 315.726562 25.175781 314.769531 23.121094 312.847656 C 18.816406 308.820312 18.589844 302.066406 22.613281 297.761719 C 40.921875 278.183594 44.25 257.976562 48.464844 232.398438 C 51.671875 212.953125 55.300781 190.910156 66.046875 164.949219 C 78.277344 135.390625 101.550781 112.015625 131.585938 99.121094 C 137 96.796875 143.273438 99.300781 145.605469 104.71875 C 147.929688 110.132812 145.425781 116.410156 140.007812 118.734375 C 115.121094 129.421875 95.859375 148.734375 85.769531 173.109375 C 75.96875 196.800781 72.542969 217.558594 69.527344 235.871094 C 65.105469 262.699219 60.929688 288.039062 38.207031 312.34375 C 36.105469 314.585938 33.257812 315.726562 30.40625 315.726562 " fill-opacity="1" fill-rule="nonzero"/><path fill="#75afff" d="M 324.394531 180.457031 C 321.015625 180.457031 317.695312 178.855469 315.621094 175.871094 C 298.382812 151.078125 275.09375 133.046875 244.417969 120.742188 C 214.871094 108.902344 192.691406 105.472656 170.261719 109.28125 C 164.441406 110.265625 158.9375 106.355469 157.949219 100.542969 C 156.964844 94.730469 160.875 89.21875 166.6875 88.234375 C 192.929688 83.78125 219.351562 87.695312 252.359375 100.929688 C 287.03125 114.828125 313.460938 135.359375 333.152344 163.6875 C 336.515625 168.527344 335.316406 175.179688 330.480469 178.542969 C 328.621094 179.835938 326.496094 180.457031 324.394531 180.457031 " fill-opacity="1" fill-rule="nonzero"/><path fill="#75afff" d="M 364.382812 397.523438 C 363.863281 397.523438 363.339844 397.488281 362.820312 397.414062 C 356.984375 396.554688 352.953125 391.136719 353.808594 385.304688 C 364.996094 308.964844 356.265625 280.230469 343.046875 236.730469 L 341.332031 231.070312 C 338.523438 221.757812 335.28125 212.921875 331.699219 204.796875 C 329.320312 199.40625 331.765625 193.101562 337.15625 190.722656 C 342.542969 188.34375 348.851562 190.785156 351.230469 196.179688 C 355.164062 205.101562 358.710938 214.761719 361.765625 224.894531 L 363.472656 230.523438 C 377.019531 275.113281 386.8125 307.332031 374.929688 388.402344 C 374.148438 393.703125 369.589844 397.523438 364.382812 397.523438 " fill-opacity="1" fill-rule="nonzero"/><g clip-path="url(#4687621c3e)"><path fill="#75afff" d="M 11.433594 257.40625 C 10.488281 257.40625 9.535156 257.28125 8.582031 257.015625 C 2.902344 255.445312 -0.429688 249.566406 1.140625 243.886719 C 3.007812 237.136719 4.789062 228.863281 6.679688 220.09375 C 13.859375 186.75 23.695312 141.078125 52.890625 111.210938 C 57.011719 106.992188 63.769531 106.914062 67.984375 111.035156 C 72.199219 115.15625 72.273438 121.917969 68.152344 126.132812 C 43.265625 151.589844 34.550781 192.066406 27.546875 224.589844 C 25.589844 233.664062 23.742188 242.230469 21.710938 249.578125 C 20.40625 254.304688 16.113281 257.40625 11.433594 257.40625 " fill-opacity="1" fill-rule="nonzero"/></g><path fill="#75afff" d="M 86.117188 103.847656 C 83.070312 103.847656 80.050781 102.550781 77.9375 100.042969 C 74.144531 95.527344 74.730469 88.796875 79.238281 85.003906 C 113.707031 56.03125 159.753906 40.355469 202.40625 43.074219 C 227.804688 44.6875 255.449219 52.046875 280.246094 63.792969 C 285.574219 66.320312 287.84375 72.683594 285.320312 78.011719 C 282.796875 83.332031 276.425781 85.605469 271.101562 83.085938 C 248.699219 72.46875 223.816406 65.828125 201.050781 64.378906 C 163.738281 61.996094 123.339844 75.824219 92.976562 101.34375 C 90.980469 103.027344 88.539062 103.847656 86.117188 103.847656 " fill-opacity="1" fill-rule="nonzero"/><g clip-path="url(#8d34fb49a7)"><path fill="#75afff" d="M 389.792969 229.746094 C 384.960938 229.746094 380.582031 226.445312 379.417969 221.539062 C 366.007812 164.996094 340.824219 126.390625 300.171875 100.039062 C 295.222656 96.828125 293.808594 90.222656 297.019531 85.273438 C 300.226562 80.332031 306.835938 78.917969 311.785156 82.128906 C 357.339844 111.652344 385.425781 154.386719 400.191406 216.609375 C 401.550781 222.34375 398.003906 228.097656 392.269531 229.457031 C 391.4375 229.652344 390.609375 229.746094 389.792969 229.746094 " fill-opacity="1" fill-rule="nonzero"/></g><g clip-path="url(#6c05b745ae)"><path fill="#75afff" d="M 73.933594 62.847656 C 70.671875 62.847656 67.457031 61.359375 65.359375 58.546875 C 61.839844 53.8125 62.824219 47.128906 67.550781 43.613281 C 104.390625 16.199219 146.242188 1.308594 188.589844 0.542969 C 194.558594 0.375 199.347656 5.128906 199.453125 11.019531 C 199.558594 16.917969 194.871094 21.78125 188.972656 21.886719 C 151.117188 22.570312 113.535156 36.003906 80.292969 60.738281 C 78.382812 62.160156 76.148438 62.847656 73.933594 62.847656 " fill-opacity="1" fill-rule="nonzero"/></g><path fill="#75afff" d="M 351.707031 85.472656 C 348.867188 85.472656 346.03125 84.34375 343.933594 82.117188 C 313.492188 49.773438 267.492188 27.480469 220.878906 22.476562 C 215.019531 21.847656 210.777344 16.585938 211.40625 10.726562 C 212.03125 4.867188 217.296875 0.625 223.15625 1.25 C 274.6875 6.785156 325.648438 31.539062 359.476562 67.488281 C 363.515625 71.777344 363.308594 78.535156 359.019531 82.574219 C 356.960938 84.507812 354.332031 85.472656 351.707031 85.472656 " fill-opacity="1" fill-rule="nonzero"/></g></g></g></svg>