<svg xmlns="http://www.w3.org/2000/svg" xmlns:xlink="http://www.w3.org/1999/xlink" width="1280" zoomAndPan="magnify" viewBox="0 0 960 599.999999" height="800" preserveAspectRatio="xMidYMid meet" version="1.0"><defs><clipPath id="5831a2a0ee"><path d="M 294 110.582031 L 666 110.582031 L 666 489.332031 L 294 489.332031 Z M 294 110.582031 " clip-rule="nonzero"/></clipPath></defs><g clip-path="url(#5831a2a0ee)"><path fill="#000000" d="M 660.042969 286.714844 L 501.320312 119.644531 C 499.945312 118.203125 498.441406 116.910156 496.804688 115.773438 C 495.167969 114.636719 493.433594 113.675781 491.601562 112.890625 C 489.769531 112.101562 487.878906 111.507812 485.925781 111.105469 C 483.972656 110.703125 482 110.5 480.007812 110.496094 C 478.015625 110.488281 476.039062 110.683594 474.085938 111.082031 C 472.128906 111.480469 470.234375 112.070312 468.402344 112.859375 C 466.570312 113.644531 464.835938 114.609375 463.199219 115.753906 C 461.566406 116.894531 460.066406 118.191406 458.695312 119.644531 C 405.800781 175.351562 352.894531 231.054688 299.980469 286.761719 C 299.320312 287.457031 298.714844 288.195312 298.164062 288.976562 C 297.613281 289.757812 297.121094 290.574219 296.6875 291.429688 C 296.253906 292.28125 295.886719 293.164062 295.582031 294.070312 C 295.28125 294.976562 295.042969 295.902344 294.875 296.84375 C 294.707031 297.785156 294.609375 298.734375 294.578125 299.691406 C 294.546875 300.648438 294.585938 301.601562 294.695312 302.550781 C 294.804688 303.5 294.984375 304.4375 295.230469 305.363281 C 295.476562 306.289062 295.789062 307.191406 296.164062 308.070312 C 296.542969 308.949219 296.984375 309.796875 297.484375 310.609375 C 297.984375 311.425781 298.542969 312.199219 299.160156 312.933594 C 299.773438 313.667969 300.4375 314.351562 301.152344 314.988281 C 301.867188 315.625 302.625 316.207031 303.421875 316.730469 C 304.222656 317.257812 305.054688 317.722656 305.925781 318.128906 C 306.792969 318.53125 307.683594 318.871094 308.601562 319.148438 C 309.519531 319.421875 310.449219 319.628906 311.398438 319.765625 C 312.34375 319.90625 313.296875 319.976562 314.253906 319.972656 L 322.472656 319.972656 L 322.472656 459.539062 C 322.476562 460.511719 322.523438 461.484375 322.621094 462.449219 C 322.71875 463.417969 322.859375 464.378906 323.050781 465.335938 C 323.242188 466.289062 323.480469 467.230469 323.761719 468.160156 C 324.046875 469.09375 324.375 470.007812 324.75 470.90625 C 325.121094 471.804688 325.539062 472.683594 325.996094 473.539062 C 326.457031 474.398438 326.957031 475.230469 327.496094 476.039062 C 328.039062 476.851562 328.617188 477.628906 329.234375 478.382812 C 329.855469 479.132812 330.507812 479.855469 331.195312 480.542969 C 331.882812 481.230469 332.605469 481.882812 333.355469 482.5 C 334.109375 483.117188 334.890625 483.695312 335.699219 484.238281 C 336.507812 484.777344 337.34375 485.277344 338.203125 485.738281 C 339.058594 486.195312 339.9375 486.613281 340.835938 486.984375 C 341.738281 487.359375 342.652344 487.6875 343.582031 487.96875 C 344.515625 488.253906 345.457031 488.492188 346.414062 488.679688 C 347.367188 488.871094 348.328125 489.015625 349.296875 489.113281 C 350.265625 489.207031 351.238281 489.257812 352.210938 489.257812 L 607.816406 489.257812 C 608.789062 489.257812 609.757812 489.207031 610.726562 489.113281 C 611.695312 489.015625 612.660156 488.871094 613.613281 488.679688 C 614.566406 488.488281 615.511719 488.25 616.441406 487.96875 C 617.375 487.683594 618.289062 487.355469 619.1875 486.984375 C 620.085938 486.609375 620.964844 486.195312 621.824219 485.734375 C 622.683594 485.277344 623.515625 484.777344 624.324219 484.234375 C 625.132812 483.695312 625.914062 483.117188 626.667969 482.5 C 627.421875 481.878906 628.140625 481.226562 628.828125 480.539062 C 629.515625 479.851562 630.171875 479.132812 630.789062 478.378906 C 631.40625 477.628906 631.984375 476.847656 632.527344 476.039062 C 633.066406 475.230469 633.566406 474.398438 634.027344 473.539062 C 634.488281 472.679688 634.902344 471.804688 635.277344 470.90625 C 635.648438 470.007812 635.976562 469.089844 636.261719 468.160156 C 636.546875 467.230469 636.78125 466.289062 636.972656 465.332031 C 637.164062 464.378906 637.308594 463.417969 637.40625 462.449219 C 637.503906 461.480469 637.550781 460.511719 637.554688 459.539062 L 637.554688 319.929688 L 645.765625 319.929688 C 646.722656 319.929688 647.675781 319.859375 648.621094 319.722656 C 649.570312 319.585938 650.503906 319.378906 651.417969 319.101562 C 652.335938 318.828125 653.230469 318.488281 654.097656 318.085938 C 654.964844 317.679688 655.796875 317.214844 656.597656 316.6875 C 657.398438 316.164062 658.15625 315.582031 658.871094 314.945312 C 659.585938 314.308594 660.25 313.621094 660.863281 312.890625 C 661.476562 312.15625 662.035156 311.382812 662.539062 310.566406 C 663.039062 309.75 663.480469 308.90625 663.855469 308.023438 C 664.234375 307.144531 664.546875 306.242188 664.792969 305.320312 C 665.039062 304.394531 665.21875 303.457031 665.328125 302.507812 C 665.433594 301.554688 665.476562 300.601562 665.445312 299.644531 C 665.414062 298.691406 665.316406 297.742188 665.148438 296.800781 C 664.976562 295.855469 664.742188 294.933594 664.4375 294.023438 C 664.132812 293.117188 663.765625 292.238281 663.332031 291.382812 C 662.902344 290.53125 662.410156 289.710938 661.855469 288.929688 C 661.304688 288.148438 660.699219 287.410156 660.039062 286.714844 Z M 431.082031 471.414062 L 431.082031 330.363281 C 431.082031 329.890625 431.128906 329.421875 431.21875 328.960938 C 431.3125 328.496094 431.449219 328.046875 431.628906 327.609375 C 431.808594 327.171875 432.03125 326.757812 432.292969 326.363281 C 432.558594 325.972656 432.855469 325.609375 433.191406 325.273438 C 433.523438 324.9375 433.886719 324.640625 434.28125 324.378906 C 434.675781 324.117188 435.089844 323.894531 435.527344 323.714844 C 435.964844 323.53125 436.414062 323.398438 436.878906 323.304688 C 437.34375 323.210938 437.8125 323.167969 438.285156 323.167969 L 521.734375 323.167969 C 522.207031 323.167969 522.675781 323.214844 523.136719 323.304688 C 523.601562 323.398438 524.050781 323.535156 524.488281 323.714844 C 524.925781 323.894531 525.339844 324.117188 525.734375 324.378906 C 526.125 324.640625 526.492188 324.941406 526.824219 325.273438 C 527.160156 325.609375 527.457031 325.972656 527.71875 326.367188 C 527.984375 326.757812 528.203125 327.171875 528.386719 327.609375 C 528.566406 328.046875 528.703125 328.496094 528.792969 328.960938 C 528.886719 329.425781 528.933594 329.890625 528.933594 330.363281 L 528.933594 471.414062 Z M 645.773438 302.390625 L 628.785156 302.390625 C 628.210938 302.390625 627.640625 302.445312 627.074219 302.558594 C 626.507812 302.671875 625.960938 302.835938 625.425781 303.058594 C 624.894531 303.277344 624.390625 303.546875 623.910156 303.867188 C 623.429688 304.1875 622.988281 304.550781 622.582031 304.957031 C 622.171875 305.367188 621.808594 305.808594 621.488281 306.289062 C 621.167969 306.765625 620.898438 307.273438 620.679688 307.804688 C 620.457031 308.335938 620.289062 308.882812 620.179688 309.449219 C 620.066406 310.015625 620.011719 310.585938 620.011719 311.160156 L 620.011719 459.535156 C 620.007812 460.335938 619.925781 461.128906 619.769531 461.910156 C 619.609375 462.695312 619.378906 463.457031 619.070312 464.195312 C 618.761719 464.933594 618.386719 465.632812 617.941406 466.296875 C 617.496094 466.964844 616.992188 467.578125 616.425781 468.144531 C 615.859375 468.710938 615.246094 469.214844 614.582031 469.660156 C 613.914062 470.105469 613.214844 470.480469 612.476562 470.789062 C 611.738281 471.09375 610.976562 471.328125 610.191406 471.488281 C 609.40625 471.644531 608.613281 471.726562 607.816406 471.730469 L 546.480469 471.730469 L 546.480469 330.363281 C 546.480469 329.554688 546.441406 328.746094 546.363281 327.941406 C 546.285156 327.136719 546.164062 326.335938 546.007812 325.539062 C 545.847656 324.746094 545.652344 323.960938 545.417969 323.1875 C 545.179688 322.410156 544.910156 321.648438 544.597656 320.902344 C 544.289062 320.152344 543.941406 319.421875 543.5625 318.707031 C 543.179688 317.992188 542.761719 317.300781 542.3125 316.625 C 541.863281 315.953125 541.378906 315.304688 540.867188 314.679688 C 540.351562 314.050781 539.808594 313.453125 539.234375 312.878906 C 538.664062 312.308594 538.0625 311.765625 537.4375 311.25 C 536.808594 310.738281 536.160156 310.253906 535.484375 309.804688 C 534.8125 309.355469 534.117188 308.9375 533.402344 308.558594 C 532.6875 308.175781 531.957031 307.828125 531.207031 307.519531 C 530.460938 307.210938 529.699219 306.9375 528.921875 306.703125 C 528.148438 306.46875 527.363281 306.269531 526.566406 306.113281 C 525.773438 305.953125 524.972656 305.835938 524.164062 305.757812 C 523.359375 305.675781 522.550781 305.636719 521.738281 305.636719 L 438.285156 305.636719 C 437.472656 305.636719 436.664062 305.675781 435.859375 305.757812 C 435.054688 305.835938 434.253906 305.953125 433.457031 306.113281 C 432.664062 306.269531 431.878906 306.46875 431.101562 306.703125 C 430.328125 306.9375 429.566406 307.210938 428.816406 307.519531 C 428.066406 307.828125 427.335938 308.175781 426.621094 308.558594 C 425.90625 308.9375 425.210938 309.355469 424.539062 309.804688 C 423.863281 310.253906 423.214844 310.738281 422.589844 311.25 C 421.960938 311.765625 421.363281 312.308594 420.789062 312.878906 C 420.214844 313.453125 419.671875 314.050781 419.160156 314.679688 C 418.644531 315.304688 418.164062 315.953125 417.710938 316.628906 C 417.261719 317.300781 416.84375 317.996094 416.464844 318.707031 C 416.082031 319.421875 415.734375 320.152344 415.425781 320.902344 C 415.117188 321.648438 414.84375 322.410156 414.609375 323.1875 C 414.371094 323.960938 414.175781 324.746094 414.015625 325.539062 C 413.859375 326.335938 413.742188 327.136719 413.660156 327.941406 C 413.582031 328.746094 413.542969 329.554688 413.542969 330.363281 L 413.542969 471.738281 L 352.203125 471.738281 C 351.402344 471.734375 350.609375 471.65625 349.824219 471.496094 C 349.042969 471.339844 348.28125 471.105469 347.542969 470.796875 C 346.800781 470.492188 346.101562 470.113281 345.4375 469.667969 C 344.769531 469.226562 344.15625 468.71875 343.589844 468.152344 C 343.023438 467.589844 342.519531 466.972656 342.074219 466.308594 C 341.628906 465.644531 341.253906 464.941406 340.945312 464.203125 C 340.636719 463.464844 340.40625 462.707031 340.246094 461.921875 C 340.089844 461.136719 340.007812 460.347656 340.003906 459.546875 L 340.003906 311.203125 C 340.003906 310.628906 339.949219 310.058594 339.835938 309.492188 C 339.722656 308.929688 339.558594 308.378906 339.335938 307.847656 C 339.117188 307.316406 338.847656 306.808594 338.527344 306.332031 C 338.207031 305.851562 337.84375 305.410156 337.433594 305.003906 C 337.027344 304.59375 336.585938 304.230469 336.105469 303.910156 C 335.625 303.589844 335.121094 303.320312 334.589844 303.101562 C 334.054688 302.878906 333.507812 302.714844 332.941406 302.601562 C 332.378906 302.488281 331.808594 302.433594 331.230469 302.433594 L 314.238281 302.433594 C 313.8125 302.433594 313.421875 302.3125 313.066406 302.078125 C 312.710938 301.84375 312.449219 301.53125 312.28125 301.140625 C 312.117188 300.75 312.070312 300.347656 312.144531 299.925781 C 312.21875 299.507812 312.40625 299.144531 312.699219 298.835938 C 365.628906 243.128906 418.535156 187.425781 471.425781 131.71875 C 471.988281 131.15625 472.601562 130.648438 473.261719 130.207031 C 473.925781 129.761719 474.625 129.386719 475.363281 129.082031 C 476.097656 128.773438 476.859375 128.542969 477.640625 128.386719 C 478.421875 128.234375 479.210938 128.15625 480.011719 128.15625 C 480.808594 128.15625 481.597656 128.234375 482.378906 128.386719 C 483.160156 128.542969 483.921875 128.773438 484.65625 129.082031 C 485.394531 129.386719 486.09375 129.761719 486.757812 130.207031 C 487.417969 130.648438 488.03125 131.15625 488.59375 131.71875 L 647.324219 298.792969 C 647.570312 299.023438 647.742188 299.300781 647.84375 299.621094 C 647.945312 299.941406 647.960938 300.269531 647.890625 300.597656 C 647.851562 300.847656 647.769531 301.085938 647.644531 301.308594 C 647.519531 301.53125 647.363281 301.722656 647.167969 301.890625 C 646.972656 302.054688 646.753906 302.179688 646.515625 302.265625 C 646.273438 302.351562 646.027344 302.394531 645.773438 302.390625 Z M 645.773438 302.390625 " fill-opacity="1" fill-rule="nonzero"/></g></svg>