<svg xmlns="http://www.w3.org/2000/svg" xmlns:xlink="http://www.w3.org/1999/xlink" width="1280" zoomAndPan="magnify" viewBox="0 0 960 599.999999" height="800" preserveAspectRatio="xMidYMid meet" version="1.0"><defs><clipPath id="013afc432a"><path d="M 163 142.882812 L 843.269531 142.882812 L 843.269531 456 L 163 456 Z M 163 142.882812 " clip-rule="nonzero"/></clipPath></defs><path fill="#75afff" d="M 120.183594 289.53125 C 120.183594 291.53125 120.230469 293.53125 120.328125 295.527344 C 120.429688 297.527344 120.574219 299.519531 120.769531 301.511719 C 120.96875 303.5 121.210938 305.484375 121.503906 307.464844 C 121.800781 309.441406 122.140625 311.410156 122.53125 313.375 C 122.921875 315.335938 123.359375 317.285156 123.847656 319.226562 C 124.332031 321.164062 124.867188 323.09375 125.445312 325.007812 C 126.027344 326.921875 126.652344 328.820312 127.328125 330.703125 C 128 332.585938 128.722656 334.449219 129.488281 336.296875 C 130.253906 338.144531 131.0625 339.972656 131.917969 341.78125 C 132.773438 343.589844 133.671875 345.375 134.617188 347.140625 C 135.558594 348.902344 136.542969 350.644531 137.574219 352.359375 C 138.601562 354.074219 139.671875 355.765625 140.78125 357.425781 C 141.894531 359.089844 143.046875 360.722656 144.238281 362.332031 C 145.429688 363.9375 146.660156 365.511719 147.929688 367.058594 C 149.195312 368.605469 150.503906 370.121094 151.847656 371.601562 C 153.191406 373.082031 154.570312 374.53125 155.984375 375.945312 C 157.398438 377.359375 158.847656 378.738281 160.328125 380.082031 C 161.8125 381.425781 163.324219 382.730469 164.871094 384 C 166.417969 385.269531 167.996094 386.5 169.601562 387.691406 C 171.207031 388.882812 172.84375 390.03125 174.507812 391.144531 C 176.171875 392.253906 177.859375 393.324219 179.574219 394.351562 C 181.292969 395.382812 183.03125 396.367188 184.796875 397.308594 C 186.558594 398.253906 188.347656 399.152344 190.15625 400.007812 C 191.960938 400.863281 193.789062 401.671875 195.640625 402.4375 C 197.488281 403.203125 199.351562 403.921875 201.238281 404.597656 C 203.121094 405.269531 205.019531 405.898438 206.933594 406.476562 C 208.847656 407.058594 210.773438 407.589844 212.714844 408.078125 C 214.65625 408.5625 216.605469 409 218.570312 409.390625 C 220.53125 409.78125 222.5 410.125 224.480469 410.417969 C 226.460938 410.710938 228.445312 410.957031 230.433594 411.152344 C 232.425781 411.347656 234.417969 411.496094 236.417969 411.59375 C 238.414062 411.691406 240.414062 411.738281 242.414062 411.738281 C 244.414062 411.738281 246.414062 411.691406 248.414062 411.59375 C 250.410156 411.496094 252.40625 411.347656 254.394531 411.152344 C 256.386719 410.957031 258.371094 410.710938 260.351562 410.417969 C 262.328125 410.125 264.300781 409.78125 266.261719 409.390625 C 268.222656 409 270.175781 408.5625 272.117188 408.078125 C 274.054688 407.589844 275.984375 407.058594 277.898438 406.476562 C 279.8125 405.898438 281.710938 405.269531 283.59375 404.597656 C 285.476562 403.921875 287.34375 403.203125 289.191406 402.4375 C 291.039062 401.671875 292.867188 400.863281 294.675781 400.007812 C 296.484375 399.152344 298.269531 398.253906 300.035156 397.308594 C 301.800781 396.367188 303.539062 395.382812 305.253906 394.351562 C 306.972656 393.324219 308.660156 392.253906 310.324219 391.144531 C 311.988281 390.03125 313.621094 388.882812 315.230469 387.691406 C 316.835938 386.5 318.414062 385.269531 319.960938 384 C 321.503906 382.730469 323.019531 381.425781 324.503906 380.082031 C 325.984375 378.738281 327.433594 377.359375 328.847656 375.945312 C 330.261719 374.53125 331.640625 373.082031 332.984375 371.601562 C 334.328125 370.121094 335.632812 368.605469 336.902344 367.058594 C 338.171875 365.511719 339.402344 363.9375 340.59375 362.332031 C 341.785156 360.722656 342.9375 359.089844 344.046875 357.425781 C 345.160156 355.765625 346.230469 354.074219 347.257812 352.359375 C 348.285156 350.644531 349.273438 348.902344 350.214844 347.140625 C 351.15625 345.375 352.058594 343.589844 352.914062 341.78125 C 353.769531 339.972656 354.578125 338.144531 355.34375 336.296875 C 356.109375 334.449219 356.828125 332.585938 357.503906 330.703125 C 358.175781 328.820312 358.804688 326.921875 359.386719 325.007812 C 359.964844 323.09375 360.5 321.164062 360.984375 319.226562 C 361.472656 317.285156 361.910156 315.335938 362.300781 313.375 C 362.691406 311.410156 363.03125 309.441406 363.324219 307.464844 C 363.617188 305.484375 363.863281 303.5 364.058594 301.511719 C 364.253906 299.519531 364.402344 297.527344 364.5 295.527344 C 364.597656 293.53125 364.648438 291.53125 364.648438 289.53125 C 364.648438 287.53125 364.597656 285.53125 364.5 283.535156 C 364.402344 281.539062 364.253906 279.542969 364.058594 277.554688 C 363.863281 275.5625 363.617188 273.578125 363.324219 271.601562 C 363.03125 269.621094 362.691406 267.652344 362.300781 265.691406 C 361.910156 263.726562 361.472656 261.777344 360.984375 259.835938 C 360.5 257.898438 359.964844 255.96875 359.386719 254.054688 C 358.804688 252.140625 358.175781 250.242188 357.503906 248.359375 C 356.828125 246.476562 356.109375 244.613281 355.34375 242.765625 C 354.578125 240.917969 353.769531 239.089844 352.914062 237.28125 C 352.058594 235.472656 351.15625 233.6875 350.214844 231.921875 C 349.273438 230.160156 348.285156 228.417969 347.257812 226.703125 C 346.230469 224.988281 345.160156 223.300781 344.046875 221.636719 C 342.9375 219.972656 341.785156 218.339844 340.59375 216.730469 C 339.402344 215.125 338.171875 213.550781 336.902344 212.003906 C 335.632812 210.457031 334.328125 208.941406 332.984375 207.460938 C 331.640625 205.980469 330.261719 204.53125 328.847656 203.117188 C 327.433594 201.703125 325.984375 200.324219 324.5 198.980469 C 323.019531 197.636719 321.503906 196.332031 319.960938 195.0625 C 318.414062 193.792969 316.835938 192.5625 315.230469 191.371094 C 313.621094 190.179688 311.988281 189.03125 310.324219 187.917969 C 308.660156 186.808594 306.972656 185.738281 305.253906 184.710938 C 303.539062 183.683594 301.800781 182.695312 300.035156 181.753906 C 298.269531 180.8125 296.484375 179.910156 294.675781 179.054688 C 292.867188 178.203125 291.039062 177.390625 289.191406 176.625 C 287.34375 175.859375 285.476562 175.140625 283.59375 174.46875 C 281.710938 173.792969 279.8125 173.167969 277.898438 172.585938 C 275.984375 172.003906 274.054688 171.472656 272.117188 170.984375 C 270.175781 170.5 268.222656 170.0625 266.261719 169.671875 C 264.300781 169.28125 262.328125 168.9375 260.351562 168.644531 C 258.371094 168.351562 256.386719 168.109375 254.394531 167.910156 C 252.40625 167.714844 250.410156 167.570312 248.414062 167.46875 C 246.414062 167.371094 244.414062 167.324219 242.414062 167.324219 C 240.414062 167.324219 238.414062 167.371094 236.417969 167.46875 C 234.417969 167.570312 232.425781 167.714844 230.433594 167.910156 C 228.445312 168.109375 226.460938 168.351562 224.480469 168.644531 C 222.5 168.9375 220.53125 169.28125 218.570312 169.671875 C 216.605469 170.0625 214.65625 170.5 212.714844 170.984375 C 210.773438 171.472656 208.847656 172.003906 206.933594 172.585938 C 205.019531 173.167969 203.121094 173.792969 201.238281 174.46875 C 199.351562 175.140625 197.488281 175.859375 195.640625 176.625 C 193.789062 177.390625 191.960938 178.203125 190.15625 179.054688 C 188.347656 179.910156 186.558594 180.8125 184.796875 181.753906 C 183.03125 182.695312 181.292969 183.683594 179.574219 184.710938 C 177.859375 185.738281 176.171875 186.808594 174.507812 187.917969 C 172.84375 189.03125 171.207031 190.179688 169.601562 191.371094 C 167.996094 192.5625 166.417969 193.792969 164.871094 195.0625 C 163.324219 196.332031 161.8125 197.636719 160.328125 198.980469 C 158.847656 200.324219 157.398438 201.703125 155.984375 203.117188 C 154.570312 204.53125 153.191406 205.980469 151.847656 207.460938 C 150.503906 208.941406 149.199219 210.457031 147.929688 212.003906 C 146.660156 213.550781 145.429688 215.125 144.238281 216.730469 C 143.046875 218.339844 141.894531 219.972656 140.78125 221.636719 C 139.671875 223.300781 138.601562 224.988281 137.574219 226.703125 C 136.542969 228.417969 135.558594 230.160156 134.617188 231.921875 C 133.671875 233.6875 132.773438 235.472656 131.917969 237.28125 C 131.0625 239.089844 130.253906 240.917969 129.488281 242.765625 C 128.722656 244.613281 128 246.476562 127.328125 248.359375 C 126.652344 250.242188 126.027344 252.140625 125.445312 254.054688 C 124.867188 255.96875 124.332031 257.898438 123.847656 259.835938 C 123.359375 261.777344 122.921875 263.726562 122.53125 265.691406 C 122.140625 267.652344 121.800781 269.621094 121.503906 271.601562 C 121.210938 273.578125 120.96875 275.5625 120.769531 277.554688 C 120.574219 279.542969 120.429688 281.539062 120.328125 283.535156 C 120.230469 285.53125 120.183594 287.53125 120.183594 289.53125 Z M 120.183594 289.53125 " fill-opacity="1" fill-rule="nonzero"/><g clip-path="url(#013afc432a)"><path fill="#112d55" d="M 312.261719 141.136719 C 385.113281 141.136719 445.601562 194 458.035156 263.34375 L 818.65625 263.34375 C 833.113281 263.34375 844.847656 275.074219 844.847656 289.53125 L 844.847656 429.199219 C 844.847656 443.652344 833.113281 455.386719 818.65625 455.386719 C 804.195312 455.386719 792.460938 443.652344 792.460938 429.199219 L 792.460938 315.71875 L 705.152344 315.71875 L 705.152344 394.28125 C 705.152344 408.738281 693.417969 420.46875 678.960938 420.46875 C 664.503906 420.46875 652.769531 408.738281 652.769531 394.28125 L 652.769531 315.71875 L 458.035156 315.71875 C 445.601562 385.0625 385.113281 437.925781 312.261719 437.925781 C 230.4375 437.925781 163.835938 371.339844 163.835938 289.53125 C 163.835938 207.722656 230.4375 141.136719 312.261719 141.136719 Z M 312.261719 385.550781 C 365.242188 385.550781 408.300781 342.5 408.300781 289.53125 C 408.300781 236.5625 365.242188 193.511719 312.261719 193.511719 C 259.285156 193.511719 216.222656 236.5625 216.222656 289.53125 C 216.222656 342.5 259.285156 385.550781 312.261719 385.550781 Z M 312.261719 385.550781 " fill-opacity="1" fill-rule="nonzero"/></g></svg>