<svg xmlns="http://www.w3.org/2000/svg" xmlns:xlink="http://www.w3.org/1999/xlink" width="1280" zoomAndPan="magnify" viewBox="0 0 960 599.999999" height="800" preserveAspectRatio="xMidYMid meet" version="1.0"><path fill="#f4f6fc" d="M 529.96875 300.125 L 679.460938 150.632812 C 693.21875 136.875 693.246094 114.535156 679.484375 100.769531 C 665.75 87.035156 643.398438 87.019531 629.625 100.792969 L 480.128906 250.285156 L 330.636719 100.792969 C 316.878906 87.035156 294.539062 87.007812 280.777344 100.769531 C 267.042969 114.503906 267.023438 136.855469 280.796875 150.632812 L 430.292969 300.125 L 280.796875 449.621094 C 267.042969 463.375 267.011719 485.71875 280.777344 499.480469 C 294.511719 513.214844 316.863281 513.234375 330.636719 499.457031 L 480.128906 349.964844 L 629.625 499.457031 C 643.378906 513.214844 665.722656 513.242188 679.484375 499.480469 C 693.21875 485.746094 693.238281 463.394531 679.460938 449.621094 Z M 529.96875 300.125 " fill-opacity="1" fill-rule="evenodd"/></svg>