<svg xmlns="http://www.w3.org/2000/svg" xmlns:xlink="http://www.w3.org/1999/xlink" width="1280" zoomAndPan="magnify" viewBox="0 0 960 599.999999" height="800" preserveAspectRatio="xMidYMid meet" version="1.0"><defs><clipPath id="34067beca7"><path d="M 234.796875 54.796875 L 725.296875 54.796875 L 725.296875 545.296875 L 234.796875 545.296875 Z M 234.796875 54.796875 " clip-rule="nonzero"/></clipPath></defs><g clip-path="url(#34067beca7)"><path fill="#f4f6fc" d="M 725.191406 299.996094 C 725.191406 435.460938 615.460938 545.191406 479.996094 545.191406 C 344.527344 545.191406 234.796875 435.460938 234.796875 299.996094 C 234.796875 164.527344 344.527344 54.796875 479.996094 54.796875 C 615.460938 54.796875 725.191406 164.527344 725.191406 299.996094 Z M 725.191406 299.996094 " fill-opacity="1" fill-rule="evenodd"/></g><path fill="#112d55" d="M 479.996094 318.855469 C 427.929688 318.855469 385.6875 276.613281 385.6875 224.550781 C 385.6875 172.484375 427.929688 130.242188 479.996094 130.242188 C 532.058594 130.242188 574.300781 172.484375 574.300781 224.550781 C 574.300781 276.613281 532.058594 318.855469 479.996094 318.855469 Z M 302.582031 407.5625 C 302.777344 405.894531 303.464844 404.320312 304.546875 402.945312 C 327.828125 373.867188 364.566406 356.578125 413.980469 356.578125 L 546.007812 356.578125 C 595.421875 356.578125 632.164062 373.867188 655.445312 402.945312 C 656.523438 404.320312 657.214844 405.894531 657.410156 407.5625 C 621.0625 467.488281 555.242188 507.46875 479.996094 507.46875 C 404.746094 507.46875 338.929688 467.488281 302.582031 407.5625 Z M 302.582031 407.5625 " fill-opacity="1" fill-rule="evenodd"/></svg>