<svg xmlns="http://www.w3.org/2000/svg" xmlns:xlink="http://www.w3.org/1999/xlink" width="1280" zoomAndPan="magnify" viewBox="0 0 960 599.999999" height="800" preserveAspectRatio="xMidYMid meet" version="1.0"><defs><filter x="0%" y="0%" width="100%" height="100%" id="545468a79a"><feColorMatrix values="0 0 0 0 1 0 0 0 0 1 0 0 0 0 1 0 0 0 1 0" color-interpolation-filters="sRGB"/></filter><mask id="c260c4f01f"><g filter="url(#545468a79a)"><rect x="-96" width="1152" fill="#000000" y="-60" height="719.999999" fill-opacity="0.05"/></g></mask><clipPath id="03af0fd022"><path d="M 174.03125 382.453125 L 269 382.453125 L 269 533.347656 L 174.03125 533.347656 Z M 174.03125 382.453125 " clip-rule="nonzero"/></clipPath><clipPath id="2a1bf409c8"><path d="M 0.679688 109 L 73 109 L 73 261 L 0.679688 261 Z M 0.679688 109 " clip-rule="nonzero"/></clipPath><clipPath id="df2b6fa3c5"><path d="M 298.074219 81.203125 L 404.6875 81.203125 L 404.6875 232.511719 L 298.074219 232.511719 Z M 298.074219 81.203125 " clip-rule="nonzero"/></clipPath><clipPath id="60fe0bda70"><path d="M 64 0.601562 L 202 0.601562 L 202 64 L 64 64 Z M 64 0.601562 " clip-rule="nonzero"/></clipPath><clipPath id="04dd91c1d9"><rect x="0" width="406" y="0" height="534"/></clipPath></defs><g mask="url(#c260c4f01f)"><g transform="matrix(1, 0, 0, 1, 277, 33)"><g clip-path="url(#04dd91c1d9)"><path fill="#5cb6f9" d="M 141.921875 526.171875 C 138.839844 526.171875 135.785156 524.855469 133.648438 522.308594 C 129.824219 517.742188 130.425781 510.941406 134.996094 507.113281 C 186.6875 463.839844 217.699219 405.414062 220.074219 346.808594 C 220.96875 324.753906 215.71875 306.761719 211.28125 298.160156 C 209.464844 305.058594 207.394531 319.351562 208.390625 347.667969 C 210.058594 394.933594 180.121094 445.964844 116.875 503.683594 C 112.472656 507.699219 105.648438 507.390625 101.636719 502.988281 C 97.621094 498.582031 97.929688 491.769531 102.335938 487.75 C 160.625 434.558594 188.269531 388.984375 186.835938 348.421875 C 184.835938 291.738281 193.824219 279.003906 201.875 274.25 C 207.113281 271.152344 213.253906 271.261719 218.730469 274.53125 C 234.535156 283.980469 242.78125 319.148438 241.628906 347.683594 C 239.003906 412.34375 205.1875 476.488281 148.839844 523.65625 C 146.820312 525.34375 144.367188 526.171875 141.921875 526.171875 " fill-opacity="1" fill-rule="nonzero"/><path fill="#5cb6f9" d="M 82.648438 477.503906 C 80.050781 477.503906 77.445312 476.566406 75.375 474.675781 C 70.976562 470.65625 70.675781 463.835938 74.695312 459.4375 L 83.148438 450.214844 C 123.636719 406.105469 143.960938 383.964844 149.144531 341.507812 C 149.867188 335.589844 155.25 331.378906 161.15625 332.109375 C 167.070312 332.828125 171.277344 338.203125 170.554688 344.121094 C 164.539062 393.449219 139.882812 420.304688 99.039062 464.804688 L 90.609375 473.996094 C 88.484375 476.320312 85.574219 477.503906 82.648438 477.503906 " fill-opacity="1" fill-rule="nonzero"/><path fill="#5cb6f9" d="M 264.1875 366.554688 C 263.949219 366.554688 263.714844 366.542969 263.476562 366.53125 C 257.53125 366.144531 253.027344 361.015625 253.410156 355.066406 C 253.644531 351.46875 253.746094 347.9375 253.710938 344.574219 C 253.234375 300.820312 241.863281 281.902344 232.730469 266.699219 C 223.671875 251.617188 211.816406 243.925781 201.683594 246.507812 C 190.542969 249.347656 176.960938 266.625 175.335938 305.980469 C 175.089844 311.933594 170.015625 316.566406 164.117188 316.316406 C 158.164062 316.070312 153.542969 311.042969 153.785156 305.089844 C 155.582031 261.664062 171.492188 231.945312 196.351562 225.605469 C 216.074219 220.582031 237.0625 232.015625 251.144531 255.464844 C 261.140625 272.109375 274.738281 294.734375 275.28125 344.339844 C 275.320312 348.253906 275.203125 352.324219 274.933594 356.464844 C 274.566406 362.171875 269.820312 366.554688 264.1875 366.554688 " fill-opacity="1" fill-rule="nonzero"/><g clip-path="url(#03af0fd022)"><path fill="#5cb6f9" d="M 184.996094 533.347656 C 182.144531 533.347656 179.296875 532.226562 177.179688 529.992188 C 173.074219 525.675781 173.25 518.84375 177.566406 514.742188 C 210.394531 483.550781 235.917969 438.472656 247.617188 391.066406 C 249.039062 385.285156 254.890625 381.753906 260.675781 383.183594 C 266.453125 384.609375 269.988281 390.449219 268.558594 396.238281 C 255.902344 447.535156 228.15625 496.425781 192.421875 530.382812 C 190.339844 532.363281 187.664062 533.347656 184.996094 533.347656 " fill-opacity="1" fill-rule="nonzero"/></g><path fill="#5cb6f9" d="M 58.261719 439.347656 C 55.367188 439.347656 52.480469 438.191406 50.355469 435.898438 C 46.304688 431.53125 46.558594 424.710938 50.925781 420.65625 C 108.230469 367.492188 114.320312 325.796875 121.371094 277.523438 C 123.101562 265.660156 124.890625 253.398438 127.476562 240.472656 C 132.460938 215.5625 145.894531 196.128906 165.304688 185.738281 C 183.796875 175.84375 206.449219 175.121094 227.4375 183.773438 C 232.941406 186.035156 235.566406 192.347656 233.300781 197.851562 C 231.035156 203.359375 224.734375 205.984375 219.222656 203.714844 C 203.992188 197.441406 188.460938 197.816406 175.480469 204.757812 C 161.859375 212.046875 152.324219 226.234375 148.628906 244.699219 C 146.15625 257.074219 144.40625 269.054688 142.710938 280.640625 C 135.390625 330.777344 128.472656 378.128906 65.59375 436.472656 C 63.519531 438.394531 60.886719 439.347656 58.261719 439.347656 " fill-opacity="1" fill-rule="nonzero"/><path fill="#5cb6f9" d="M 233.59375 523.40625 C 230.792969 523.40625 227.984375 522.316406 225.871094 520.148438 C 221.714844 515.882812 221.804688 509.058594 226.070312 504.898438 C 263.785156 468.148438 284.542969 418.324219 287.769531 356.816406 C 290.859375 297.875 276.039062 268.472656 257.835938 238.75 C 252.511719 230.050781 251.117188 228.085938 245.542969 222.863281 C 241.191406 218.792969 240.96875 211.96875 245.035156 207.617188 C 249.109375 203.265625 255.929688 203.050781 260.28125 207.117188 C 267.804688 214.15625 270.34375 217.863281 276.234375 227.488281 C 295.609375 259.125 312.71875 292.90625 309.308594 357.945312 C 305.796875 425.042969 282.851562 479.6875 241.121094 520.34375 C 239.023438 522.390625 236.308594 523.40625 233.59375 523.40625 " fill-opacity="1" fill-rule="nonzero"/><path fill="#5cb6f9" d="M 35.59375 386.476562 C 32.125 386.476562 28.722656 384.8125 26.632812 381.71875 C 23.3125 376.773438 24.621094 370.066406 29.5625 366.746094 C 64.007812 343.578125 74.890625 306.550781 84.65625 264.097656 C 85.992188 258.289062 91.769531 254.667969 97.585938 256.003906 C 103.390625 257.339844 107.015625 263.128906 105.679688 268.929688 C 95.269531 314.203125 82.53125 357.113281 41.601562 384.640625 C 39.757812 385.886719 37.667969 386.476562 35.59375 386.476562 " fill-opacity="1" fill-rule="nonzero"/><path fill="#5cb6f9" d="M 323.105469 278.207031 C 318.246094 278.207031 313.828125 274.894531 312.636719 269.957031 C 305.027344 238.601562 294.527344 217.835938 275.183594 195.898438 C 248.214844 165.300781 211.132812 149.503906 178.433594 154.683594 C 154.5625 158.460938 136.109375 172.773438 126.480469 194.992188 C 122.179688 204.914062 118.441406 216.175781 114.71875 230.445312 C 113.21875 236.207031 107.320312 239.660156 101.5625 238.160156 C 95.796875 236.652344 92.34375 230.765625 93.847656 224.996094 C 97.855469 209.628906 101.941406 197.375 106.691406 186.414062 C 119.175781 157.609375 144.097656 138.273438 175.070312 133.375 C 215.59375 126.96875 259.078125 145.011719 291.367188 181.632812 C 312.960938 206.125 325.199219 230.246094 333.59375 264.875 C 335 270.660156 331.445312 276.496094 325.65625 277.898438 C 324.804688 278.105469 323.945312 278.207031 323.105469 278.207031 " fill-opacity="1" fill-rule="nonzero"/><path fill="#5cb6f9" d="M 315.316406 463.769531 C 314.042969 463.769531 312.738281 463.542969 311.472656 463.0625 C 305.90625 460.933594 303.117188 454.703125 305.246094 449.132812 C 326.992188 392.1875 327.917969 363.371094 321.765625 320.320312 C 321.078125 315.558594 320.394531 310.976562 319.699219 306.554688 C 318.769531 300.675781 322.785156 295.148438 328.667969 294.222656 C 334.554688 293.296875 340.074219 297.3125 341.007812 303.195312 C 341.714844 307.707031 342.414062 312.386719 343.117188 317.257812 C 349.679688 363.195312 348.703125 395.796875 325.394531 456.832031 C 323.75 461.128906 319.660156 463.769531 315.316406 463.769531 " fill-opacity="1" fill-rule="nonzero"/><path fill="#5cb6f9" d="M 30.882812 319.265625 C 28.242188 319.265625 25.59375 318.300781 23.519531 316.359375 C 19.167969 312.289062 18.941406 305.464844 23.007812 301.113281 C 41.503906 281.332031 44.871094 260.914062 49.128906 235.066406 C 52.367188 215.417969 56.035156 193.144531 66.894531 166.910156 C 79.253906 137.042969 102.769531 113.425781 133.121094 100.394531 C 138.589844 98.046875 144.933594 100.574219 147.285156 106.050781 C 149.632812 111.523438 147.105469 117.867188 141.628906 120.214844 C 116.480469 131.011719 97.019531 150.527344 86.824219 175.160156 C 76.921875 199.097656 73.457031 220.070312 70.414062 238.574219 C 65.945312 265.683594 61.722656 291.289062 38.761719 315.847656 C 36.640625 318.113281 33.761719 319.265625 30.882812 319.265625 " fill-opacity="1" fill-rule="nonzero"/><path fill="#5cb6f9" d="M 327.945312 182.582031 C 324.53125 182.582031 321.179688 180.960938 319.082031 177.949219 C 301.664062 152.894531 278.128906 134.675781 247.132812 122.242188 C 217.277344 110.277344 194.867188 106.8125 172.199219 110.660156 C 166.320312 111.65625 160.757812 107.707031 159.761719 101.832031 C 158.765625 95.960938 162.714844 90.390625 168.589844 89.394531 C 195.105469 84.894531 221.804688 88.851562 255.15625 102.222656 C 290.195312 116.269531 316.898438 137.011719 336.796875 165.636719 C 340.191406 170.527344 338.984375 177.25 334.097656 180.648438 C 332.214844 181.953125 330.070312 182.582031 327.945312 182.582031 " fill-opacity="1" fill-rule="nonzero"/><path fill="#5cb6f9" d="M 368.355469 401.917969 C 367.828125 401.917969 367.300781 401.882812 366.773438 401.808594 C 360.878906 400.941406 356.804688 395.464844 357.667969 389.570312 C 368.972656 312.433594 360.148438 283.398438 346.796875 239.441406 L 345.058594 233.722656 C 342.222656 224.316406 338.945312 215.386719 335.324219 207.175781 C 332.925781 201.730469 335.394531 195.359375 340.84375 192.953125 C 346.285156 190.550781 352.65625 193.015625 355.0625 198.46875 C 359.035156 207.484375 362.621094 217.246094 365.707031 227.484375 L 367.433594 233.171875 C 381.125 278.226562 391.015625 310.78125 379.007812 392.703125 C 378.222656 398.058594 373.617188 401.917969 368.355469 401.917969 " fill-opacity="1" fill-rule="nonzero"/><g clip-path="url(#2a1bf409c8)"><path fill="#5cb6f9" d="M 11.707031 260.335938 C 10.753906 260.335938 9.792969 260.210938 8.828125 259.941406 C 3.089844 258.355469 -0.277344 252.414062 1.308594 246.675781 C 3.195312 239.851562 4.996094 231.492188 6.90625 222.632812 C 14.164062 188.9375 24.097656 142.789062 53.601562 112.609375 C 57.765625 108.351562 64.59375 108.269531 68.851562 112.433594 C 73.113281 116.597656 73.1875 123.429688 69.023438 127.6875 C 43.875 153.414062 35.066406 194.3125 27.992188 227.175781 C 26.015625 236.34375 24.148438 245.003906 22.097656 252.425781 C 20.777344 257.199219 16.4375 260.335938 11.707031 260.335938 " fill-opacity="1" fill-rule="nonzero"/></g><path fill="#5cb6f9" d="M 87.175781 105.171875 C 84.097656 105.171875 81.046875 103.863281 78.910156 101.328125 C 75.078125 96.761719 75.667969 89.964844 80.226562 86.128906 C 115.054688 56.855469 161.582031 41.015625 204.679688 43.761719 C 230.34375 45.390625 258.277344 52.828125 283.335938 64.699219 C 288.71875 67.25 291.015625 73.679688 288.464844 79.066406 C 285.914062 84.441406 279.476562 86.738281 274.097656 84.191406 C 251.457031 73.464844 226.3125 66.753906 203.3125 65.289062 C 165.609375 62.882812 124.789062 76.855469 94.109375 102.640625 C 92.089844 104.339844 89.625 105.171875 87.175781 105.171875 " fill-opacity="1" fill-rule="nonzero"/><g clip-path="url(#df2b6fa3c5)"><path fill="#5cb6f9" d="M 394.03125 232.386719 C 389.148438 232.386719 384.722656 229.050781 383.546875 224.09375 C 369.996094 166.957031 344.546875 127.949219 303.46875 101.320312 C 298.46875 98.078125 297.042969 91.402344 300.285156 86.402344 C 303.527344 81.40625 310.203125 79.980469 315.203125 83.222656 C 361.234375 113.058594 389.617188 156.238281 404.535156 219.113281 C 405.910156 224.90625 402.324219 230.722656 396.53125 232.09375 C 395.691406 232.292969 394.855469 232.386719 394.03125 232.386719 " fill-opacity="1" fill-rule="nonzero"/></g><g clip-path="url(#60fe0bda70)"><path fill="#5cb6f9" d="M 74.863281 63.738281 C 71.570312 63.738281 68.320312 62.238281 66.203125 59.394531 C 62.644531 54.613281 63.640625 47.855469 68.417969 44.304688 C 105.640625 16.605469 147.929688 1.558594 190.71875 0.785156 C 196.75 0.617188 201.589844 5.417969 201.699219 11.371094 C 201.804688 17.332031 197.066406 22.246094 191.105469 22.351562 C 152.855469 23.042969 114.878906 36.617188 81.292969 61.609375 C 79.359375 63.046875 77.101562 63.738281 74.863281 63.738281 " fill-opacity="1" fill-rule="nonzero"/></g><path fill="#5cb6f9" d="M 355.542969 86.605469 C 352.671875 86.605469 349.808594 85.464844 347.691406 83.210938 C 316.929688 50.53125 270.449219 28.007812 223.347656 22.949219 C 217.425781 22.3125 213.140625 16.996094 213.773438 11.074219 C 214.40625 5.152344 219.726562 0.867188 225.648438 1.5 C 277.71875 7.089844 329.214844 32.105469 363.398438 68.429688 C 367.476562 72.765625 367.269531 79.589844 362.933594 83.675781 C 360.851562 85.628906 358.195312 86.605469 355.542969 86.605469 " fill-opacity="1" fill-rule="nonzero"/></g></g></g></svg>