<svg xmlns="http://www.w3.org/2000/svg" xmlns:xlink="http://www.w3.org/1999/xlink" width="1280" zoomAndPan="magnify" viewBox="0 0 960 599.999999" height="800" preserveAspectRatio="xMidYMid meet" version="1.0"><defs><clipPath id="83d21c5619"><path d="M 357 46.75 L 603 46.75 L 603 310 L 357 310 Z M 357 46.75 " clip-rule="nonzero"/></clipPath><clipPath id="51518787b6"><path d="M 250 310 L 710 310 L 710 553 L 250 553 Z M 250 310 " clip-rule="nonzero"/></clipPath></defs><g clip-path="url(#83d21c5619)"><path fill="#ffffff" d="M 479.996094 309.472656 C 547.800781 309.472656 602.949219 237.511719 602.949219 169.714844 C 602.949219 101.917969 547.800781 46.75 479.996094 46.75 C 412.191406 46.75 357.035156 101.917969 357.035156 169.714844 C 357.046875 237.507812 412.199219 309.472656 479.996094 309.472656 Z M 479.996094 309.472656 " fill-opacity="1" fill-rule="nonzero"/></g><g clip-path="url(#51518787b6)"><path fill="#ffffff" d="M 572.300781 310.734375 C 548.453125 328.90625 518.699219 339.71875 486.46875 339.71875 L 473.523438 339.71875 C 441.289062 339.71875 411.527344 328.902344 387.683594 310.734375 C 309.808594 323.324219 250.339844 390.824219 250.339844 472.246094 C 250.339844 516.972656 353.160156 553.246094 479.996094 553.246094 C 606.828125 553.246094 709.652344 516.972656 709.652344 472.246094 C 709.652344 390.824219 650.179688 323.324219 572.300781 310.734375 Z M 572.300781 310.734375 " fill-opacity="1" fill-rule="nonzero"/></g></svg>