<svg xmlns="http://www.w3.org/2000/svg" xmlns:xlink="http://www.w3.org/1999/xlink" width="1280" zoomAndPan="magnify" viewBox="0 0 960 599.999999" height="800" preserveAspectRatio="xMidYMid meet" version="1.0"><defs><clipPath id="201b67aa9d"><path d="M 249.515625 92.566406 L 550 92.566406 L 550 507.316406 L 249.515625 507.316406 Z M 249.515625 92.566406 " clip-rule="nonzero"/></clipPath><clipPath id="0aa54d4e87"><path d="M 341 208 L 710.765625 208 L 710.765625 393 L 341 393 Z M 341 208 " clip-rule="nonzero"/></clipPath></defs><g clip-path="url(#201b67aa9d)"><path fill="#231f20" d="M 479.996094 507.429688 L 318.660156 507.429688 C 317.53125 507.429688 316.398438 507.398438 315.269531 507.34375 C 314.140625 507.285156 313.011719 507.203125 311.886719 507.089844 C 310.761719 506.980469 309.636719 506.839844 308.519531 506.671875 C 307.398438 506.503906 306.285156 506.3125 305.175781 506.089844 C 304.066406 505.867188 302.964844 505.621094 301.867188 505.34375 C 300.769531 505.070312 299.679688 504.765625 298.597656 504.4375 C 297.515625 504.109375 296.441406 503.753906 295.375 503.371094 C 294.3125 502.988281 293.257812 502.582031 292.210938 502.148438 C 291.167969 501.714844 290.132812 501.257812 289.109375 500.773438 C 288.089844 500.289062 287.078125 499.777344 286.082031 499.246094 C 285.082031 498.710938 284.097656 498.152344 283.128906 497.570312 C 282.160156 496.988281 281.203125 496.386719 280.261719 495.757812 C 279.324219 495.128906 278.398438 494.476562 277.488281 493.800781 C 276.582031 493.128906 275.691406 492.433594 274.816406 491.714844 C 273.941406 490.996094 273.085938 490.257812 272.246094 489.496094 C 271.410156 488.738281 270.589844 487.957031 269.789062 487.15625 C 268.988281 486.359375 268.210938 485.539062 267.449219 484.699219 C 266.691406 483.863281 265.953125 483.007812 265.234375 482.132812 C 264.515625 481.257812 263.820312 480.367188 263.144531 479.457031 C 262.472656 478.550781 261.820312 477.625 261.191406 476.683594 C 260.5625 475.742188 259.957031 474.789062 259.375 473.820312 C 258.792969 472.847656 258.234375 471.863281 257.703125 470.867188 C 257.167969 469.871094 256.660156 468.859375 256.175781 467.835938 C 255.691406 466.816406 255.234375 465.78125 254.800781 464.734375 C 254.367188 463.691406 253.957031 462.636719 253.578125 461.570312 C 253.195312 460.507812 252.839844 459.433594 252.511719 458.351562 C 252.179688 457.269531 251.878906 456.179688 251.601562 455.082031 C 251.328125 453.984375 251.078125 452.878906 250.859375 451.769531 C 250.636719 450.660156 250.441406 449.546875 250.273438 448.429688 C 250.109375 447.308594 249.96875 446.1875 249.855469 445.0625 C 249.746094 443.9375 249.660156 442.808594 249.605469 441.679688 C 249.546875 440.546875 249.519531 439.417969 249.515625 438.285156 L 249.515625 161.710938 C 249.519531 160.582031 249.546875 159.449219 249.605469 158.320312 C 249.660156 157.191406 249.746094 156.0625 249.855469 154.9375 C 249.96875 153.8125 250.109375 152.6875 250.273438 151.570312 C 250.441406 150.453125 250.636719 149.335938 250.859375 148.226562 C 251.078125 147.117188 251.328125 146.015625 251.601562 144.917969 C 251.878906 143.820312 252.179688 142.730469 252.511719 141.648438 C 252.839844 140.566406 253.195312 139.492188 253.578125 138.429688 C 253.957031 137.363281 254.367188 136.308594 254.800781 135.261719 C 255.234375 134.21875 255.691406 133.183594 256.175781 132.160156 C 256.660156 131.140625 257.167969 130.128906 257.703125 129.132812 C 258.234375 128.132812 258.792969 127.152344 259.375 126.179688 C 259.957031 125.210938 260.5625 124.253906 261.191406 123.316406 C 261.820312 122.375 262.472656 121.449219 263.144531 120.542969 C 263.820312 119.632812 264.515625 118.742188 265.234375 117.867188 C 265.953125 116.992188 266.691406 116.136719 267.449219 115.296875 C 268.210938 114.460938 268.988281 113.640625 269.789062 112.839844 C 270.589844 112.039062 271.410156 111.261719 272.246094 110.5 C 273.085938 109.742188 273.941406 109.003906 274.816406 108.285156 C 275.691406 107.566406 276.582031 106.871094 277.488281 106.195312 C 278.398438 105.523438 279.324219 104.871094 280.261719 104.242188 C 281.203125 103.613281 282.160156 103.007812 283.128906 102.425781 C 284.097656 101.84375 285.082031 101.289062 286.082031 100.753906 C 287.078125 100.21875 288.089844 99.710938 289.109375 99.226562 C 290.132812 98.742188 291.167969 98.285156 292.210938 97.851562 C 293.257812 97.417969 294.3125 97.007812 295.375 96.628906 C 296.441406 96.246094 297.515625 95.890625 298.597656 95.5625 C 299.679688 95.234375 300.769531 94.929688 301.867188 94.65625 C 302.964844 94.378906 304.066406 94.128906 305.175781 93.910156 C 306.285156 93.6875 307.398438 93.492188 308.519531 93.324219 C 309.636719 93.160156 310.761719 93.019531 311.886719 92.90625 C 313.011719 92.796875 314.140625 92.710938 315.269531 92.65625 C 316.398438 92.597656 317.53125 92.570312 318.660156 92.570312 L 479.996094 92.570312 C 481.128906 92.570312 482.257812 92.597656 483.386719 92.65625 C 484.519531 92.710938 485.644531 92.796875 486.769531 92.90625 C 487.898438 93.019531 489.019531 93.160156 490.136719 93.324219 C 491.257812 93.492188 492.371094 93.6875 493.480469 93.910156 C 494.589844 94.128906 495.691406 94.378906 496.789062 94.65625 C 497.886719 94.929688 498.976562 95.234375 500.058594 95.5625 C 501.140625 95.890625 502.214844 96.246094 503.28125 96.628906 C 504.34375 97.007812 505.402344 97.417969 506.445312 97.851562 C 507.492188 98.285156 508.523438 98.742188 509.546875 99.226562 C 510.570312 99.710938 511.578125 100.21875 512.578125 100.753906 C 513.574219 101.289062 514.558594 101.84375 515.527344 102.425781 C 516.496094 103.007812 517.453125 103.613281 518.394531 104.242188 C 519.335938 104.871094 520.257812 105.523438 521.167969 106.195312 C 522.074219 106.871094 522.96875 107.566406 523.839844 108.285156 C 524.714844 109.003906 525.574219 109.742188 526.410156 110.5 C 527.25 111.261719 528.066406 112.039062 528.867188 112.839844 C 529.667969 113.640625 530.449219 114.460938 531.207031 115.296875 C 531.96875 116.136719 532.707031 116.992188 533.421875 117.867188 C 534.140625 118.742188 534.835938 119.632812 535.511719 120.542969 C 536.183594 121.449219 536.835938 122.375 537.464844 123.316406 C 538.09375 124.253906 538.699219 125.210938 539.28125 126.179688 C 539.863281 127.152344 540.421875 128.132812 540.953125 129.132812 C 541.488281 130.128906 541.996094 131.140625 542.480469 132.160156 C 542.964844 133.183594 543.425781 134.21875 543.859375 135.261719 C 544.292969 136.308594 544.699219 137.363281 545.082031 138.429688 C 545.460938 139.492188 545.816406 140.566406 546.148438 141.648438 C 546.476562 142.730469 546.777344 143.820312 547.054688 144.917969 C 547.328125 146.015625 547.578125 147.117188 547.800781 148.226562 C 548.019531 149.335938 548.214844 150.453125 548.382812 151.570312 C 548.550781 152.6875 548.6875 153.8125 548.800781 154.9375 C 548.914062 156.0625 548.996094 157.191406 549.054688 158.320312 C 549.109375 159.449219 549.136719 160.582031 549.140625 161.710938 L 549.140625 207.808594 C 549.140625 208.5625 549.101562 209.316406 549.027344 210.066406 C 548.953125 210.816406 548.84375 211.5625 548.695312 212.304688 C 548.550781 213.042969 548.367188 213.777344 548.148438 214.5 C 547.929688 215.222656 547.675781 215.929688 547.386719 216.628906 C 547.097656 217.324219 546.773438 218.007812 546.417969 218.671875 C 546.0625 219.339844 545.675781 219.984375 545.253906 220.613281 C 544.835938 221.242188 544.386719 221.847656 543.90625 222.429688 C 543.429688 223.011719 542.921875 223.570312 542.390625 224.105469 C 541.855469 224.640625 541.296875 225.144531 540.714844 225.625 C 540.128906 226.101562 539.523438 226.550781 538.894531 226.972656 C 538.269531 227.390625 537.621094 227.777344 536.957031 228.132812 C 536.289062 228.488281 535.609375 228.8125 534.910156 229.101562 C 534.214844 229.390625 533.503906 229.644531 532.78125 229.863281 C 532.058594 230.082031 531.328125 230.265625 530.589844 230.414062 C 529.847656 230.558594 529.101562 230.671875 528.351562 230.746094 C 527.601562 230.820312 526.847656 230.855469 526.089844 230.855469 C 525.335938 230.855469 524.582031 230.820312 523.832031 230.746094 C 523.082031 230.671875 522.335938 230.558594 521.59375 230.414062 C 520.855469 230.265625 520.125 230.082031 519.402344 229.863281 C 518.679688 229.644531 517.96875 229.390625 517.273438 229.101562 C 516.574219 228.8125 515.894531 228.488281 515.226562 228.132812 C 514.5625 227.777344 513.914062 227.390625 513.285156 226.972656 C 512.660156 226.550781 512.054688 226.101562 511.46875 225.625 C 510.886719 225.144531 510.328125 224.640625 509.792969 224.105469 C 509.261719 223.570312 508.753906 223.011719 508.277344 222.429688 C 507.796875 221.847656 507.347656 221.242188 506.929688 220.613281 C 506.507812 219.984375 506.121094 219.339844 505.765625 218.671875 C 505.410156 218.007812 505.085938 217.324219 504.796875 216.628906 C 504.507812 215.929688 504.253906 215.222656 504.035156 214.5 C 503.816406 213.777344 503.632812 213.042969 503.488281 212.304688 C 503.339844 211.5625 503.230469 210.816406 503.15625 210.066406 C 503.082031 209.316406 503.042969 208.5625 503.042969 207.808594 L 503.042969 161.710938 C 503.042969 160.957031 503.007812 160.203125 502.933594 159.453125 C 502.859375 158.703125 502.75 157.957031 502.601562 157.214844 C 502.453125 156.476562 502.269531 155.746094 502.050781 155.023438 C 501.832031 154.300781 501.578125 153.589844 501.289062 152.890625 C 501 152.195312 500.679688 151.511719 500.324219 150.847656 C 499.964844 150.183594 499.578125 149.535156 499.160156 148.90625 C 498.738281 148.28125 498.292969 147.675781 497.8125 147.089844 C 497.332031 146.507812 496.828125 145.949219 496.292969 145.414062 C 495.757812 144.882812 495.199219 144.375 494.617188 143.894531 C 494.035156 143.417969 493.429688 142.96875 492.800781 142.546875 C 492.171875 142.128906 491.527344 141.742188 490.859375 141.386719 C 490.195312 141.03125 489.511719 140.707031 488.816406 140.417969 C 488.117188 140.128906 487.410156 139.875 486.6875 139.65625 C 485.964844 139.4375 485.234375 139.253906 484.492188 139.105469 C 483.753906 138.960938 483.007812 138.847656 482.253906 138.777344 C 481.503906 138.703125 480.75 138.664062 479.996094 138.664062 L 318.660156 138.664062 C 317.90625 138.664062 317.152344 138.703125 316.402344 138.777344 C 315.652344 138.847656 314.90625 138.960938 314.164062 139.105469 C 313.425781 139.253906 312.691406 139.4375 311.96875 139.65625 C 311.25 139.875 310.539062 140.128906 309.839844 140.417969 C 309.144531 140.707031 308.460938 141.03125 307.796875 141.386719 C 307.128906 141.742188 306.484375 142.128906 305.855469 142.546875 C 305.230469 142.96875 304.625 143.417969 304.039062 143.894531 C 303.457031 144.375 302.898438 144.882812 302.363281 145.414062 C 301.828125 145.949219 301.324219 146.507812 300.84375 147.089844 C 300.367188 147.675781 299.917969 148.28125 299.496094 148.90625 C 299.078125 149.535156 298.691406 150.183594 298.335938 150.847656 C 297.980469 151.511719 297.65625 152.195312 297.367188 152.890625 C 297.078125 153.589844 296.824219 154.300781 296.605469 155.023438 C 296.386719 155.746094 296.203125 156.476562 296.054688 157.214844 C 295.910156 157.957031 295.796875 158.703125 295.722656 159.453125 C 295.648438 160.203125 295.613281 160.957031 295.613281 161.710938 L 295.613281 438.285156 C 295.613281 439.042969 295.648438 439.792969 295.722656 440.546875 C 295.796875 441.296875 295.910156 442.042969 296.054688 442.78125 C 296.203125 443.523438 296.386719 444.253906 296.605469 444.976562 C 296.824219 445.699219 297.078125 446.410156 297.367188 447.105469 C 297.65625 447.804688 297.980469 448.484375 298.335938 449.152344 C 298.691406 449.816406 299.078125 450.464844 299.496094 451.089844 C 299.917969 451.71875 300.367188 452.324219 300.84375 452.90625 C 301.324219 453.492188 301.828125 454.050781 302.363281 454.582031 C 302.898438 455.117188 303.457031 455.625 304.039062 456.101562 C 304.625 456.582031 305.230469 457.03125 305.855469 457.449219 C 306.484375 457.871094 307.128906 458.257812 307.796875 458.613281 C 308.460938 458.96875 309.144531 459.289062 309.839844 459.578125 C 310.539062 459.867188 311.25 460.121094 311.96875 460.34375 C 312.691406 460.5625 313.425781 460.746094 314.164062 460.890625 C 314.90625 461.039062 315.652344 461.148438 316.402344 461.222656 C 317.152344 461.296875 317.90625 461.335938 318.660156 461.335938 L 479.996094 461.335938 C 480.75 461.335938 481.503906 461.296875 482.253906 461.222656 C 483.007812 461.148438 483.753906 461.039062 484.492188 460.890625 C 485.234375 460.746094 485.964844 460.5625 486.6875 460.34375 C 487.410156 460.121094 488.117188 459.867188 488.816406 459.578125 C 489.511719 459.289062 490.195312 458.96875 490.859375 458.613281 C 491.527344 458.257812 492.171875 457.871094 492.800781 457.449219 C 493.429688 457.03125 494.035156 456.582031 494.617188 456.101562 C 495.199219 455.625 495.757812 455.117188 496.292969 454.582031 C 496.828125 454.050781 497.332031 453.492188 497.8125 452.90625 C 498.292969 452.324219 498.738281 451.71875 499.160156 451.089844 C 499.578125 450.464844 499.964844 449.816406 500.324219 449.152344 C 500.679688 448.484375 501 447.804688 501.289062 447.105469 C 501.578125 446.410156 501.832031 445.699219 502.050781 444.976562 C 502.269531 444.253906 502.453125 443.523438 502.601562 442.78125 C 502.75 442.042969 502.859375 441.296875 502.933594 440.546875 C 503.007812 439.792969 503.042969 439.042969 503.042969 438.285156 L 503.042969 392.191406 C 503.042969 391.4375 503.082031 390.683594 503.15625 389.933594 C 503.230469 389.179688 503.339844 388.433594 503.488281 387.695312 C 503.632812 386.953125 503.816406 386.222656 504.035156 385.5 C 504.253906 384.777344 504.507812 384.066406 504.796875 383.371094 C 505.085938 382.671875 505.410156 381.992188 505.765625 381.324219 C 506.121094 380.660156 506.507812 380.015625 506.929688 379.386719 C 507.347656 378.757812 507.796875 378.152344 508.277344 377.570312 C 508.753906 376.984375 509.261719 376.425781 509.792969 375.894531 C 510.328125 375.359375 510.886719 374.851562 511.46875 374.375 C 512.054688 373.894531 512.660156 373.445312 513.285156 373.027344 C 513.914062 372.609375 514.5625 372.21875 515.226562 371.863281 C 515.894531 371.507812 516.574219 371.1875 517.273438 370.898438 C 517.96875 370.609375 518.679688 370.355469 519.402344 370.136719 C 520.125 369.917969 520.855469 369.734375 521.59375 369.585938 C 522.335938 369.4375 523.082031 369.328125 523.832031 369.253906 C 524.582031 369.179688 525.335938 369.144531 526.089844 369.144531 C 526.847656 369.144531 527.601562 369.179688 528.351562 369.253906 C 529.101562 369.328125 529.847656 369.4375 530.589844 369.585938 C 531.328125 369.734375 532.058594 369.917969 532.78125 370.136719 C 533.503906 370.355469 534.214844 370.609375 534.910156 370.898438 C 535.609375 371.1875 536.289062 371.507812 536.957031 371.863281 C 537.621094 372.21875 538.269531 372.609375 538.894531 373.027344 C 539.523438 373.445312 540.128906 373.894531 540.714844 374.375 C 541.296875 374.851562 541.855469 375.359375 542.390625 375.894531 C 542.921875 376.425781 543.429688 376.984375 543.90625 377.570312 C 544.386719 378.152344 544.835938 378.757812 545.253906 379.386719 C 545.675781 380.015625 546.0625 380.660156 546.417969 381.324219 C 546.773438 381.992188 547.097656 382.671875 547.386719 383.371094 C 547.675781 384.066406 547.929688 384.777344 548.148438 385.5 C 548.367188 386.222656 548.550781 386.953125 548.695312 387.695312 C 548.84375 388.433594 548.953125 389.179688 549.027344 389.933594 C 549.101562 390.683594 549.140625 391.4375 549.140625 392.191406 L 549.140625 438.285156 C 549.136719 439.417969 549.109375 440.546875 549.054688 441.679688 C 548.996094 442.808594 548.914062 443.9375 548.800781 445.0625 C 548.6875 446.1875 548.550781 447.308594 548.382812 448.429688 C 548.214844 449.546875 548.019531 450.660156 547.800781 451.769531 C 547.578125 452.878906 547.328125 453.984375 547.054688 455.082031 C 546.777344 456.179688 546.476562 457.269531 546.148438 458.351562 C 545.816406 459.433594 545.460938 460.507812 545.082031 461.570312 C 544.699219 462.636719 544.292969 463.691406 543.859375 464.734375 C 543.425781 465.78125 542.964844 466.816406 542.480469 467.835938 C 541.996094 468.859375 541.488281 469.871094 540.953125 470.867188 C 540.421875 471.863281 539.863281 472.847656 539.28125 473.820312 C 538.699219 474.789062 538.09375 475.742188 537.464844 476.683594 C 536.835938 477.625 536.183594 478.550781 535.511719 479.457031 C 534.835938 480.367188 534.140625 481.257812 533.421875 482.132812 C 532.707031 483.007812 531.96875 483.863281 531.207031 484.699219 C 530.449219 485.539062 529.667969 486.359375 528.867188 487.15625 C 528.066406 487.957031 527.25 488.738281 526.410156 489.496094 C 525.574219 490.257812 524.714844 490.996094 523.839844 491.714844 C 522.96875 492.433594 522.074219 493.128906 521.167969 493.800781 C 520.257812 494.476562 519.335938 495.128906 518.394531 495.757812 C 517.453125 496.386719 516.496094 496.988281 515.527344 497.570312 C 514.558594 498.152344 513.574219 498.710938 512.578125 499.246094 C 511.578125 499.777344 510.570312 500.289062 509.546875 500.773438 C 508.523438 501.257812 507.492188 501.714844 506.445312 502.148438 C 505.402344 502.582031 504.34375 502.988281 503.28125 503.371094 C 502.214844 503.753906 501.140625 504.109375 500.058594 504.4375 C 498.976562 504.765625 497.886719 505.070312 496.789062 505.34375 C 495.691406 505.621094 494.589844 505.867188 493.480469 506.089844 C 492.371094 506.3125 491.257812 506.503906 490.136719 506.671875 C 489.019531 506.839844 487.898438 506.980469 486.769531 507.089844 C 485.644531 507.203125 484.519531 507.285156 483.386719 507.34375 C 482.257812 507.398438 481.128906 507.429688 479.996094 507.429688 Z M 479.996094 507.429688 " fill-opacity="1" fill-rule="nonzero"/></g><g clip-path="url(#0aa54d4e87)"><path fill="#231f20" d="M 618.28125 392.191406 C 617.148438 392.191406 616.023438 392.105469 614.902344 391.941406 C 613.78125 391.773438 612.679688 391.527344 611.59375 391.195312 C 610.507812 390.867188 609.457031 390.460938 608.429688 389.976562 C 607.40625 389.492188 606.421875 388.933594 605.480469 388.304688 C 604.539062 387.675781 603.648438 386.980469 602.808594 386.21875 C 601.96875 385.457031 601.191406 384.640625 600.472656 383.761719 C 599.75 382.886719 599.101562 381.960938 598.519531 380.992188 C 597.9375 380.019531 597.429688 379.007812 596.996094 377.960938 C 596.5625 376.914062 596.207031 375.84375 595.929688 374.742188 C 595.65625 373.644531 595.460938 372.53125 595.351562 371.402344 C 595.238281 370.273438 595.210938 369.144531 595.269531 368.011719 C 595.324219 366.882812 595.460938 365.757812 595.683594 364.648438 C 595.902344 363.535156 596.207031 362.445312 596.585938 361.378906 C 596.96875 360.3125 597.425781 359.28125 597.960938 358.28125 C 598.496094 357.28125 599.097656 356.324219 599.773438 355.414062 C 600.449219 354.503906 601.1875 353.648438 601.988281 352.847656 L 631.789062 323.046875 L 364.757812 323.046875 C 364.003906 323.046875 363.25 323.011719 362.496094 322.9375 C 361.746094 322.863281 361 322.75 360.261719 322.605469 C 359.519531 322.457031 358.789062 322.273438 358.066406 322.054688 C 357.34375 321.835938 356.632812 321.582031 355.9375 321.292969 C 355.238281 321.003906 354.558594 320.679688 353.890625 320.324219 C 353.226562 319.96875 352.578125 319.582031 351.953125 319.164062 C 351.324219 318.742188 350.71875 318.292969 350.136719 317.816406 C 349.550781 317.335938 348.992188 316.832031 348.460938 316.296875 C 347.925781 315.761719 347.417969 315.203125 346.941406 314.621094 C 346.460938 314.039062 346.011719 313.433594 345.59375 312.804688 C 345.171875 312.175781 344.785156 311.53125 344.429688 310.863281 C 344.074219 310.199219 343.753906 309.515625 343.464844 308.820312 C 343.175781 308.121094 342.921875 307.414062 342.703125 306.691406 C 342.480469 305.96875 342.300781 305.234375 342.152344 304.496094 C 342.003906 303.753906 341.894531 303.007812 341.820312 302.257812 C 341.746094 301.507812 341.707031 300.753906 341.707031 300 C 341.707031 299.246094 341.746094 298.492188 341.820312 297.742188 C 341.894531 296.988281 342.003906 296.242188 342.152344 295.503906 C 342.300781 294.761719 342.480469 294.03125 342.703125 293.308594 C 342.921875 292.585938 343.175781 291.875 343.464844 291.179688 C 343.753906 290.480469 344.074219 289.800781 344.429688 289.132812 C 344.785156 288.46875 345.171875 287.824219 345.59375 287.195312 C 346.011719 286.566406 346.460938 285.960938 346.941406 285.378906 C 347.417969 284.792969 347.925781 284.234375 348.460938 283.703125 C 348.992188 283.167969 349.550781 282.660156 350.136719 282.183594 C 350.71875 281.703125 351.324219 281.253906 351.953125 280.835938 C 352.578125 280.417969 353.226562 280.027344 353.890625 279.671875 C 354.558594 279.316406 355.238281 278.996094 355.9375 278.707031 C 356.632812 278.417969 357.34375 278.164062 358.066406 277.945312 C 358.789062 277.726562 359.519531 277.542969 360.261719 277.394531 C 361 277.246094 361.746094 277.136719 362.496094 277.0625 C 363.25 276.988281 364.003906 276.953125 364.757812 276.953125 L 631.789062 276.953125 L 601.988281 247.152344 C 601.46875 246.613281 600.976562 246.054688 600.515625 245.46875 C 600.050781 244.882812 599.617188 244.277344 599.210938 243.652344 C 598.804688 243.023438 598.429688 242.378906 598.089844 241.714844 C 597.746094 241.050781 597.4375 240.375 597.160156 239.679688 C 596.882812 238.988281 596.640625 238.28125 596.433594 237.566406 C 596.222656 236.847656 596.050781 236.125 595.914062 235.390625 C 595.777344 234.65625 595.675781 233.917969 595.609375 233.175781 C 595.542969 232.429688 595.511719 231.683594 595.519531 230.9375 C 595.527344 230.191406 595.570312 229.449219 595.648438 228.707031 C 595.726562 227.964844 595.839844 227.226562 595.992188 226.496094 C 596.140625 225.765625 596.328125 225.042969 596.546875 224.328125 C 596.769531 223.617188 597.023438 222.914062 597.3125 222.226562 C 597.601562 221.539062 597.921875 220.867188 598.277344 220.207031 C 598.628906 219.550781 599.015625 218.914062 599.429688 218.292969 C 599.847656 217.671875 600.292969 217.074219 600.765625 216.5 C 601.242188 215.921875 601.742188 215.371094 602.269531 214.839844 C 602.796875 214.3125 603.347656 213.8125 603.925781 213.339844 C 604.503906 212.863281 605.101562 212.417969 605.71875 212.003906 C 606.339844 211.585938 606.976562 211.203125 607.636719 210.847656 C 608.292969 210.496094 608.964844 210.171875 609.652344 209.882812 C 610.34375 209.59375 611.042969 209.339844 611.757812 209.121094 C 612.46875 208.898438 613.191406 208.714844 613.921875 208.5625 C 614.652344 208.414062 615.390625 208.300781 616.132812 208.21875 C 616.875 208.140625 617.621094 208.097656 618.367188 208.09375 C 619.113281 208.085938 619.859375 208.117188 620.601562 208.179688 C 621.34375 208.246094 622.082031 208.347656 622.816406 208.488281 C 623.550781 208.625 624.277344 208.796875 624.992188 209.003906 C 625.710938 209.214844 626.414062 209.457031 627.109375 209.734375 C 627.800781 210.007812 628.480469 210.320312 629.144531 210.660156 C 629.804688 211.003906 630.453125 211.378906 631.078125 211.78125 C 631.707031 212.1875 632.3125 212.621094 632.894531 213.085938 C 633.480469 213.550781 634.042969 214.042969 634.578125 214.5625 L 703.722656 283.703125 C 705.699219 285.660156 707.265625 287.902344 708.429688 290.425781 C 709.59375 292.953125 710.273438 295.601562 710.472656 298.375 C 710.589844 299.914062 710.542969 301.453125 710.335938 302.984375 C 710.050781 305.203125 709.453125 307.335938 708.542969 309.378906 C 707.632812 311.421875 706.445312 313.292969 704.988281 314.992188 C 704.550781 315.488281 704.113281 315.960938 703.652344 316.421875 L 634.636719 385.425781 C 633.5625 386.503906 632.398438 387.464844 631.136719 388.308594 C 629.875 389.152344 628.539062 389.867188 627.136719 390.449219 C 625.734375 391.027344 624.285156 391.464844 622.796875 391.757812 C 621.304688 392.050781 619.800781 392.195312 618.28125 392.191406 Z M 618.28125 392.191406 " fill-opacity="1" fill-rule="nonzero"/></g></svg>