<svg xmlns="http://www.w3.org/2000/svg" xmlns:xlink="http://www.w3.org/1999/xlink" width="1280" zoomAndPan="magnify" viewBox="0 0 960 599.999999" height="800" preserveAspectRatio="xMidYMid meet" version="1.0"><defs><clipPath id="f3e6504bc9"><path d="M 375 299 L 584 299 L 584 580.675781 L 375 580.675781 Z M 375 299 " clip-rule="nonzero"/></clipPath><clipPath id="12b5e189bc"><path d="M 375 19.675781 L 584 19.675781 L 584 300 L 375 300 Z M 375 19.675781 " clip-rule="nonzero"/></clipPath><clipPath id="3aa65feda9"><path d="M 199.675781 196 L 480 196 L 480 405 L 199.675781 405 Z M 199.675781 196 " clip-rule="nonzero"/></clipPath><clipPath id="c5a10268de"><path d="M 479 196 L 760.675781 196 L 760.675781 405 L 479 405 Z M 479 196 " clip-rule="nonzero"/></clipPath></defs><g clip-path="url(#f3e6504bc9)"><path fill="#75afff" d="M 541.066406 580.027344 L 418.785156 580.027344 C 395.183594 580.027344 375.878906 560.722656 375.878906 537.121094 L 375.878906 477.769531 L 404.480469 477.769531 L 404.480469 537.121094 C 404.480469 544.988281 410.917969 551.425781 418.785156 551.425781 L 541.066406 551.425781 C 548.929688 551.425781 555.367188 544.988281 555.367188 537.121094 L 555.367188 299.996094 L 583.972656 299.996094 L 583.972656 537.121094 C 583.972656 560.722656 564.804688 580.027344 541.066406 580.027344 Z M 541.066406 580.027344 " fill-opacity="1" fill-rule="nonzero"/></g><g clip-path="url(#12b5e189bc)"><path fill="#ffffff" d="M 404.480469 299.996094 L 375.878906 299.996094 L 375.878906 62.871094 C 375.878906 39.269531 395.183594 19.964844 418.785156 19.964844 L 541.066406 19.964844 C 564.664062 19.964844 583.972656 39.269531 583.972656 62.871094 L 583.972656 122.222656 L 555.367188 122.222656 L 555.367188 62.871094 C 555.367188 55.003906 548.929688 48.566406 541.066406 48.566406 L 418.785156 48.566406 C 410.917969 48.566406 404.480469 55.003906 404.480469 62.871094 Z M 404.480469 299.996094 " fill-opacity="1" fill-rule="nonzero"/></g><g clip-path="url(#3aa65feda9)"><path fill="#ffffff" d="M 479.996094 404.113281 L 242.871094 404.113281 C 219.269531 404.113281 199.964844 384.804688 199.964844 361.207031 L 199.964844 238.925781 C 199.964844 215.328125 219.269531 196.019531 242.871094 196.019531 L 302.222656 196.019531 L 302.222656 224.625 L 242.871094 224.625 C 235.003906 224.625 228.566406 231.0625 228.566406 238.925781 L 228.566406 361.207031 C 228.566406 369.074219 235.003906 375.511719 242.871094 375.511719 L 479.996094 375.511719 Z M 479.996094 404.113281 " fill-opacity="1" fill-rule="nonzero"/></g><g clip-path="url(#c5a10268de)"><path fill="#75afff" d="M 717.121094 404.113281 L 657.769531 404.113281 L 657.769531 375.511719 L 717.121094 375.511719 C 724.988281 375.511719 731.425781 369.074219 731.425781 361.207031 L 731.425781 238.925781 C 731.425781 231.0625 724.988281 224.625 717.121094 224.625 L 479.996094 224.625 L 479.996094 196.019531 L 717.121094 196.019531 C 740.71875 196.019531 760.027344 215.328125 760.027344 238.925781 L 760.027344 361.207031 C 760.027344 384.804688 740.71875 404.113281 717.121094 404.113281 Z M 717.121094 404.113281 " fill-opacity="1" fill-rule="nonzero"/></g></svg>