<svg xmlns="http://www.w3.org/2000/svg" xmlns:xlink="http://www.w3.org/1999/xlink" width="1280" zoomAndPan="magnify" viewBox="0 0 960 599.999999" height="800" preserveAspectRatio="xMidYMid meet" version="1.0"><defs><clipPath id="72a37de371"><path d="M 222 109.582031 L 737 109.582031 L 737 319 L 222 319 Z M 222 109.582031 " clip-rule="nonzero"/></clipPath><clipPath id="0d44065aa0"><path d="M 213.214844 174 L 746.464844 174 L 746.464844 490.582031 L 213.214844 490.582031 Z M 213.214844 174 " clip-rule="nonzero"/></clipPath></defs><g clip-path="url(#72a37de371)"><path fill="#193e80" d="M 445.097656 306.242188 C 446.335938 307.191406 447.613281 308.09375 448.925781 308.9375 C 450.238281 309.785156 451.585938 310.578125 452.964844 311.316406 C 454.34375 312.050781 455.746094 312.730469 457.183594 313.351562 C 458.617188 313.976562 460.070312 314.535156 461.550781 315.039062 C 463.03125 315.542969 464.53125 315.984375 466.046875 316.363281 C 467.5625 316.742188 469.089844 317.058594 470.632812 317.3125 C 472.175781 317.570312 473.722656 317.761719 475.28125 317.886719 C 476.839844 318.015625 478.398438 318.078125 479.960938 318.078125 C 481.523438 318.078125 483.085938 318.015625 484.640625 317.886719 C 486.199219 317.761719 487.75 317.570312 489.292969 317.3125 C 490.832031 317.058594 492.363281 316.742188 493.878906 316.363281 C 495.394531 315.984375 496.890625 315.542969 498.371094 315.039062 C 499.851562 314.535156 501.308594 313.976562 502.742188 313.351562 C 504.175781 312.730469 505.582031 312.050781 506.960938 311.316406 C 508.339844 310.578125 509.683594 309.785156 510.996094 308.9375 C 512.308594 308.09375 513.585938 307.191406 514.828125 306.242188 L 736.085938 133.84375 C 734.777344 131.976562 733.363281 130.195312 731.839844 128.5 C 730.316406 126.800781 728.699219 125.203125 726.984375 123.699219 C 725.269531 122.199219 723.472656 120.804688 721.589844 119.519531 C 719.707031 118.230469 717.757812 117.0625 715.734375 116.011719 C 713.714844 114.960938 711.636719 114.03125 709.503906 113.230469 C 707.367188 112.425781 705.195312 111.753906 702.980469 111.214844 C 700.765625 110.671875 698.527344 110.265625 696.265625 109.992188 C 694.003906 109.71875 691.730469 109.582031 689.453125 109.582031 L 270.546875 109.582031 C 268.132812 109.589844 265.730469 109.746094 263.335938 110.058594 C 260.941406 110.367188 258.578125 110.828125 256.242188 111.441406 C 253.910156 112.054688 251.621094 112.808594 249.382812 113.710938 C 247.144531 114.613281 244.972656 115.652344 242.867188 116.832031 C 240.761719 118.007812 238.738281 119.316406 236.796875 120.75 C 234.855469 122.1875 233.015625 123.738281 231.269531 125.40625 C 229.527344 127.078125 227.898438 128.851562 226.378906 130.726562 C 224.863281 132.601562 223.46875 134.570312 222.199219 136.621094 Z M 445.097656 306.242188 " fill-opacity="1" fill-rule="nonzero"/></g><g clip-path="url(#0d44065aa0)"><path fill="#193e80" d="M 538.152344 336.421875 C 536.085938 338.007812 533.960938 339.503906 531.773438 340.917969 C 529.585938 342.328125 527.34375 343.648438 525.046875 344.875 C 522.753906 346.101562 520.410156 347.234375 518.023438 348.269531 C 515.632812 349.308594 513.207031 350.242188 510.742188 351.082031 C 508.277344 351.917969 505.78125 352.652344 503.257812 353.285156 C 500.734375 353.917969 498.1875 354.445312 495.617188 354.871094 C 493.050781 355.296875 490.46875 355.613281 487.871094 355.828125 C 485.277344 356.039062 482.679688 356.144531 480.074219 356.144531 C 477.472656 356.144531 474.875 356.039062 472.28125 355.828125 C 469.683594 355.613281 467.101562 355.296875 464.535156 354.871094 C 461.964844 354.445312 459.417969 353.917969 456.894531 353.285156 C 454.371094 352.652344 451.875 351.917969 449.410156 351.082031 C 446.945312 350.242188 444.515625 349.308594 442.128906 348.269531 C 439.742188 347.234375 437.398438 346.101562 435.101562 344.875 C 432.808594 343.648438 430.566406 342.328125 428.378906 340.917969 C 426.191406 339.503906 424.066406 338.007812 422 336.421875 L 213.421875 177.808594 L 213.421875 433.285156 C 213.421875 435.15625 213.515625 437.019531 213.699219 438.882812 C 213.882812 440.746094 214.15625 442.59375 214.519531 444.429688 C 214.886719 446.261719 215.339844 448.074219 215.882812 449.867188 C 216.425781 451.65625 217.054688 453.414062 217.769531 455.144531 C 218.488281 456.871094 219.285156 458.5625 220.167969 460.210938 C 221.050781 461.863281 222.011719 463.464844 223.050781 465.019531 C 224.089844 466.574219 225.203125 468.078125 226.390625 469.523438 C 227.578125 470.96875 228.832031 472.355469 230.152344 473.675781 C 231.476562 475 232.863281 476.253906 234.308594 477.441406 C 235.753906 478.628906 237.253906 479.742188 238.808594 480.78125 C 240.367188 481.820312 241.96875 482.78125 243.617188 483.664062 C 245.269531 484.542969 246.957031 485.34375 248.6875 486.058594 C 250.414062 486.773438 252.175781 487.40625 253.964844 487.949219 C 255.753906 488.492188 257.566406 488.945312 259.402344 489.308594 C 261.238281 489.675781 263.085938 489.949219 264.949219 490.132812 C 266.808594 490.316406 268.675781 490.40625 270.546875 490.40625 L 689.453125 490.40625 C 691.324219 490.40625 693.191406 490.316406 695.050781 490.132812 C 696.914062 489.949219 698.761719 489.675781 700.597656 489.308594 C 702.433594 488.945312 704.246094 488.492188 706.035156 487.949219 C 707.824219 487.40625 709.585938 486.773438 711.3125 486.058594 C 713.042969 485.34375 714.730469 484.542969 716.382812 483.664062 C 718.03125 482.78125 719.632812 481.820312 721.1875 480.78125 C 722.746094 479.742188 724.246094 478.628906 725.691406 477.441406 C 727.136719 476.253906 728.523438 475 729.84375 473.675781 C 731.167969 472.355469 732.421875 470.96875 733.609375 469.523438 C 734.796875 468.078125 735.910156 466.574219 736.949219 465.019531 C 737.988281 463.464844 738.949219 461.863281 739.832031 460.210938 C 740.714844 458.5625 741.511719 456.871094 742.230469 455.144531 C 742.945312 453.414062 743.574219 451.65625 744.117188 449.867188 C 744.660156 448.074219 745.113281 446.261719 745.480469 444.429688 C 745.84375 442.59375 746.117188 440.746094 746.300781 438.882812 C 746.484375 437.019531 746.578125 435.15625 746.578125 433.285156 L 746.578125 174.039062 Z M 538.152344 336.421875 " fill-opacity="1" fill-rule="nonzero"/></g></svg>