<svg xmlns="http://www.w3.org/2000/svg" xmlns:xlink="http://www.w3.org/1999/xlink" width="1280" zoomAndPan="magnify" viewBox="0 0 960 599.999999" height="800" preserveAspectRatio="xMidYMid meet" version="1.0"><defs><clipPath id="12ba6a9002"><path d="M 55 44.316406 L 906 44.316406 L 906 555 L 55 555 Z M 55 44.316406 " clip-rule="nonzero"/></clipPath></defs><path fill="#beced1" d="M 210.164062 203.007812 L 191.324219 152.566406 C 186.082031 138.824219 192.175781 123.519531 205.492188 117.144531 C 247.28125 96.882812 344.460938 58.484375 480.027344 58.484375 C 615.597656 58.484375 712.777344 96.882812 754.566406 117.144531 C 767.882812 123.519531 773.972656 138.824219 768.734375 152.566406 L 749.890625 203.007812 Z M 210.164062 203.007812 " fill-opacity="1" fill-rule="nonzero"/><path fill="#dbe3e5" d="M 70.601562 291.734375 C 66.636719 279.816406 71.378906 266.726562 82.160156 260.28125 C 132.621094 230.097656 283.617188 157.667969 480.027344 157.667969 C 676.441406 157.667969 827.4375 230.097656 877.894531 260.28125 C 888.675781 266.726562 893.421875 279.816406 889.457031 291.734375 L 812.773438 521.824219 C 807.460938 537.777344 789.046875 545.003906 774.355469 536.828125 C 725.722656 509.78125 617.171875 469.371094 480.027344 469.371094 C 342.886719 469.371094 234.347656 509.78125 185.699219 536.828125 C 170.996094 545.003906 152.59375 537.777344 147.28125 521.824219 Z M 70.601562 291.734375 " fill-opacity="1" fill-rule="nonzero"/><path fill="#ce4545" d="M 565.023438 292.273438 L 565.023438 334.78125 C 565.023438 338.675781 561.835938 341.863281 557.941406 341.863281 L 508.359375 341.863281 L 508.359375 391.457031 C 508.359375 395.351562 505.171875 398.539062 501.277344 398.539062 L 458.78125 398.539062 C 454.882812 398.539062 451.695312 395.351562 451.695312 391.457031 L 451.695312 341.863281 L 402.117188 341.863281 C 398.21875 341.863281 395.03125 338.675781 395.03125 334.78125 L 395.03125 292.273438 C 395.03125 288.375 398.21875 285.1875 402.117188 285.1875 L 451.695312 285.1875 L 451.695312 235.597656 C 451.695312 231.699219 454.882812 228.511719 458.78125 228.511719 L 501.277344 228.511719 C 505.171875 228.511719 508.359375 231.699219 508.359375 235.597656 L 508.359375 285.1875 L 557.941406 285.1875 C 561.835938 285.1875 565.023438 288.375 565.023438 292.273438 Z M 565.023438 292.273438 " fill-opacity="1" fill-rule="nonzero"/><path fill="#000000" d="M 501.277344 214.34375 L 458.78125 214.34375 C 447.0625 214.34375 437.53125 223.878906 437.53125 235.597656 L 437.53125 271.019531 L 402.117188 271.019531 C 390.398438 271.019531 380.867188 280.554688 380.867188 292.273438 L 380.867188 334.78125 C 380.867188 346.496094 390.398438 356.035156 402.117188 356.035156 L 437.53125 356.035156 L 437.53125 391.457031 C 437.53125 403.171875 447.0625 412.710938 458.78125 412.710938 L 501.277344 412.710938 C 512.992188 412.710938 522.527344 403.171875 522.527344 391.457031 L 522.527344 356.035156 L 557.941406 356.035156 C 569.65625 356.035156 579.191406 346.496094 579.191406 334.78125 L 579.191406 292.273438 C 579.191406 280.554688 569.65625 271.019531 557.941406 271.019531 L 522.527344 271.019531 L 522.527344 235.597656 C 522.527344 223.878906 512.992188 214.34375 501.277344 214.34375 Z M 550.859375 299.355469 L 550.859375 327.695312 L 508.359375 327.695312 C 500.527344 327.695312 494.195312 334.027344 494.195312 341.863281 L 494.195312 384.371094 L 465.863281 384.371094 L 465.863281 341.863281 C 465.863281 334.027344 459.53125 327.695312 451.695312 327.695312 L 409.199219 327.695312 L 409.199219 299.355469 L 451.695312 299.355469 C 459.53125 299.355469 465.863281 293.023438 465.863281 285.1875 L 465.863281 242.679688 L 494.195312 242.679688 L 494.195312 285.1875 C 494.195312 293.023438 500.527344 299.355469 508.359375 299.355469 Z M 550.859375 299.355469 " fill-opacity="1" fill-rule="nonzero"/><g clip-path="url(#12ba6a9002)"><path fill="#000000" d="M 885.175781 248.121094 C 871.621094 240.019531 830.269531 216.878906 768.222656 194.421875 L 781.976562 157.609375 C 789.898438 136.851562 780.746094 113.957031 760.757812 104.390625 C 714.460938 81.949219 616.433594 44.316406 480.042969 44.316406 C 343.652344 44.316406 245.609375 81.949219 199.386719 104.351562 C 179.324219 113.957031 170.175781 136.851562 178.066406 157.511719 L 191.847656 194.421875 C 129.800781 216.878906 88.449219 240.019531 74.894531 248.121094 C 58.320312 258.039062 51.023438 277.820312 57.171875 296.226562 L 133.851562 526.316406 C 137.71875 537.964844 146.503906 547.1875 157.90625 551.621094 C 169.269531 556.027344 181.917969 555.148438 192.597656 549.226562 C 202.558594 543.6875 219.601562 535.101562 244.25 525.691406 C 251.574219 522.902344 255.214844 514.710938 252.4375 507.402344 C 249.644531 500.0625 241.414062 496.476562 234.148438 499.210938 C 213.394531 507.144531 194.269531 515.875 178.816406 524.460938 C 174.355469 526.980469 170.21875 526.019531 168.164062 525.210938 C 166.09375 524.402344 162.371094 522.320312 160.710938 517.347656 L 84.03125 287.257812 C 82.132812 281.574219 84.355469 275.484375 89.441406 272.449219 C 106.652344 262.148438 263.796875 171.835938 480.027344 171.835938 C 696.257812 171.835938 853.402344 262.148438 870.613281 272.449219 C 875.6875 275.484375 877.925781 281.574219 876.027344 287.257812 L 799.34375 517.347656 C 797.6875 522.320312 793.960938 524.402344 791.894531 525.210938 C 789.839844 526.03125 785.71875 526.96875 781.242188 524.460938 C 760.445312 512.898438 648.207031 455.214844 480.027344 455.214844 C 416.183594 455.214844 352.960938 463.675781 292.117188 480.324219 C 284.578125 482.390625 280.132812 490.183594 282.199219 497.738281 C 284.269531 505.273438 292.085938 509.667969 299.609375 507.65625 C 358.003906 491.644531 418.703125 483.539062 480.015625 483.539062 C 605.015625 483.539062 712.976562 518.917969 767.445312 549.214844 C 773.632812 552.640625 780.460938 554.386719 787.332031 554.386719 C 792.332031 554.386719 797.347656 553.464844 802.136719 551.609375 C 813.554688 547.171875 822.324219 537.949219 826.191406 526.300781 L 902.871094 296.210938 C 909.019531 277.804688 901.722656 258.039062 885.148438 248.109375 Z M 218.664062 185.253906 L 204.585938 147.523438 C 201.964844 140.679688 204.996094 133.097656 211.695312 129.894531 C 255.78125 108.53125 349.304688 72.667969 480.042969 72.667969 C 610.78125 72.667969 704.304688 108.53125 748.460938 129.9375 C 755.089844 133.113281 758.121094 140.679688 755.472656 147.621094 L 741.421875 185.253906 C 672.660156 162.9375 583.425781 143.5 480.042969 143.5 C 376.660156 143.5 287.441406 162.925781 218.664062 185.242188 Z M 218.664062 185.253906 " fill-opacity="1" fill-rule="nonzero"/></g></svg>