<svg xmlns="http://www.w3.org/2000/svg" xmlns:xlink="http://www.w3.org/1999/xlink" width="1280" zoomAndPan="magnify" viewBox="0 0 960 599.999999" height="800" preserveAspectRatio="xMidYMid meet" version="1.0"><defs><clipPath id="a14d3b702d"><path d="M 171.402344 81.28125 L 788.652344 81.28125 L 788.652344 133 L 171.402344 133 Z M 171.402344 81.28125 " clip-rule="nonzero"/></clipPath><clipPath id="7528b57b46"><path d="M 171.402344 261 L 788.652344 261 L 788.652344 313 L 171.402344 313 Z M 171.402344 261 " clip-rule="nonzero"/></clipPath><clipPath id="2a18bacc42"><path d="M 171.402344 467 L 788.652344 467 L 788.652344 518.53125 L 171.402344 518.53125 Z M 171.402344 467 " clip-rule="nonzero"/></clipPath></defs><g clip-path="url(#a14d3b702d)"><path fill="#f4f6fc" d="M 197.121094 132.839844 L 762.878906 132.839844 C 763.722656 132.839844 764.5625 132.796875 765.398438 132.714844 C 766.238281 132.632812 767.070312 132.511719 767.894531 132.34375 C 768.722656 132.179688 769.539062 131.976562 770.34375 131.730469 C 771.148438 131.488281 771.941406 131.203125 772.71875 130.882812 C 773.5 130.558594 774.257812 130.199219 775 129.804688 C 775.746094 129.40625 776.464844 128.972656 777.167969 128.503906 C 777.867188 128.039062 778.542969 127.535156 779.195312 127.003906 C 779.84375 126.46875 780.46875 125.902344 781.0625 125.308594 C 781.660156 124.710938 782.222656 124.089844 782.757812 123.4375 C 783.292969 122.785156 783.792969 122.109375 784.261719 121.410156 C 784.730469 120.710938 785.160156 119.988281 785.558594 119.246094 C 785.957031 118.503906 786.316406 117.742188 786.636719 116.964844 C 786.960938 116.1875 787.242188 115.394531 787.488281 114.589844 C 787.734375 113.78125 787.9375 112.964844 788.101562 112.140625 C 788.265625 111.3125 788.390625 110.480469 788.472656 109.644531 C 788.554688 108.804688 788.59375 107.964844 788.59375 107.125 C 788.59375 106.28125 788.554688 105.441406 788.472656 104.601562 C 788.390625 103.765625 788.265625 102.933594 788.101562 102.105469 C 787.9375 101.28125 787.734375 100.464844 787.488281 99.660156 C 787.242188 98.851562 786.960938 98.058594 786.636719 97.28125 C 786.316406 96.503906 785.957031 95.742188 785.558594 95 C 785.160156 94.257812 784.730469 93.535156 784.261719 92.835938 C 783.792969 92.136719 783.292969 91.460938 782.757812 90.808594 C 782.222656 90.15625 781.660156 89.535156 781.0625 88.9375 C 780.46875 88.34375 779.84375 87.777344 779.195312 87.246094 C 778.542969 86.710938 777.867188 86.207031 777.167969 85.742188 C 776.464844 85.273438 775.746094 84.839844 775 84.445312 C 774.257812 84.046875 773.5 83.6875 772.71875 83.363281 C 771.941406 83.042969 771.148438 82.757812 770.34375 82.515625 C 769.539062 82.269531 768.722656 82.066406 767.894531 81.902344 C 767.070312 81.738281 766.238281 81.613281 765.398438 81.53125 C 764.5625 81.449219 763.722656 81.40625 762.878906 81.40625 L 197.121094 81.40625 C 196.277344 81.40625 195.4375 81.449219 194.601562 81.53125 C 193.761719 81.613281 192.929688 81.738281 192.105469 81.902344 C 191.277344 82.066406 190.460938 82.269531 189.65625 82.515625 C 188.847656 82.757812 188.058594 83.042969 187.28125 83.363281 C 186.5 83.6875 185.742188 84.046875 184.996094 84.445312 C 184.253906 84.839844 183.535156 85.273438 182.832031 85.742188 C 182.132812 86.207031 181.457031 86.710938 180.804688 87.246094 C 180.15625 87.777344 179.53125 88.34375 178.9375 88.9375 C 178.339844 89.535156 177.777344 90.15625 177.242188 90.808594 C 176.707031 91.460938 176.207031 92.136719 175.738281 92.835938 C 175.269531 93.535156 174.835938 94.257812 174.441406 95 C 174.042969 95.742188 173.683594 96.503906 173.363281 97.28125 C 173.039062 98.058594 172.757812 98.851562 172.511719 99.660156 C 172.265625 100.464844 172.0625 101.28125 171.898438 102.105469 C 171.734375 102.933594 171.609375 103.765625 171.527344 104.601562 C 171.445312 105.441406 171.402344 106.28125 171.402344 107.125 C 171.402344 107.964844 171.445312 108.804688 171.527344 109.644531 C 171.609375 110.480469 171.734375 111.3125 171.898438 112.140625 C 172.0625 112.964844 172.265625 113.78125 172.511719 114.589844 C 172.757812 115.394531 173.039062 116.1875 173.363281 116.964844 C 173.683594 117.742188 174.042969 118.503906 174.441406 119.246094 C 174.835938 119.988281 175.269531 120.710938 175.738281 121.410156 C 176.207031 122.109375 176.707031 122.785156 177.242188 123.4375 C 177.777344 124.089844 178.339844 124.710938 178.9375 125.308594 C 179.53125 125.902344 180.15625 126.46875 180.804688 127.003906 C 181.457031 127.535156 182.132812 128.039062 182.832031 128.503906 C 183.535156 128.972656 184.253906 129.40625 184.996094 129.804688 C 185.742188 130.199219 186.5 130.558594 187.28125 130.882812 C 188.058594 131.203125 188.847656 131.488281 189.65625 131.730469 C 190.460938 131.976562 191.277344 132.179688 192.105469 132.34375 C 192.929688 132.511719 193.761719 132.632812 194.601562 132.714844 C 195.4375 132.796875 196.277344 132.839844 197.121094 132.839844 Z M 197.121094 132.839844 " fill-opacity="1" fill-rule="nonzero"/></g><g clip-path="url(#7528b57b46)"><path fill="#f4f6fc" d="M 762.878906 261.421875 L 197.121094 261.421875 C 196.277344 261.421875 195.4375 261.460938 194.601562 261.546875 C 193.761719 261.628906 192.929688 261.75 192.105469 261.914062 C 191.277344 262.078125 190.460938 262.285156 189.65625 262.527344 C 188.847656 262.773438 188.058594 263.054688 187.28125 263.378906 C 186.5 263.699219 185.742188 264.0625 184.996094 264.457031 C 184.253906 264.855469 183.535156 265.289062 182.832031 265.753906 C 182.132812 266.222656 181.457031 266.722656 180.804688 267.257812 C 180.15625 267.792969 179.53125 268.359375 178.9375 268.953125 C 178.339844 269.550781 177.777344 270.171875 177.242188 270.824219 C 176.707031 271.472656 176.207031 272.148438 175.738281 272.851562 C 175.269531 273.550781 174.835938 274.273438 174.441406 275.015625 C 174.042969 275.757812 173.683594 276.519531 173.363281 277.296875 C 173.039062 278.074219 172.757812 278.867188 172.511719 279.671875 C 172.265625 280.476562 172.0625 281.292969 171.898438 282.121094 C 171.734375 282.945312 171.609375 283.777344 171.527344 284.617188 C 171.445312 285.453125 171.402344 286.296875 171.402344 287.136719 C 171.402344 287.980469 171.445312 288.820312 171.527344 289.65625 C 171.609375 290.496094 171.734375 291.328125 171.898438 292.15625 C 172.0625 292.980469 172.265625 293.796875 172.511719 294.601562 C 172.757812 295.410156 173.039062 296.199219 173.363281 296.980469 C 173.683594 297.757812 174.042969 298.515625 174.441406 299.261719 C 174.835938 300.003906 175.269531 300.722656 175.738281 301.425781 C 176.207031 302.125 176.707031 302.800781 177.242188 303.453125 C 177.777344 304.101562 178.339844 304.726562 178.9375 305.320312 C 179.53125 305.917969 180.15625 306.480469 180.804688 307.015625 C 181.457031 307.550781 182.132812 308.050781 182.832031 308.519531 C 183.535156 308.988281 184.253906 309.421875 184.996094 309.816406 C 185.742188 310.214844 186.5 310.574219 187.28125 310.894531 C 188.058594 311.21875 188.847656 311.5 189.65625 311.746094 C 190.460938 311.992188 191.277344 312.195312 192.105469 312.359375 C 192.929688 312.523438 193.761719 312.648438 194.601562 312.730469 C 195.4375 312.8125 196.277344 312.855469 197.121094 312.855469 L 762.878906 312.855469 C 763.722656 312.855469 764.5625 312.8125 765.398438 312.730469 C 766.238281 312.648438 767.070312 312.523438 767.894531 312.359375 C 768.722656 312.195312 769.539062 311.992188 770.34375 311.746094 C 771.148438 311.5 771.941406 311.21875 772.71875 310.894531 C 773.5 310.574219 774.257812 310.214844 775 309.816406 C 775.746094 309.421875 776.464844 308.988281 777.167969 308.519531 C 777.867188 308.050781 778.542969 307.550781 779.195312 307.015625 C 779.84375 306.480469 780.46875 305.917969 781.0625 305.320312 C 781.660156 304.726562 782.222656 304.101562 782.757812 303.453125 C 783.292969 302.800781 783.792969 302.125 784.261719 301.425781 C 784.730469 300.722656 785.160156 300.003906 785.558594 299.261719 C 785.957031 298.515625 786.316406 297.757812 786.636719 296.980469 C 786.960938 296.199219 787.242188 295.410156 787.488281 294.601562 C 787.734375 293.796875 787.9375 292.980469 788.101562 292.15625 C 788.265625 291.328125 788.390625 290.496094 788.472656 289.65625 C 788.554688 288.820312 788.59375 287.980469 788.59375 287.136719 C 788.59375 286.296875 788.554688 285.453125 788.472656 284.617188 C 788.390625 283.777344 788.265625 282.945312 788.101562 282.121094 C 787.9375 281.292969 787.734375 280.476562 787.488281 279.671875 C 787.242188 278.867188 786.960938 278.074219 786.636719 277.296875 C 786.316406 276.519531 785.957031 275.757812 785.558594 275.015625 C 785.160156 274.273438 784.730469 273.550781 784.261719 272.851562 C 783.792969 272.148438 783.292969 271.472656 782.757812 270.824219 C 782.222656 270.171875 781.660156 269.550781 781.0625 268.953125 C 780.46875 268.359375 779.84375 267.792969 779.195312 267.257812 C 778.542969 266.722656 777.867188 266.222656 777.167969 265.753906 C 776.464844 265.289062 775.746094 264.855469 775 264.457031 C 774.257812 264.0625 773.5 263.699219 772.71875 263.378906 C 771.941406 263.054688 771.148438 262.773438 770.34375 262.527344 C 769.539062 262.285156 768.722656 262.078125 767.894531 261.914062 C 767.070312 261.75 766.238281 261.628906 765.398438 261.546875 C 764.5625 261.460938 763.722656 261.421875 762.878906 261.421875 Z M 762.878906 261.421875 " fill-opacity="1" fill-rule="nonzero"/></g><g clip-path="url(#2a18bacc42)"><path fill="#f4f6fc" d="M 762.878906 467.152344 L 197.121094 467.152344 C 196.277344 467.152344 195.4375 467.191406 194.601562 467.277344 C 193.761719 467.359375 192.929688 467.480469 192.105469 467.644531 C 191.277344 467.808594 190.460938 468.015625 189.65625 468.257812 C 188.847656 468.503906 188.058594 468.785156 187.28125 469.109375 C 186.5 469.429688 185.742188 469.792969 184.996094 470.1875 C 184.253906 470.585938 183.535156 471.019531 182.832031 471.484375 C 182.132812 471.953125 181.457031 472.453125 180.804688 472.988281 C 180.15625 473.523438 179.53125 474.089844 178.9375 474.683594 C 178.339844 475.277344 177.777344 475.902344 177.242188 476.554688 C 176.707031 477.203125 176.207031 477.878906 175.738281 478.582031 C 175.269531 479.28125 174.835938 480.003906 174.441406 480.746094 C 174.042969 481.488281 173.683594 482.25 173.363281 483.027344 C 173.039062 483.804688 172.757812 484.597656 172.511719 485.402344 C 172.265625 486.207031 172.0625 487.023438 171.898438 487.851562 C 171.734375 488.675781 171.609375 489.507812 171.527344 490.347656 C 171.445312 491.183594 171.402344 492.027344 171.402344 492.867188 C 171.402344 493.710938 171.445312 494.550781 171.527344 495.386719 C 171.609375 496.226562 171.734375 497.058594 171.898438 497.886719 C 172.0625 498.710938 172.265625 499.527344 172.511719 500.332031 C 172.757812 501.140625 173.039062 501.929688 173.363281 502.710938 C 173.683594 503.488281 174.042969 504.246094 174.441406 504.992188 C 174.835938 505.734375 175.269531 506.453125 175.738281 507.15625 C 176.207031 507.855469 176.707031 508.53125 177.242188 509.183594 C 177.777344 509.832031 178.339844 510.457031 178.9375 511.050781 C 179.53125 511.648438 180.15625 512.210938 180.804688 512.746094 C 181.457031 513.28125 182.132812 513.78125 182.832031 514.25 C 183.535156 514.71875 184.253906 515.152344 184.996094 515.546875 C 185.742188 515.945312 186.5 516.304688 187.28125 516.625 C 188.058594 516.949219 188.847656 517.230469 189.65625 517.476562 C 190.460938 517.722656 191.277344 517.925781 192.105469 518.089844 C 192.929688 518.253906 193.761719 518.378906 194.601562 518.460938 C 195.4375 518.542969 196.277344 518.585938 197.121094 518.585938 L 762.878906 518.585938 C 763.722656 518.585938 764.5625 518.542969 765.398438 518.460938 C 766.238281 518.378906 767.070312 518.253906 767.894531 518.089844 C 768.722656 517.925781 769.539062 517.722656 770.34375 517.476562 C 771.148438 517.230469 771.941406 516.949219 772.71875 516.625 C 773.5 516.304688 774.257812 515.945312 775 515.546875 C 775.746094 515.152344 776.464844 514.71875 777.167969 514.25 C 777.867188 513.78125 778.542969 513.28125 779.195312 512.746094 C 779.84375 512.210938 780.46875 511.648438 781.0625 511.050781 C 781.660156 510.457031 782.222656 509.832031 782.757812 509.183594 C 783.292969 508.53125 783.792969 507.855469 784.261719 507.15625 C 784.730469 506.453125 785.160156 505.734375 785.558594 504.992188 C 785.957031 504.246094 786.316406 503.488281 786.636719 502.710938 C 786.960938 501.929688 787.242188 501.140625 787.488281 500.332031 C 787.734375 499.527344 787.9375 498.710938 788.101562 497.886719 C 788.265625 497.058594 788.390625 496.226562 788.472656 495.386719 C 788.554688 494.550781 788.59375 493.710938 788.59375 492.867188 C 788.59375 492.027344 788.554688 491.183594 788.472656 490.347656 C 788.390625 489.507812 788.265625 488.675781 788.101562 487.851562 C 787.9375 487.023438 787.734375 486.207031 787.488281 485.402344 C 787.242188 484.597656 786.960938 483.804688 786.636719 483.027344 C 786.316406 482.25 785.957031 481.488281 785.558594 480.746094 C 785.160156 480.003906 784.730469 479.28125 784.261719 478.582031 C 783.792969 477.878906 783.292969 477.203125 782.757812 476.554688 C 782.222656 475.902344 781.660156 475.277344 781.0625 474.683594 C 780.46875 474.089844 779.84375 473.523438 779.195312 472.988281 C 778.542969 472.453125 777.867188 471.953125 777.167969 471.484375 C 776.464844 471.019531 775.746094 470.585938 775 470.1875 C 774.257812 469.792969 773.5 469.429688 772.71875 469.109375 C 771.941406 468.785156 771.148438 468.503906 770.34375 468.257812 C 769.539062 468.015625 768.722656 467.808594 767.894531 467.644531 C 767.070312 467.480469 766.238281 467.359375 765.398438 467.277344 C 764.5625 467.191406 763.722656 467.152344 762.878906 467.152344 Z M 762.878906 467.152344 " fill-opacity="1" fill-rule="nonzero"/></g></svg>