<svg xmlns="http://www.w3.org/2000/svg" xmlns:xlink="http://www.w3.org/1999/xlink" width="1280" zoomAndPan="magnify" viewBox="0 0 960 599.999999" height="800" preserveAspectRatio="xMidYMid meet" version="1.0"><defs><clipPath id="3ce6c7bd8e"><path d="M 319.050781 81.964844 L 640.800781 81.964844 L 640.800781 517.714844 L 319.050781 517.714844 Z M 319.050781 81.964844 " clip-rule="nonzero"/></clipPath></defs><g clip-path="url(#3ce6c7bd8e)"><path fill="#000000" d="M 624.679688 258.617188 L 602.449219 258.617188 L 602.449219 204.585938 C 602.539062 136.957031 547.53125 81.964844 479.882812 81.964844 C 412.234375 81.964844 357.226562 136.957031 357.226562 204.585938 L 357.226562 258.617188 L 335.082031 258.617188 C 326.277344 258.617188 319.128906 265.765625 319.128906 274.566406 L 319.128906 501.851562 C 319.128906 510.566406 326.277344 517.714844 335.082031 517.714844 L 624.765625 517.714844 C 633.570312 517.714844 640.71875 510.566406 640.71875 501.765625 L 640.71875 274.566406 C 640.632812 265.765625 633.484375 258.617188 624.679688 258.617188 Z M 389.132812 204.585938 C 389.132812 154.5625 429.84375 113.863281 479.882812 113.863281 C 529.921875 113.863281 570.632812 154.5625 570.632812 204.585938 L 570.632812 258.617188 L 389.132812 258.617188 Z M 495.835938 399.625 L 495.835938 441.546875 C 495.835938 450.347656 488.6875 457.492188 479.882812 457.492188 C 471.078125 457.492188 463.929688 450.347656 463.929688 441.546875 L 463.929688 399.625 C 452.945312 393.875 445.449219 382.371094 445.449219 369.210938 C 445.449219 350.210938 460.878906 334.875 479.792969 334.875 C 498.796875 334.875 514.140625 350.300781 514.140625 369.210938 C 514.316406 382.371094 506.820312 393.875 495.835938 399.625 Z M 495.835938 399.625 " fill-opacity="1" fill-rule="nonzero"/></g></svg>