<svg xmlns="http://www.w3.org/2000/svg" xmlns:xlink="http://www.w3.org/1999/xlink" width="1280" zoomAndPan="magnify" viewBox="0 0 960 599.999999" height="800" preserveAspectRatio="xMidYMid meet" version="1.0"><defs><clipPath id="a9bc3f0247"><path d="M 242.1875 17.5 L 717.6875 17.5 L 717.6875 582 L 242.1875 582 Z M 242.1875 17.5 " clip-rule="nonzero"/></clipPath></defs><path fill="#d8959a" d="M 651.402344 111.109375 C 628.300781 53.628906 567.808594 47.628906 567.808594 47.628906 C 571.839844 42.304688 571.707031 35.855469 567.808594 28.335938 C 560.511719 36.617188 551.421875 41.363281 540.855469 43.199219 C 542.601562 35.945312 540.8125 29.054688 536.648438 22.425781 C 531.902344 35.273438 525.183594 44.808594 514.441406 47.628906 C 514.441406 47.628906 450.324219 60.882812 430.21875 112.585938 C 404.429688 178.882812 433.980469 227.09375 433.980469 227.09375 L 653.820312 227.09375 C 653.820312 227.09375 674.460938 168.632812 651.402344 111.109375 Z M 651.402344 111.109375 " fill-opacity="1" fill-rule="nonzero"/><path fill="#ffc05a" d="M 341.296875 297.152344 L 341.296875 312.867188 C 341.296875 316.582031 344.296875 319.582031 348.015625 319.582031 L 362.074219 319.582031 C 365.789062 319.582031 368.789062 316.582031 368.789062 312.867188 L 368.789062 297.152344 C 361.976562 291.894531 352.8125 291.894531 341.296875 297.152344 Z M 341.296875 297.152344 " fill-opacity="1" fill-rule="nonzero"/><path fill="#ffd7d2" d="M 661.476562 563.285156 C 676.894531 555.792969 692.457031 553.800781 708.3125 557.644531 C 709.96875 564.046875 711.535156 570.671875 712.921875 577.519531 L 651.402344 577.519531 L 651.402344 562.746094 C 656.085938 560.300781 659.199219 561.011719 661.476562 563.285156 Z M 661.476562 563.285156 " fill-opacity="1" fill-rule="nonzero"/><path fill="#6fceae" d="M 695.011719 517.175781 C 699.984375 529.488281 704.460938 542.917969 708.3125 557.644531 C 693.582031 561.898438 678 563.777344 661.476562 563.285156 C 662.929688 540.410156 674.957031 525.609375 695.011719 517.175781 Z M 695.011719 517.175781 " fill-opacity="1" fill-rule="nonzero"/><path fill="#6fceae" d="M 655.925781 450.832031 C 617.28125 478.789062 583.875 520.570312 558.316406 577.519531 L 606.761719 577.519531 C 644.457031 559.914062 670.574219 531.335938 681.222656 488.078125 L 681.265625 488.078125 C 673.386719 473.753906 664.835938 461.441406 655.925781 450.832031 Z M 655.925781 450.832031 " fill-opacity="1" fill-rule="nonzero"/><path fill="#fec4b9" d="M 657.851562 228.257812 C 671.371094 233.632812 677.460938 251.3125 671.417969 267.789062 C 666.179688 282.023438 653.550781 290.617188 641.464844 289.183594 C 621.667969 265.628906 621.296875 242.484375 653.820312 227.09375 C 655.164062 227.363281 656.507812 227.722656 657.851562 228.257812 Z M 657.851562 228.257812 " fill-opacity="1" fill-rule="nonzero"/><path fill="#349370" d="M 681.265625 488.078125 L 681.222656 488.078125 C 671.863281 502.089844 661.96875 515.652344 651.402344 528.679688 C 637.65625 545.914062 622.746094 562.210938 606.761719 577.519531 L 651.402344 577.519531 C 655.761719 572.972656 656.824219 568.136719 651.402344 562.746094 C 654.804688 563.0625 658.164062 563.238281 661.476562 563.285156 C 673.34375 549.09375 684.761719 533.785156 695.011719 517.175781 C 690.757812 506.65625 686.148438 496.988281 681.265625 488.078125 Z M 681.265625 488.078125 " fill-opacity="1" fill-rule="nonzero"/><path fill="#349370" d="M 627.136719 422.675781 C 636.761719 430.332031 646.523438 439.640625 655.925781 450.832031 C 632.867188 496.40625 599.644531 538.394531 558.316406 577.519531 L 504.679688 577.519531 C 538.246094 515.277344 575.394531 459.742188 627.136719 422.675781 Z M 627.136719 422.675781 " fill-opacity="1" fill-rule="nonzero"/><path fill="#6fceae" d="M 599.285156 404.367188 C 608.195312 409.113281 617.597656 415.109375 627.136719 422.675781 C 596.601562 481.003906 555.09375 532.171875 504.679688 577.519531 L 436.441406 577.519531 C 432.714844 573.15625 432.328125 569.238281 436.441406 565.925781 C 464.082031 517.027344 499.101562 481.171875 543.902344 463.679688 L 549.125 430.714844 C 556.015625 414.332031 569.175781 403.5 599.285156 404.367188 Z M 599.285156 404.367188 " fill-opacity="1" fill-rule="nonzero"/><path fill="#349370" d="M 524.335938 433.285156 L 385.578125 536.960938 C 383.386719 543.542969 381.371094 550.4375 379.492188 557.644531 C 395.738281 568.625 411.589844 572.8125 433.5 564.480469 L 436.441406 565.925781 C 480.992188 534.722656 518.066406 501.015625 543.902344 463.679688 C 548.320312 436.855469 547.292969 418.335938 524.335938 433.285156 Z M 524.335938 433.285156 " fill-opacity="1" fill-rule="nonzero"/><path fill="#6fceae" d="M 436.441406 512.027344 C 420.371094 521.652344 403.398438 529.890625 385.578125 536.960938 C 393.191406 513.730469 402.503906 494.03125 412.800781 477.378906 C 442.785156 451.972656 471.648438 433.367188 499.125 418.558594 C 516.261719 416.085938 523.5 421.984375 524.335938 433.285156 C 499.441406 466.277344 469.890625 492.0625 436.441406 512.027344 Z M 436.441406 512.027344 " fill-opacity="1" fill-rule="nonzero"/><path fill="#349370" d="M 488.515625 404.367188 C 497.101562 407.472656 499.925781 412.460938 499.125 418.558594 C 472.933594 445.460938 444.1875 465.203125 412.800781 477.378906 C 436.085938 439.597656 464.246094 417.304688 488.515625 404.367188 Z M 488.515625 404.367188 " fill-opacity="1" fill-rule="nonzero"/><path fill="#fec4b9" d="M 446.339844 289.183594 C 434.25 290.617188 421.625 282.023438 416.382812 267.789062 C 410.339844 251.3125 416.429688 233.632812 429.996094 228.257812 C 431.292969 227.722656 432.59375 227.363281 433.980469 227.09375 C 462.398438 246.773438 460.671875 269.566406 446.339844 289.183594 Z M 446.339844 289.183594 " fill-opacity="1" fill-rule="nonzero"/><path fill="#ffd7d2" d="M 436.441406 565.925781 L 436.441406 577.519531 L 374.878906 577.519531 C 376.265625 570.671875 377.835938 564.046875 379.492188 557.644531 C 397.222656 562.746094 416.207031 564.449219 436.441406 562.746094 Z M 436.441406 565.925781 " fill-opacity="1" fill-rule="nonzero"/><path fill="#ffd7d2" d="M 591.539062 134.164062 C 588.675781 146.292969 590.019531 156.546875 592.972656 167.511719 C 574.078125 158.738281 562.75 146.292969 557.289062 127.179688 C 554.824219 142.21875 555.8125 158.292969 558.855469 174.898438 C 537.8125 160.933594 526.4375 140.921875 526.214844 113.929688 C 524.109375 133.714844 513.945312 151.308594 494.738281 166.347656 C 496.53125 153.457031 494.558594 140.027344 490.171875 126.328125 C 478.621094 166.214844 459.90625 199.789062 433.980469 227.09375 C 436.308594 250.867188 440.605469 272.710938 446.339844 289.183594 C 448.757812 296.257812 451.441406 302.390625 454.351562 307.269531 C 464.695312 324.503906 488.292969 347.066406 517.035156 356.511719 L 517.035156 392.234375 C 508.753906 394.875 498.992188 398.726562 488.515625 404.367188 C 491.382812 409.785156 494.917969 414.484375 499.125 418.558594 C 505.933594 425.09375 514.394531 429.929688 524.335938 433.285156 C 527.378906 434.316406 530.601562 435.210938 533.917969 435.972656 L 543.902344 463.679688 L 553.929688 435.972656 C 574.796875 431.226562 590.421875 421.199219 599.285156 404.367188 C 588.808594 398.726562 579.046875 394.875 570.765625 392.234375 L 570.765625 356.511719 C 599.511719 347.066406 623.105469 324.503906 633.449219 307.269531 C 636.359375 302.390625 639.046875 296.257812 641.464844 289.183594 C 647.195312 272.710938 651.492188 250.867188 653.820312 227.09375 C 655.386719 193.566406 609.941406 170.511719 591.539062 134.164062 Z M 591.539062 134.164062 " fill-opacity="1" fill-rule="nonzero"/><path fill="#2b8963" d="M 436.441406 512.027344 C 432.6875 514.28125 428.871094 516.4375 425.015625 518.539062 C 422.851562 535.992188 419.285156 551.175781 413.777344 563.199219 C 421.152344 563.542969 428.703125 563.402344 436.441406 562.746094 L 436.441406 565.925781 C 436.449219 565.925781 436.449219 565.921875 436.453125 565.917969 L 436.453125 512.019531 C 436.449219 512.023438 436.449219 512.027344 436.441406 512.027344 Z M 436.441406 512.027344 " fill-opacity="1" fill-rule="nonzero"/><path fill="#53b79a" d="M 436.453125 512.023438 L 436.453125 506.539062 C 436.453125 503.710938 434.160156 501.417969 431.328125 501.417969 C 429.054688 501.417969 427.058594 502.914062 426.414062 505.09375 C 426.039062 509.722656 425.554688 514.175781 425.011719 518.539062 C 428.867188 516.4375 432.683594 514.28125 436.4375 512.027344 C 436.449219 512.027344 436.449219 512.023438 436.453125 512.023438 Z M 436.453125 512.023438 " fill-opacity="1" fill-rule="nonzero"/><path fill="#fec4b9" d="M 436.441406 562.746094 C 428.703125 563.398438 421.152344 563.539062 413.777344 563.199219 C 411.292969 568.628906 408.4375 573.464844 405.109375 577.519531 L 436.441406 577.519531 Z M 436.441406 562.746094 " fill-opacity="1" fill-rule="nonzero"/><path fill="#fec4b9" d="M 661.476562 563.285156 C 658.164062 563.238281 654.804688 563.0625 651.402344 562.746094 L 651.402344 577.519531 L 682.746094 577.519531 C 680.101562 572.980469 677.570312 568.152344 675.269531 563.082031 C 670.738281 563.320312 666.15625 563.421875 661.476562 563.285156 Z M 661.476562 563.285156 " fill-opacity="1" fill-rule="nonzero"/><path fill="#53b79a" d="M 661.476562 563.285156 C 666.15625 563.421875 670.738281 563.320312 675.269531 563.082031 C 673.617188 559.445312 672.101562 555.679688 670.757812 551.800781 C 667.699219 555.707031 664.605469 559.539062 661.476562 563.285156 Z M 661.476562 563.285156 " fill-opacity="1" fill-rule="nonzero"/><path fill="#53b79a" d="M 665.574219 507.695312 C 665.152344 504.113281 662.117188 501.417969 658.511719 501.417969 C 654.585938 501.417969 651.402344 504.601562 651.402344 508.527344 L 651.402344 528.679688 C 656.171875 522.804688 660.761719 516.777344 665.269531 510.691406 C 665.363281 509.691406 665.441406 508.699219 665.574219 507.695312 Z M 665.574219 507.695312 " fill-opacity="1" fill-rule="nonzero"/><path fill="#2b8963" d="M 665.269531 510.691406 C 660.761719 516.777344 656.171875 522.804688 651.402344 528.679688 L 651.402344 562.746094 C 654.804688 563.0625 658.164062 563.238281 661.476562 563.285156 C 664.605469 559.539062 667.699219 555.707031 670.757812 551.800781 C 666.347656 539.089844 663.890625 525.203125 665.269531 510.691406 Z M 665.269531 510.691406 " fill-opacity="1" fill-rule="nonzero"/><path fill="#f7b6ad" d="M 570.78125 356.511719 L 570.78125 374.800781 C 565.949219 375.636719 560.976562 376.074219 555.875 376.074219 C 541.679688 376.074219 528.425781 372.722656 517.054688 366.894531 L 517.054688 356.511719 C 525.347656 359.257812 534.632812 360.988281 543.902344 360.988281 C 553.167969 360.988281 562.5625 359.191406 570.78125 356.511719 Z M 570.78125 356.511719 " fill-opacity="1" fill-rule="nonzero"/><path fill="#1ea6bc" d="M 369.328125 95.484375 L 369.28125 95.484375 L 369.28125 73.011719 L 340.492188 77.175781 L 340.492188 95.574219 C 323.210938 101.574219 310.808594 118.003906 310.808594 137.339844 L 310.808594 255.117188 C 310.808594 267.296875 315.777344 278.398438 323.746094 286.363281 C 328.628906 291.246094 334.628906 294.960938 341.296875 297.152344 C 345.640625 298.585938 350.253906 299.347656 355.042969 299.347656 C 359.835938 299.347656 364.445312 298.585938 368.789062 297.152344 C 386.476562 291.378906 399.234375 274.726562 399.234375 255.117188 L 399.234375 137.339844 C 399.234375 117.914062 386.742188 101.4375 369.328125 95.484375 Z M 369.328125 95.484375 " fill-opacity="1" fill-rule="nonzero"/><path fill="#c3ddda" d="M 384.820312 180.496094 L 384.820312 252.566406 C 384.820312 268.996094 371.476562 282.335938 355.042969 282.335938 C 338.613281 282.335938 325.269531 268.996094 325.269531 252.566406 L 325.269531 180.496094 Z M 384.820312 180.496094 " fill-opacity="1" fill-rule="nonzero"/><path fill="#655f68" d="M 374.835938 44.003906 L 374.835938 60.703125 C 374.835938 65.582031 372.683594 70.011719 369.28125 73.011719 C 366.371094 75.609375 362.519531 77.175781 358.3125 77.175781 L 337.222656 77.175781 C 333.375 77.175781 330.285156 74.085938 330.285156 70.238281 C 330.285156 66.386719 333.375 63.296875 337.222656 63.296875 L 349 63.296875 C 353.34375 63.296875 356.835938 59.761719 356.835938 55.464844 C 356.835938 51.121094 353.34375 47.628906 349 47.628906 L 279.734375 47.628906 C 272.347656 47.628906 266.300781 53.628906 266.300781 61.058594 L 266.300781 577.519531 L 246.558594 577.519531 L 246.558594 57.210938 C 246.558594 40.828125 259.855469 27.53125 276.242188 27.53125 L 358.3125 27.53125 C 367.445312 27.53125 374.835938 34.917969 374.835938 44.003906 Z M 374.835938 44.003906 " fill-opacity="1" fill-rule="nonzero"/><path fill="#3a322b" d="M 597.765625 226.570312 C 597.765625 227.160156 597.707031 227.742188 597.59375 228.320312 C 597.476562 228.894531 597.308594 229.453125 597.082031 230 C 596.855469 230.542969 596.582031 231.058594 596.253906 231.546875 C 595.929688 232.035156 595.558594 232.488281 595.140625 232.902344 C 594.726562 233.320312 594.273438 233.691406 593.785156 234.015625 C 593.296875 234.34375 592.777344 234.617188 592.234375 234.84375 C 591.691406 235.070312 591.132812 235.238281 590.554688 235.351562 C 589.980469 235.46875 589.398438 235.523438 588.808594 235.523438 C 588.222656 235.523438 587.640625 235.46875 587.0625 235.351562 C 586.484375 235.238281 585.925781 235.070312 585.382812 234.84375 C 584.839844 234.617188 584.324219 234.34375 583.835938 234.015625 C 583.34375 233.691406 582.894531 233.320312 582.476562 232.902344 C 582.0625 232.488281 581.691406 232.035156 581.363281 231.546875 C 581.035156 231.058594 580.761719 230.542969 580.535156 230 C 580.3125 229.453125 580.140625 228.894531 580.027344 228.320312 C 579.910156 227.742188 579.855469 227.160156 579.855469 226.570312 C 579.855469 225.984375 579.910156 225.402344 580.027344 224.824219 C 580.140625 224.25 580.3125 223.6875 580.535156 223.144531 C 580.761719 222.601562 581.035156 222.085938 581.363281 221.597656 C 581.691406 221.109375 582.0625 220.65625 582.476562 220.242188 C 582.894531 219.824219 583.34375 219.453125 583.835938 219.128906 C 584.324219 218.800781 584.839844 218.523438 585.382812 218.300781 C 585.925781 218.074219 586.484375 217.90625 587.0625 217.789062 C 587.640625 217.675781 588.222656 217.617188 588.808594 217.617188 C 589.398438 217.617188 589.980469 217.675781 590.554688 217.789062 C 591.132812 217.90625 591.691406 218.074219 592.234375 218.300781 C 592.777344 218.523438 593.296875 218.800781 593.785156 219.128906 C 594.273438 219.453125 594.726562 219.824219 595.140625 220.242188 C 595.558594 220.65625 595.929688 221.109375 596.253906 221.597656 C 596.582031 222.085938 596.855469 222.601562 597.082031 223.144531 C 597.308594 223.6875 597.476562 224.25 597.59375 224.824219 C 597.707031 225.402344 597.765625 225.984375 597.765625 226.570312 Z M 597.765625 226.570312 " fill-opacity="1" fill-rule="nonzero"/><path fill="#3a322b" d="M 580.601562 186.148438 C 580.726562 186.136719 592.8125 184.171875 600.902344 189.875 C 601.691406 190.429688 602.585938 190.691406 603.476562 190.691406 C 604.882812 190.691406 606.269531 190.035156 607.140625 188.792969 C 608.5625 186.769531 608.078125 183.976562 606.0625 182.554688 C 594.890625 174.683594 579.71875 177.214844 579.074219 177.324219 C 576.644531 177.75 575.023438 180.058594 575.441406 182.492188 C 575.859375 184.925781 578.175781 186.578125 580.601562 186.148438 Z M 580.601562 186.148438 " fill-opacity="1" fill-rule="nonzero"/><path fill="#3a322b" d="M 508.214844 226.570312 C 508.214844 227.160156 508.160156 227.742188 508.042969 228.320312 C 507.929688 228.894531 507.757812 229.453125 507.535156 230 C 507.308594 230.542969 507.035156 231.058594 506.707031 231.546875 C 506.378906 232.035156 506.007812 232.488281 505.59375 232.902344 C 505.175781 233.320312 504.726562 233.691406 504.234375 234.015625 C 503.746094 234.34375 503.230469 234.617188 502.6875 234.84375 C 502.144531 235.070312 501.585938 235.238281 501.007812 235.351562 C 500.429688 235.46875 499.847656 235.523438 499.261719 235.523438 C 498.671875 235.523438 498.089844 235.46875 497.515625 235.351562 C 496.9375 235.238281 496.378906 235.070312 495.835938 234.84375 C 495.292969 234.617188 494.773438 234.34375 494.285156 234.015625 C 493.796875 233.691406 493.34375 233.320312 492.929688 232.902344 C 492.511719 232.488281 492.140625 232.035156 491.816406 231.546875 C 491.488281 231.058594 491.214844 230.542969 490.988281 230 C 490.761719 229.453125 490.59375 228.894531 490.476562 228.320312 C 490.363281 227.742188 490.304688 227.160156 490.304688 226.570312 C 490.304688 225.984375 490.363281 225.402344 490.476562 224.824219 C 490.59375 224.25 490.761719 223.6875 490.988281 223.144531 C 491.214844 222.601562 491.488281 222.085938 491.816406 221.597656 C 492.140625 221.109375 492.511719 220.65625 492.929688 220.242188 C 493.34375 219.824219 493.796875 219.453125 494.285156 219.128906 C 494.773438 218.800781 495.292969 218.523438 495.835938 218.300781 C 496.378906 218.074219 496.9375 217.90625 497.515625 217.789062 C 498.089844 217.675781 498.671875 217.617188 499.261719 217.617188 C 499.847656 217.617188 500.429688 217.675781 501.007812 217.789062 C 501.585938 217.90625 502.144531 218.074219 502.6875 218.300781 C 503.230469 218.523438 503.746094 218.800781 504.234375 219.128906 C 504.726562 219.453125 505.175781 219.824219 505.59375 220.242188 C 506.007812 220.65625 506.378906 221.109375 506.707031 221.597656 C 507.035156 222.085938 507.308594 222.601562 507.535156 223.144531 C 507.757812 223.6875 507.929688 224.25 508.042969 224.824219 C 508.160156 225.402344 508.214844 225.984375 508.214844 226.570312 Z M 508.214844 226.570312 " fill-opacity="1" fill-rule="nonzero"/><path fill="#3a322b" d="M 508.976562 177.324219 C 508.335938 177.21875 493.175781 174.6875 482.015625 182.554688 C 479.996094 183.976562 479.507812 186.769531 480.933594 188.792969 C 481.808594 190.03125 483.191406 190.691406 484.597656 190.691406 C 485.488281 190.691406 486.390625 190.429688 487.171875 189.875 C 495.21875 184.207031 507.183594 186.105469 507.445312 186.148438 C 509.886719 186.566406 512.195312 184.941406 512.617188 182.507812 C 513.042969 180.070312 511.414062 177.75 508.976562 177.324219 Z M 508.976562 177.324219 " fill-opacity="1" fill-rule="nonzero"/><path fill="#3a322b" d="M 558.691406 248.65625 C 561.066406 247.984375 562.449219 245.507812 561.773438 243.128906 C 561.101562 240.75 558.609375 239.378906 556.25 240.046875 C 548.136719 242.34375 539.9375 242.34375 531.824219 240.046875 C 529.464844 239.375 526.96875 240.75 526.300781 243.128906 C 525.628906 245.507812 527.007812 247.984375 529.386719 248.65625 C 534.238281 250.027344 539.167969 250.726562 544.035156 250.726562 C 548.902344 250.726562 553.835938 250.027344 558.691406 248.65625 Z M 558.691406 248.65625 " fill-opacity="1" fill-rule="nonzero"/><path fill="#3a322b" d="M 389.429688 252.449219 L 389.429688 180.390625 C 389.429688 177.921875 387.425781 175.914062 384.953125 175.914062 L 325.394531 175.914062 C 322.921875 175.914062 320.917969 177.921875 320.917969 180.390625 L 320.917969 252.457031 C 320.917969 271.34375 336.289062 286.707031 355.175781 286.707031 C 374.058594 286.707031 389.429688 271.335938 389.429688 252.449219 Z M 329.871094 252.449219 L 329.871094 184.867188 L 380.476562 184.867188 L 380.476562 252.457031 C 380.476562 266.402344 369.125 277.753906 355.175781 277.753906 C 341.222656 277.753906 329.871094 266.398438 329.871094 252.449219 Z M 329.871094 252.449219 " fill-opacity="1" fill-rule="nonzero"/><g clip-path="url(#a9bc3f0247)"><path fill="#3a322b" d="M 650.417969 437.722656 C 623.539062 409.550781 595.300781 395.671875 575.367188 388.894531 L 575.378906 359.578125 C 604.644531 348.894531 627.71875 325.628906 637.425781 309.457031 C 640.03125 305.109375 642.484375 299.816406 644.75 293.707031 C 657.945312 293.519531 670.347656 283.902344 675.746094 269.214844 C 682.617188 250.542969 675.382812 230.25 659.625 223.984375 C 659.621094 223.984375 659.621094 223.984375 659.613281 223.980469 C 664 208.957031 675.671875 159.203125 655.671875 109.351562 C 636.058594 60.460938 591.25 47.304688 574.632812 44.042969 C 575.941406 39.542969 575.769531 33.617188 571.894531 26.1875 C 571.214844 24.878906 569.929688 23.988281 568.460938 23.816406 C 566.988281 23.636719 565.535156 24.191406 564.5625 25.300781 C 559.4375 31.113281 553.371094 35.066406 546.117188 37.289062 C 546.046875 31.570312 544.195312 25.765625 540.597656 19.96875 C 539.691406 18.519531 538.03125 17.722656 536.34375 17.878906 C 534.640625 18.054688 533.1875 19.175781 532.59375 20.78125 C 527.734375 33.921875 521.640625 41.042969 513.652344 43.132812 C 510.9375 43.691406 446.902344 57.492188 426.160156 110.878906 C 404.359375 166.976562 420.730469 210.152344 427.640625 224.375 C 412.460938 231.011719 405.589844 250.878906 412.328125 269.214844 C 417.726562 283.902344 430.128906 293.519531 443.324219 293.707031 C 445.589844 299.8125 448.042969 305.113281 450.648438 309.457031 C 460.355469 325.628906 483.425781 348.894531 512.695312 359.578125 L 512.683594 388.894531 C 492.753906 395.671875 464.515625 409.550781 437.644531 437.722656 C 408.105469 468.691406 386.847656 509.976562 374.273438 560.554688 C 348.824219 478.484375 344.277344 406.613281 358.957031 323.96875 L 362.203125 323.96875 C 368.378906 323.96875 373.398438 318.949219 373.398438 312.777344 L 373.398438 300.125 C 391.230469 292.890625 403.855469 275.410156 403.855469 255.011719 L 403.855469 137.242188 C 403.855469 117.472656 391.945312 99.800781 373.902344 92.292969 L 373.902344 74.648438 C 377.296875 70.917969 379.421875 66.015625 379.421875 60.589844 L 379.421875 43.917969 C 379.421875 32.355469 370.011719 22.953125 358.445312 22.953125 L 276.363281 22.953125 C 257.515625 22.953125 242.1875 38.277344 242.1875 57.121094 L 242.1875 577.421875 C 242.1875 579.898438 244.191406 581.898438 246.664062 581.898438 L 266.441406 581.898438 C 268.914062 581.898438 270.917969 579.898438 270.917969 577.421875 L 270.917969 60.945312 C 270.917969 56.007812 274.933594 51.992188 279.871094 51.992188 L 349.136719 51.992188 C 350.992188 51.992188 352.496094 53.496094 352.496094 55.347656 C 352.496094 57.203125 350.992188 58.707031 349.136719 58.707031 L 337.34375 58.707031 C 331.039062 58.707031 325.914062 63.835938 325.914062 70.132812 C 325.914062 76.03125 330.417969 80.835938 336.152344 81.441406 L 336.152344 92.402344 C 318.265625 99.976562 306.460938 117.609375 306.460938 137.246094 L 306.460938 255.015625 C 306.460938 275.429688 319.097656 292.914062 336.957031 300.144531 L 336.957031 312.78125 C 336.957031 318.953125 341.980469 323.972656 348.148438 323.972656 L 349.882812 323.972656 C 334.355469 412.667969 340.632812 489.242188 370.769531 578.851562 L 370.832031 578.828125 C 371 579.328125 371.199219 579.832031 371.542969 580.25 C 372.394531 581.292969 373.671875 581.898438 375.011719 581.898438 L 713.074219 581.898438 C 714.421875 581.898438 715.695312 581.292969 716.539062 580.25 C 717.390625 579.210938 717.730469 577.84375 717.457031 576.523438 C 705.570312 518.589844 683.019531 471.894531 650.417969 437.722656 Z M 334.863281 70.132812 C 334.863281 68.769531 335.976562 67.660156 337.339844 67.660156 L 349.132812 67.660156 C 355.925781 67.660156 361.445312 62.140625 361.445312 55.347656 C 361.445312 48.558594 355.921875 43.039062 349.132812 43.039062 L 279.871094 43.039062 C 269.996094 43.039062 261.964844 51.070312 261.964844 60.945312 L 261.964844 572.945312 L 251.140625 572.945312 L 251.140625 57.121094 C 251.140625 43.214844 262.457031 31.90625 276.363281 31.90625 L 358.453125 31.90625 C 365.078125 31.90625 370.472656 37.292969 370.472656 43.917969 L 370.472656 60.59375 C 370.472656 67.21875 365.082031 72.609375 358.453125 72.609375 L 337.34375 72.609375 C 335.980469 72.605469 334.863281 71.496094 334.863281 70.132812 Z M 315.410156 255.011719 L 315.410156 137.242188 C 315.410156 120.328125 326.136719 105.25 342.09375 99.707031 C 343.894531 99.078125 345.105469 97.382812 345.105469 95.476562 L 345.105469 81.558594 L 358.445312 81.558594 C 360.730469 81.558594 362.886719 81.101562 364.949219 80.421875 L 364.949219 95.378906 C 364.949219 97.292969 366.164062 99 367.984375 99.617188 C 384.085938 105.101562 394.902344 120.222656 394.902344 137.242188 L 394.902344 255.011719 C 394.902344 276.925781 377.074219 294.75 355.15625 294.75 C 333.242188 294.75 315.410156 276.925781 315.410156 255.011719 Z M 345.90625 312.777344 L 345.90625 302.796875 C 348.90625 303.375 351.992188 303.707031 355.15625 303.707031 C 358.335938 303.707031 361.433594 303.378906 364.441406 302.792969 L 364.441406 312.78125 C 364.441406 314.011719 363.433594 315.019531 362.203125 315.019531 L 348.144531 315.019531 C 346.910156 315.015625 345.90625 314.007812 345.90625 312.777344 Z M 651.515625 495.164062 C 649.039062 495.164062 647.039062 497.167969 647.039062 499.640625 L 647.039062 527.019531 C 633.746094 543.421875 619.722656 558.785156 605.035156 572.941406 L 569.402344 572.941406 C 606.585938 536.449219 635.898438 498.191406 656.703125 458.988281 C 663.972656 468.421875 670.285156 478.257812 675.8125 488.148438 C 669.4375 497.601562 662.816406 506.769531 655.992188 515.667969 L 655.992188 499.644531 C 655.992188 497.167969 653.992188 495.164062 651.515625 495.164062 Z M 647.039062 541.085938 L 647.039062 572.941406 L 617.796875 572.941406 C 627.871094 562.863281 637.625 552.226562 647.039062 541.085938 Z M 655.992188 530.191406 C 664.507812 519.554688 672.710938 508.488281 680.578125 497.03125 C 684.011719 503.761719 687.097656 510.464844 689.847656 517.03125 C 681.125 530.898438 671.171875 544.574219 659.515625 558.660156 C 658.347656 558.613281 657.171875 558.523438 655.992188 558.449219 Z M 693.898438 527.265625 C 697.519531 536.863281 700.464844 546.023438 702.832031 554.386719 C 692.679688 556.949219 682.035156 558.390625 670.992188 558.707031 C 679.464844 548.140625 687.050781 537.726562 693.898438 527.265625 Z M 650.59375 451.457031 C 628.949219 493.304688 597.378906 534.152344 556.621094 572.941406 L 516.3125 572.941406 C 563.199219 529.230469 600.9375 480.992188 628.683594 429.367188 C 636.726562 436.226562 643.996094 443.664062 650.59375 451.457031 Z M 416.679688 480.53125 C 446.269531 468.699219 474.097656 449.851562 499.492188 424.492188 C 504.601562 428.761719 510.515625 432.332031 517.257812 435.175781 C 495.742188 462.570312 470.535156 485.367188 441.058594 503.953125 L 441.058594 499.640625 C 441.058594 497.167969 439.054688 495.164062 436.582031 495.164062 C 434.109375 495.164062 432.105469 497.167969 432.105469 499.640625 L 432.105469 509.394531 C 419.976562 516.496094 407.164062 522.941406 393.617188 528.738281 C 399.351562 513.316406 406.882812 496.738281 416.679688 480.53125 Z M 530.640625 439.679688 L 539.03125 462.878906 C 516.292969 495.1875 484.171875 526.101562 441.058594 557.15625 L 441.058594 514.492188 C 474.316406 494.324219 502.4375 469.125 526.144531 438.347656 C 527.628906 438.796875 529.085938 439.285156 530.640625 439.679688 Z M 389.636719 540.070312 C 404.617188 534.027344 418.753906 527.25 432.101562 519.714844 L 432.101562 558.453125 C 415.636719 559.453125 399.917969 558.097656 385.238281 554.386719 C 386.527344 549.832031 387.992188 545.042969 389.636719 540.070312 Z M 441.054688 568.144531 C 488.496094 534.644531 523.421875 501.25 547.714844 466.109375 L 547.691406 466.089844 C 547.90625 465.777344 548.113281 465.453125 548.242188 465.082031 L 557.429688 439.671875 C 577.441406 434.628906 592.054688 424.660156 601.113281 410.109375 C 608.402344 414.203125 615.21875 418.746094 621.597656 423.648438 C 592.859375 477.558594 553.011719 527.761719 503.070312 572.941406 L 441.054688 572.941406 Z M 667.339844 266.125 C 663.769531 275.832031 656.09375 282.792969 647.863281 284.398438 C 652.203125 270.070312 655.640625 252.503906 657.835938 232.996094 C 668.035156 238.199219 672.308594 252.621094 667.339844 266.125 Z M 434.5 114.117188 C 453.457031 65.320312 514.84375 52.023438 515.683594 51.84375 C 524.355469 49.578125 531.292969 43.535156 536.714844 33.472656 C 537.339844 36.375 537.308594 39.21875 536.628906 42.035156 C 536.28125 43.5 536.6875 45.039062 537.714844 46.140625 C 538.738281 47.242188 540.25 47.765625 541.730469 47.496094 C 551.128906 45.90625 559.316406 42.132812 566.167969 36.265625 C 567.023438 40.515625 565.664062 43.089844 564.363281 44.792969 C 563.375 46.082031 563.164062 47.804688 563.8125 49.296875 C 564.457031 50.785156 565.859375 51.8125 567.472656 51.96875 C 568.050781 52.027344 625.550781 58.335938 647.355469 112.6875 C 661.832031 148.773438 658.476562 185.667969 654.371094 207.046875 C 648.621094 194.222656 637.589844 182.675781 626.128906 170.6875 C 614.710938 158.738281 602.910156 146.386719 595.652344 132.046875 C 594.804688 130.371094 593.007812 129.421875 591.121094 129.617188 C 589.253906 129.84375 587.722656 131.207031 587.296875 133.042969 C 585.019531 142.738281 585.347656 151.328125 586.617188 158.894531 C 573.738281 150.980469 565.910156 140.511719 561.703125 125.859375 C 561.125 123.84375 559.171875 122.5 557.136719 122.621094 C 555.046875 122.742188 553.316406 124.300781 552.980469 126.363281 C 551.097656 137.816406 551.042969 150.371094 552.84375 164.507812 C 538.203125 151.671875 530.980469 134.980469 530.828125 113.785156 C 530.808594 111.414062 528.941406 109.464844 526.574219 109.347656 C 524.1875 109.195312 522.152344 110.976562 521.898438 113.34375 C 520.160156 129.480469 512.976562 143.484375 500.003906 155.886719 C 499.941406 146.269531 498.140625 136.027344 494.558594 124.867188 C 493.960938 122.996094 492.316406 121.890625 490.230469 121.761719 C 488.265625 121.789062 486.546875 123.101562 485.996094 124.996094 C 475.371094 161.730469 458.28125 193.40625 435.167969 219.253906 C 428.722656 205.191406 414.695312 165.085938 434.5 114.117188 Z M 420.730469 266.121094 C 415.769531 252.621094 420.039062 238.199219 430.238281 232.992188 C 432.4375 252.496094 435.871094 270.066406 440.207031 284.394531 C 431.976562 282.792969 424.304688 275.832031 420.730469 266.121094 Z M 458.328125 304.84375 C 449.480469 290.097656 442.214844 261.660156 438.773438 228.511719 C 461.03125 204.605469 478.175781 175.773438 489.800781 142.542969 C 491.238281 150.769531 491.4375 158.398438 490.421875 165.601562 C 490.167969 167.410156 491.035156 169.191406 492.617188 170.105469 C 494.195312 171.019531 496.175781 170.878906 497.609375 169.753906 C 510.230469 159.898438 519.351562 148.707031 524.890625 136.316406 C 529.703125 153.617188 540.28125 167.753906 556.507812 178.507812 C 558.007812 179.496094 559.953125 179.5 561.453125 178.511719 C 562.953125 177.523438 563.714844 175.734375 563.390625 173.96875 C 561.5 163.617188 560.539062 154.164062 560.5 145.433594 C 567.308594 156.558594 577.355469 165.019531 591.214844 171.457031 C 592.789062 172.1875 594.648438 171.945312 595.976562 170.824219 C 597.3125 169.707031 597.875 167.925781 597.421875 166.242188 C 595.898438 160.535156 594.601562 154.421875 594.574219 147.632812 C 601.855469 158.21875 610.871094 167.65625 619.664062 176.855469 C 635.410156 193.328125 650.28125 208.894531 649.496094 226.730469 C 646.128906 260.636719 638.75 289.828125 629.746094 304.835938 C 617.785156 324.765625 583.941406 356.382812 544.035156 356.382812 C 504.128906 356.382812 470.289062 324.777344 458.328125 304.84375 Z M 518.519531 396.402344 C 520.375 395.8125 521.640625 394.085938 521.640625 392.136719 L 521.648438 362.347656 C 528.84375 364.230469 536.324219 365.347656 544.035156 365.347656 C 551.746094 365.347656 559.226562 364.234375 566.421875 362.351562 L 566.414062 392.140625 C 566.414062 394.09375 567.675781 395.816406 569.535156 396.40625 C 577.898438 399.0625 585.75 402.289062 593.179688 405.949219 C 584.980469 418.816406 571.84375 427.238281 553.042969 431.53125 C 551.558594 431.867188 550.34375 432.9375 549.828125 434.375 L 544.035156 450.398438 L 538.242188 434.375 C 537.726562 432.941406 536.511719 431.867188 535.027344 431.53125 C 516.226562 427.238281 503.089844 418.8125 494.886719 405.941406 C 502.308594 402.277344 510.164062 399.054688 518.519531 396.402344 Z M 486.953125 410.105469 C 488.765625 413.015625 490.753906 415.777344 493.015625 418.3125 C 472.074219 439.191406 449.472656 455.460938 425.601562 466.835938 C 440.988281 444.941406 460.996094 424.664062 486.953125 410.105469 Z M 382.929688 562.976562 C 395.253906 566.105469 408.214844 567.765625 421.71875 567.765625 C 425.140625 567.765625 428.613281 567.628906 432.101562 567.425781 L 432.101562 572.945312 L 380.542969 572.945312 C 381.234375 569.839844 382.03125 566.5 382.929688 562.976562 Z M 655.992188 572.941406 L 655.992188 567.425781 C 659.472656 567.628906 662.933594 567.765625 666.347656 567.765625 C 679.851562 567.765625 692.816406 566.105469 705.140625 562.976562 C 706.039062 566.5 706.839844 569.84375 707.527344 572.941406 Z M 655.992188 572.941406 " fill-opacity="1" fill-rule="nonzero"/></g></svg>