<svg xmlns="http://www.w3.org/2000/svg" xmlns:xlink="http://www.w3.org/1999/xlink" width="1280" zoomAndPan="magnify" viewBox="0 0 960 599.999999" height="800" preserveAspectRatio="xMidYMid meet" version="1.0"><defs><clipPath id="bf1f9955c4"><path d="M 245.660156 60 L 713.996094 60 L 713.996094 528.667969 L 245.660156 528.667969 Z M 245.660156 60 " clip-rule="nonzero"/></clipPath></defs><g clip-path="url(#bf1f9955c4)"><path fill="#f4f6fc" d="M 478.371094 205.210938 C 527.09375 204.296875 567.289062 243.074219 568.203125 291.796875 C 568.203125 292.667969 568.203125 293.5 568.203125 294.375 C 568.742188 343.097656 529.714844 383.042969 480.992188 383.582031 C 432.269531 384.125 392.328125 345.09375 391.785156 296.371094 C 391.785156 295.707031 391.785156 295.042969 391.785156 294.375 C 391.246094 245.902344 429.898438 206.085938 478.371094 205.210938 Z M 487.816406 60.207031 C 474.667969 59.75 461.480469 60.417969 448.457031 62.164062 C 443.835938 62.789062 440.050781 66.03125 438.679688 70.445312 L 425.695312 112.71875 C 424.574219 116.296875 421.828125 119.167969 418.289062 120.414062 C 412.175781 122.621094 406.183594 125.074219 400.316406 127.863281 C 396.90625 129.527344 392.910156 129.441406 389.582031 127.652344 L 350.554688 106.933594 C 346.433594 104.769531 341.441406 105.1875 337.78125 108.015625 C 321.054688 120.707031 306.160156 135.644531 293.425781 152.328125 C 290.597656 156.03125 290.179688 160.980469 292.34375 165.101562 L 313.105469 204.171875 C 314.894531 207.457031 315.0625 211.453125 313.523438 214.863281 C 310.695312 220.730469 308.195312 226.722656 306.035156 232.839844 C 304.785156 236.417969 301.914062 239.164062 298.292969 240.242188 L 256.0625 253.265625 C 251.609375 254.597656 248.367188 258.425781 247.78125 263.003906 C 244.953125 283.847656 244.953125 304.902344 247.78125 325.746094 C 248.367188 330.324219 251.609375 334.152344 256.0625 335.484375 L 298.292969 348.507812 C 301.914062 349.589844 304.785156 352.335938 306.035156 355.914062 C 308.195312 362.03125 310.695312 368.019531 313.523438 373.886719 C 315.0625 377.300781 314.894531 381.292969 313.105469 384.582031 L 292.34375 423.648438 C 290.179688 427.726562 290.597656 432.722656 293.425781 436.425781 C 306.160156 453.109375 321.054688 468.003906 337.78125 480.734375 C 341.441406 483.566406 346.433594 483.941406 350.554688 481.816406 L 389.582031 461.097656 C 392.910156 459.308594 396.90625 459.226562 400.316406 460.847656 C 406.183594 463.636719 412.175781 466.132812 418.289062 468.296875 C 421.828125 469.542969 424.574219 472.414062 425.695312 475.992188 L 438.679688 518.265625 C 440.050781 522.71875 443.835938 525.964844 448.457031 526.546875 C 469.261719 529.375 490.355469 529.375 511.160156 526.546875 C 515.734375 525.964844 519.5625 522.71875 520.9375 518.265625 L 533.917969 475.992188 C 535.042969 472.414062 537.789062 469.542969 541.324219 468.296875 C 547.441406 466.132812 553.472656 463.636719 559.300781 460.847656 C 562.710938 459.226562 566.664062 459.308594 569.992188 461.097656 L 609.0625 481.816406 C 613.179688 483.941406 618.171875 483.566406 621.835938 480.734375 C 638.5625 468.003906 653.457031 453.109375 666.1875 436.425781 C 669.019531 432.722656 669.433594 427.726562 667.269531 423.648438 L 646.550781 384.582031 C 644.71875 381.292969 644.59375 377.300781 646.132812 373.886719 C 648.921875 368.019531 651.417969 362.03125 653.582031 355.914062 C 654.828125 352.335938 657.699219 349.589844 661.320312 348.507812 L 703.59375 335.484375 C 708.003906 334.109375 711.25 330.324219 711.875 325.746094 C 714.660156 304.902344 714.660156 283.847656 711.875 263.003906 C 711.25 258.425781 708.003906 254.597656 703.59375 253.265625 L 661.320312 240.242188 C 657.699219 239.164062 654.828125 236.417969 653.582031 232.839844 C 651.417969 226.722656 648.921875 220.730469 646.132812 214.863281 C 644.59375 211.453125 644.71875 207.457031 646.550781 204.171875 L 667.269531 165.101562 C 669.433594 160.980469 669.019531 156.03125 666.1875 152.328125 C 653.457031 135.644531 638.5625 120.707031 621.835938 108.015625 C 618.171875 105.1875 613.179688 104.769531 609.0625 106.933594 L 569.992188 127.652344 C 566.664062 129.441406 562.710938 129.527344 559.300781 127.902344 C 553.472656 125.117188 547.441406 122.621094 541.324219 120.457031 C 537.789062 119.207031 535.042969 116.335938 533.917969 112.71875 L 520.9375 70.484375 C 519.5625 66.03125 515.734375 62.789062 511.160156 62.164062 C 503.417969 61.125 495.640625 60.457031 487.816406 60.207031 " fill-opacity="1" fill-rule="nonzero"/></g></svg>